<svg width="122" height="40" viewBox="0 0 122 40" fill="none" xmlns="http://www.w3.org/2000/svg">
<circle cx="20" cy="20" r="20" fill="#29B6F6"/>
<path d="M9.3507 20.3741L13.9488 22.0886L15.7413 27.8557C15.8192 28.2454 16.2868 28.3233 16.5985 28.0895L19.1703 25.9853C19.4041 25.7515 19.7938 25.7515 20.1055 25.9853L24.7036 29.3364C25.0154 29.5702 25.483 29.4144 25.5609 29.0247L28.99 12.6587C29.0679 12.269 28.6782 11.8793 28.2886 12.0352L9.3507 19.3609C8.8831 19.5168 8.8831 20.2182 9.3507 20.3741ZM15.5075 21.2313L24.5477 15.6981C24.7036 15.6201 24.8595 15.8539 24.7036 15.9319L17.2999 22.868C17.0661 23.1018 16.8323 23.4135 16.8323 23.8032L16.5985 25.6736C16.5985 25.9074 16.2089 25.9853 16.1309 25.6736L15.1957 22.2445C14.9619 21.8548 15.1178 21.3872 15.5075 21.2313Z" fill="white"/>
<path d="M57.3772 17.74H54.1292V16.2H62.4452V17.74H59.1972V26H57.3772V17.74ZM69.9055 22.304C69.9055 22.4253 69.8962 22.598 69.8775 22.822H64.0115C64.1142 23.3727 64.3802 23.8113 64.8095 24.138C65.2482 24.4553 65.7895 24.614 66.4335 24.614C67.2548 24.614 67.9315 24.3433 68.4635 23.802L69.4015 24.88C69.0655 25.2813 68.6408 25.5847 68.1275 25.79C67.6142 25.9953 67.0355 26.098 66.3915 26.098C65.5702 26.098 64.8468 25.9347 64.2215 25.608C63.5962 25.2813 63.1108 24.8287 62.7655 24.25C62.4295 23.662 62.2615 22.9993 62.2615 22.262C62.2615 21.534 62.4248 20.8807 62.7515 20.302C63.0875 19.714 63.5495 19.2567 64.1375 18.93C64.7255 18.6033 65.3882 18.44 66.1255 18.44C66.8535 18.44 67.5022 18.6033 68.0715 18.93C68.6502 19.2473 69.0982 19.7 69.4155 20.288C69.7422 20.8667 69.9055 21.5387 69.9055 22.304ZM66.1255 19.84C65.5655 19.84 65.0895 20.008 64.6975 20.344C64.3148 20.6707 64.0815 21.1093 63.9975 21.66H68.2395C68.1648 21.1187 67.9362 20.68 67.5535 20.344C67.1708 20.008 66.6948 19.84 66.1255 19.84ZM71.5865 15.612H73.3365V26H71.5865V15.612ZM82.6614 22.304C82.6614 22.4253 82.652 22.598 82.6334 22.822H76.7674C76.87 23.3727 77.136 23.8113 77.5654 24.138C78.004 24.4553 78.5454 24.614 79.1894 24.614C80.0107 24.614 80.6874 24.3433 81.2194 23.802L82.1574 24.88C81.8214 25.2813 81.3967 25.5847 80.8834 25.79C80.37 25.9953 79.7914 26.098 79.1474 26.098C78.326 26.098 77.6027 25.9347 76.9774 25.608C76.352 25.2813 75.8667 24.8287 75.5214 24.25C75.1854 23.662 75.0174 22.9993 75.0174 22.262C75.0174 21.534 75.1807 20.8807 75.5074 20.302C75.8434 19.714 76.3054 19.2567 76.8934 18.93C77.4814 18.6033 78.144 18.44 78.8814 18.44C79.6094 18.44 80.258 18.6033 80.8274 18.93C81.406 19.2473 81.854 19.7 82.1714 20.288C82.498 20.8667 82.6614 21.5387 82.6614 22.304ZM78.8814 19.84C78.3214 19.84 77.8454 20.008 77.4534 20.344C77.0707 20.6707 76.8374 21.1093 76.7534 21.66H80.9954C80.9207 21.1187 80.692 20.68 80.3094 20.344C79.9267 20.008 79.4507 19.84 78.8814 19.84ZM91.7623 18.524V24.866C91.7623 27.498 90.4183 28.814 87.7303 28.814C87.0117 28.814 86.3303 28.7207 85.6863 28.534C85.0423 28.3567 84.5103 28.0953 84.0903 27.75L84.8743 26.434C85.201 26.7047 85.6117 26.9193 86.1063 27.078C86.6103 27.246 87.119 27.33 87.6323 27.33C88.4537 27.33 89.0557 27.1433 89.4383 26.77C89.821 26.3967 90.0123 25.8273 90.0123 25.062V24.67C89.7137 24.9967 89.3497 25.244 88.9203 25.412C88.491 25.58 88.0197 25.664 87.5063 25.664C86.797 25.664 86.153 25.5147 85.5743 25.216C85.005 24.908 84.5523 24.4787 84.2163 23.928C83.8897 23.3773 83.7263 22.7473 83.7263 22.038C83.7263 21.3287 83.8897 20.7033 84.2163 20.162C84.5523 19.6113 85.005 19.1867 85.5743 18.888C86.153 18.5893 86.797 18.44 87.5063 18.44C88.0477 18.44 88.5377 18.5287 88.9763 18.706C89.4243 18.8833 89.7977 19.154 90.0963 19.518V18.524H91.7623ZM87.7723 24.18C88.435 24.18 88.9763 23.984 89.3963 23.592C89.8257 23.1907 90.0403 22.6727 90.0403 22.038C90.0403 21.4127 89.8257 20.904 89.3963 20.512C88.9763 20.12 88.435 19.924 87.7723 19.924C87.1003 19.924 86.5497 20.12 86.1203 20.512C85.7003 20.904 85.4903 21.4127 85.4903 22.038C85.4903 22.6727 85.7003 23.1907 86.1203 23.592C86.5497 23.984 87.1003 24.18 87.7723 24.18ZM95.729 19.616C96.233 18.832 97.1197 18.44 98.389 18.44V20.106C98.2397 20.078 98.1044 20.064 97.983 20.064C97.3017 20.064 96.7697 20.2647 96.387 20.666C96.0044 21.058 95.813 21.6273 95.813 22.374V26H94.063V18.524H95.729V19.616ZM102.689 18.44C103.79 18.44 104.63 18.706 105.209 19.238C105.797 19.7607 106.091 20.554 106.091 21.618V26H104.439V25.09C104.224 25.4167 103.916 25.6687 103.515 25.846C103.123 26.014 102.647 26.098 102.087 26.098C101.527 26.098 101.037 26.0047 100.617 25.818C100.197 25.622 99.8699 25.356 99.6366 25.02C99.4126 24.6747 99.3006 24.2873 99.3006 23.858C99.3006 23.186 99.5479 22.6493 100.043 22.248C100.547 21.8373 101.335 21.632 102.409 21.632H104.341V21.52C104.341 20.9973 104.182 20.596 103.865 20.316C103.557 20.036 103.095 19.896 102.479 19.896C102.059 19.896 101.643 19.9613 101.233 20.092C100.831 20.2227 100.491 20.4047 100.211 20.638L99.5246 19.364C99.9166 19.0653 100.388 18.8367 100.939 18.678C101.489 18.5193 102.073 18.44 102.689 18.44ZM102.451 24.824C102.889 24.824 103.277 24.726 103.613 24.53C103.958 24.3247 104.201 24.0353 104.341 23.662V22.794H102.535C101.527 22.794 101.023 23.1253 101.023 23.788C101.023 24.1053 101.149 24.3573 101.401 24.544C101.653 24.7307 102.003 24.824 102.451 24.824ZM117.772 18.44C118.715 18.44 119.462 18.7153 120.012 19.266C120.563 19.8073 120.838 20.624 120.838 21.716V26H119.088V21.94C119.088 21.2867 118.944 20.7967 118.654 20.47C118.365 20.134 117.95 19.966 117.408 19.966C116.82 19.966 116.349 20.162 115.994 20.554C115.64 20.9367 115.462 21.4873 115.462 22.206V26H113.712V21.94C113.712 21.2867 113.568 20.7967 113.278 20.47C112.989 20.134 112.574 19.966 112.032 19.966C111.435 19.966 110.959 20.1573 110.604 20.54C110.259 20.9227 110.086 21.478 110.086 22.206V26H108.336V18.524H110.002V19.476C110.282 19.14 110.632 18.8833 111.052 18.706C111.472 18.5287 111.939 18.44 112.452 18.44C113.012 18.44 113.507 18.5473 113.936 18.762C114.375 18.9673 114.72 19.2753 114.972 19.686C115.28 19.294 115.677 18.9907 116.162 18.776C116.648 18.552 117.184 18.44 117.772 18.44Z" fill="#29B6F6"/>
</svg>
