<svg width="93" height="40" viewBox="0 0 93 40" fill="none" xmlns="http://www.w3.org/2000/svg">
<circle cx="20" cy="20" r="20" fill="#7360F2"/>
<path d="M27.2146 12.4546C26.711 11.9899 24.6759 10.5125 20.1428 10.4925C20.1428 10.4925 14.7972 10.1701 12.1912 12.5604C10.7406 14.0113 10.2303 16.1343 10.1765 18.7664C10.1227 21.3985 10.053 26.3312 14.8078 27.6686H14.8124L14.8093 29.7095C14.8093 29.7095 14.7789 30.5358 15.323 30.7043C15.9811 30.9086 16.3673 30.2807 16.9956 29.6037C17.3405 29.2321 17.8167 28.6862 18.1755 28.269C21.4274 28.5427 23.9284 27.9171 24.2125 27.8247C24.869 27.6118 28.5844 27.1355 29.1886 22.2035C29.8124 17.1196 28.8869 13.904 27.2146 12.4546ZM27.7657 21.8388C27.2557 25.9571 24.2423 26.2159 23.6866 26.3941C23.4503 26.4701 21.2538 27.0166 18.4915 26.8363C18.4915 26.8363 16.4333 29.3194 15.7904 29.965C15.69 30.066 15.572 30.1067 15.4933 30.0866C15.3826 30.0596 15.3522 29.9285 15.3534 29.7369C15.3552 29.4632 15.371 26.3455 15.371 26.3455C15.3686 26.3455 15.371 26.3455 15.371 26.3455C11.3489 25.2288 11.5833 21.0305 11.6289 18.8321C11.6746 16.6337 12.0875 14.8327 13.3143 13.6215C15.5185 11.625 20.0592 11.9233 20.0592 11.9233C23.8937 11.94 25.7312 13.0947 26.1572 13.4816C27.572 14.6928 28.2927 17.5913 27.7657 21.8376V21.8388Z" fill="white"/>
<path fill-rule="evenodd" clip-rule="evenodd" d="M20.2209 17.0537C20.2283 16.9123 20.3489 16.8036 20.4903 16.811C21.0193 16.8386 21.4594 16.9988 21.7729 17.3229C22.0852 17.6457 22.2382 18.0968 22.2651 18.6385C22.2721 18.7799 22.1632 18.9002 22.0218 18.9072C21.8804 18.9142 21.76 18.8053 21.753 18.6639C21.73 18.2002 21.6028 17.8845 21.4044 17.6793C21.2071 17.4754 20.9061 17.3461 20.4636 17.3231C20.3222 17.3157 20.2136 17.1951 20.2209 17.0537Z" fill="white"/>
<path fill-rule="evenodd" clip-rule="evenodd" d="M19.8321 15.6728C19.8424 15.5316 19.9653 15.4255 20.1065 15.4359C21.1831 15.5147 22.0496 15.8825 22.6808 16.5715L22.6809 16.5716C23.3052 17.2538 23.602 18.1025 23.5804 19.098C23.5774 19.2395 23.4601 19.3518 23.3186 19.3487C23.177 19.3457 23.0647 19.2284 23.0678 19.0869C23.0868 18.209 22.8287 17.4925 22.3026 16.9178C21.7782 16.3454 21.0452 16.0187 20.0691 15.9472C19.9278 15.9369 19.8218 15.8141 19.8321 15.6728Z" fill="white"/>
<path fill-rule="evenodd" clip-rule="evenodd" d="M19.3795 14.3602C19.3804 14.2186 19.496 14.1046 19.6376 14.1056C21.1254 14.116 22.383 14.6113 23.3926 15.5955C24.4108 16.5881 24.9143 17.9393 24.927 19.6175C24.9281 19.7591 24.8142 19.8747 24.6726 19.8758C24.5311 19.8769 24.4154 19.763 24.4143 19.6214C24.4024 18.0488 23.9345 16.8398 23.0347 15.9627C22.1265 15.0773 20.9988 14.6278 19.634 14.6183C19.4925 14.6173 19.3785 14.5018 19.3795 14.3602Z" fill="white"/>
<path d="M20.5278 22.0853C20.5278 22.0853 20.8882 22.1157 21.0822 21.8767L21.4605 21.4007C21.643 21.1648 22.0833 21.0142 22.5145 21.2545C22.8377 21.4388 23.1514 21.6391 23.4546 21.8548C23.7407 22.0652 24.3267 22.5542 24.3286 22.5542C24.6077 22.7899 24.6722 23.136 24.4821 23.5009C24.4821 23.5031 24.4806 23.5067 24.4806 23.5085C24.2713 23.8714 24.0055 24.1987 23.6933 24.478C23.6896 24.4799 23.6896 24.4817 23.6863 24.4835C23.415 24.7102 23.1485 24.839 22.8868 24.87C22.8482 24.8768 22.8091 24.8792 22.77 24.8773C22.6546 24.8785 22.5397 24.8608 22.43 24.825L22.4215 24.8126C22.0182 24.6988 21.3449 24.4142 20.2237 23.7956C19.5748 23.4419 18.9571 23.0338 18.3771 22.5758C18.0864 22.3464 17.8091 22.1005 17.5466 21.8393L17.5186 21.8113L17.4906 21.7833L17.4627 21.7553C17.4532 21.7462 17.4441 21.7368 17.4347 21.7274C17.1735 21.4648 16.9275 21.1875 16.6981 20.8968C16.2402 20.3169 15.8321 19.6993 15.4783 19.0506C14.8598 17.929 14.5751 17.2563 14.4614 16.8525L14.4489 16.8439C14.4133 16.7342 14.3957 16.6194 14.3969 16.504C14.3948 16.4649 14.3971 16.4257 14.4039 16.3872C14.4365 16.1258 14.5656 15.8591 14.791 15.5871C14.7929 15.5837 14.7947 15.5837 14.7965 15.5801C15.0758 15.2678 15.4031 15.0022 15.766 14.793C15.7678 14.793 15.7715 14.7912 15.7736 14.7912C16.1386 14.6011 16.4846 14.6656 16.72 14.9433C16.7218 14.9451 17.2099 15.5311 17.4195 15.8173C17.6352 16.1207 17.8355 16.4347 18.0198 16.7582C18.26 17.1891 18.1095 17.6304 17.8735 17.8122L17.3976 18.1906C17.1573 18.3846 17.189 18.7449 17.189 18.7449C17.189 18.7449 17.8939 21.4129 20.5278 22.0853Z" fill="white"/>
<path d="M64.276 16.2L60.006 26H58.214L53.93 16.2H55.904L59.166 23.76L62.456 16.2H64.276ZM65.2105 18.524H66.9605V26H65.2105V18.524ZM66.0925 17.292C65.7752 17.292 65.5092 17.194 65.2945 16.998C65.0798 16.7927 64.9725 16.5407 64.9725 16.242C64.9725 15.9433 65.0798 15.696 65.2945 15.5C65.5092 15.2947 65.7752 15.192 66.0925 15.192C66.4098 15.192 66.6758 15.29 66.8905 15.486C67.1052 15.6727 67.2125 15.9107 67.2125 16.2C67.2125 16.508 67.1052 16.7693 66.8905 16.984C66.6852 17.1893 66.4192 17.292 66.0925 17.292ZM73.4014 18.44C74.1294 18.44 74.778 18.5987 75.3474 18.916C75.926 19.2333 76.3787 19.6813 76.7054 20.26C77.032 20.8387 77.1954 21.506 77.1954 22.262C77.1954 23.018 77.032 23.69 76.7054 24.278C76.3787 24.8567 75.926 25.3047 75.3474 25.622C74.778 25.9393 74.1294 26.098 73.4014 26.098C72.888 26.098 72.4167 26.0093 71.9874 25.832C71.5674 25.6547 71.2127 25.3887 70.9234 25.034V26H69.2574V15.612H71.0074V19.434C71.306 19.1073 71.656 18.86 72.0574 18.692C72.468 18.524 72.916 18.44 73.4014 18.44ZM73.2054 24.6C73.8494 24.6 74.3767 24.3853 74.7874 23.956C75.2074 23.5267 75.4174 22.962 75.4174 22.262C75.4174 21.562 75.2074 20.9973 74.7874 20.568C74.3767 20.1387 73.8494 19.924 73.2054 19.924C72.7854 19.924 72.4074 20.022 72.0714 20.218C71.7354 20.4047 71.4694 20.6753 71.2734 21.03C71.0774 21.3847 70.9794 21.7953 70.9794 22.262C70.9794 22.7287 71.0774 23.1393 71.2734 23.494C71.4694 23.8487 71.7354 24.124 72.0714 24.32C72.4074 24.5067 72.7854 24.6 73.2054 24.6ZM85.883 22.304C85.883 22.4253 85.8737 22.598 85.855 22.822H79.989C80.0917 23.3727 80.3577 23.8113 80.787 24.138C81.2257 24.4553 81.767 24.614 82.411 24.614C83.2324 24.614 83.909 24.3433 84.441 23.802L85.379 24.88C85.043 25.2813 84.6184 25.5847 84.105 25.79C83.5917 25.9953 83.013 26.098 82.369 26.098C81.5477 26.098 80.8244 25.9347 80.199 25.608C79.5737 25.2813 79.0884 24.8287 78.743 24.25C78.407 23.662 78.239 22.9993 78.239 22.262C78.239 21.534 78.4024 20.8807 78.729 20.302C79.065 19.714 79.527 19.2567 80.115 18.93C80.703 18.6033 81.3657 18.44 82.103 18.44C82.831 18.44 83.4797 18.6033 84.049 18.93C84.6277 19.2473 85.0757 19.7 85.393 20.288C85.7197 20.8667 85.883 21.5387 85.883 22.304ZM82.103 19.84C81.543 19.84 81.067 20.008 80.675 20.344C80.2924 20.6707 80.059 21.1093 79.975 21.66H84.217C84.1424 21.1187 83.9137 20.68 83.531 20.344C83.1484 20.008 82.6724 19.84 82.103 19.84ZM89.23 19.616C89.734 18.832 90.6207 18.44 91.89 18.44V20.106C91.7407 20.078 91.6053 20.064 91.484 20.064C90.8027 20.064 90.2707 20.2647 89.888 20.666C89.5053 21.058 89.314 21.6273 89.314 22.374V26H87.564V18.524H89.23V19.616Z" fill="#7360F2"/>
</svg>
