<svg width="129" height="40" viewBox="0 0 129 40" fill="none" xmlns="http://www.w3.org/2000/svg">
<circle cx="20" cy="20" r="20" fill="#48C95F"/>
<path d="M27.9268 12.0625C25.9512 10.0937 23.3171 9 20.5366 9C14.7561 9 10.0732 13.6667 10.0732 19.4271C10.0732 21.25 10.5854 23.0729 11.4634 24.6042L10 30L15.561 28.5417C17.0976 29.3437 18.7805 29.7812 20.5366 29.7812C26.3171 29.7812 31 25.1146 31 19.3542C30.9268 16.6562 29.9024 14.0312 27.9268 12.0625ZM25.5854 23.1458C25.3659 23.7292 24.3415 24.3125 23.8293 24.3854C23.3902 24.4583 22.8049 24.4583 22.2195 24.3125C21.8537 24.1667 21.3415 24.0208 20.7561 23.7292C18.122 22.6354 16.439 20.0104 16.2927 19.7917C16.1463 19.6458 15.1951 18.4062 15.1951 17.0937C15.1951 15.7812 15.8537 15.1979 16.0732 14.9062C16.2927 14.6146 16.5854 14.6146 16.8049 14.6146C16.9512 14.6146 17.1707 14.6146 17.3171 14.6146C17.4634 14.6146 17.6829 14.5417 17.9024 15.0521C18.122 15.5625 18.6341 16.875 18.7073 16.9479C18.7805 17.0937 18.7805 17.2396 18.7073 17.3854C18.6341 17.5312 18.561 17.6771 18.4146 17.8229C18.2683 17.9687 18.1219 18.1875 18.0488 18.2604C17.9024 18.4062 17.7561 18.5521 17.9024 18.7708C18.0488 19.0625 18.561 19.8646 19.3659 20.5937C20.3902 21.4687 21.1951 21.7604 21.4878 21.9062C21.7805 22.0521 21.9268 21.9792 22.0732 21.8333C22.2195 21.6875 22.7317 21.1042 22.878 20.8125C23.0244 20.5208 23.2439 20.5937 23.4634 20.6667C23.6829 20.7396 25 21.3958 25.2195 21.5417C25.5122 21.6875 25.6585 21.7604 25.7317 21.8333C25.8049 22.0521 25.8049 22.5625 25.5854 23.1458Z" fill="white"/>
<path d="M69.6702 16.2L66.4222 26H64.4902L62.0682 18.748L59.6042 26H57.6582L54.4102 16.2H56.3002L58.7362 23.648L61.2702 16.2H62.9502L65.4282 23.69L67.9342 16.2H69.6702ZM75.432 18.44C76.3747 18.44 77.1307 18.7153 77.7 19.266C78.2693 19.8167 78.554 20.6333 78.554 21.716V26H76.804V21.94C76.804 21.2867 76.65 20.7967 76.342 20.47C76.034 20.134 75.5953 19.966 75.026 19.966C74.382 19.966 73.8733 20.162 73.5 20.554C73.1267 20.9367 72.94 21.492 72.94 22.22V26H71.19V15.612H72.94V19.392C73.2293 19.084 73.584 18.8507 74.004 18.692C74.4333 18.524 74.9093 18.44 75.432 18.44ZM83.63 18.44C84.7313 18.44 85.5713 18.706 86.15 19.238C86.738 19.7607 87.032 20.554 87.032 21.618V26H85.38V25.09C85.1653 25.4167 84.8573 25.6687 84.456 25.846C84.064 26.014 83.588 26.098 83.028 26.098C82.468 26.098 81.978 26.0047 81.558 25.818C81.138 25.622 80.8113 25.356 80.578 25.02C80.354 24.6747 80.242 24.2873 80.242 23.858C80.242 23.186 80.4893 22.6493 80.984 22.248C81.488 21.8373 82.2766 21.632 83.35 21.632H85.282V21.52C85.282 20.9973 85.1233 20.596 84.806 20.316C84.498 20.036 84.036 19.896 83.42 19.896C83 19.896 82.5846 19.9613 82.174 20.092C81.7726 20.2227 81.432 20.4047 81.152 20.638L80.466 19.364C80.858 19.0653 81.3293 18.8367 81.88 18.678C82.4306 18.5193 83.014 18.44 83.63 18.44ZM83.392 24.824C83.8306 24.824 84.218 24.726 84.554 24.53C84.8993 24.3247 85.142 24.0353 85.282 23.662V22.794H83.476C82.468 22.794 81.964 23.1253 81.964 23.788C81.964 24.1053 82.09 24.3573 82.342 24.544C82.594 24.7307 82.944 24.824 83.392 24.824ZM93.7719 25.594C93.5665 25.762 93.3145 25.888 93.0159 25.972C92.7265 26.056 92.4185 26.098 92.0919 26.098C91.2705 26.098 90.6359 25.8833 90.1879 25.454C89.7399 25.0247 89.5159 24.3993 89.5159 23.578V19.98H88.2839V18.58H89.5159V16.872H91.2659V18.58H93.2679V19.98H91.2659V23.536C91.2659 23.9 91.3545 24.18 91.5319 24.376C91.7092 24.5627 91.9659 24.656 92.3019 24.656C92.6939 24.656 93.0205 24.5533 93.2819 24.348L93.7719 25.594ZM97.5215 26.098C96.9148 26.098 96.3221 26.0187 95.7435 25.86C95.1648 25.7013 94.7028 25.5007 94.3575 25.258L95.0295 23.928C95.3655 24.152 95.7668 24.334 96.2335 24.474C96.7095 24.6047 97.1761 24.67 97.6335 24.67C98.6788 24.67 99.2015 24.3947 99.2015 23.844C99.2015 23.5827 99.0661 23.4007 98.7955 23.298C98.5341 23.1953 98.1095 23.0973 97.5215 23.004C96.9055 22.9107 96.4015 22.8033 96.0095 22.682C95.6268 22.5607 95.2908 22.3507 95.0015 22.052C94.7215 21.744 94.5815 21.3193 94.5815 20.778C94.5815 20.0687 94.8755 19.504 95.4635 19.084C96.0608 18.6547 96.8635 18.44 97.8715 18.44C98.3848 18.44 98.8981 18.5007 99.4115 18.622C99.9248 18.734 100.345 18.888 100.671 19.084L99.9995 20.414C99.3648 20.0407 98.6508 19.854 97.8575 19.854C97.3441 19.854 96.9521 19.9333 96.6815 20.092C96.4201 20.2413 96.2895 20.442 96.2895 20.694C96.2895 20.974 96.4295 21.1747 96.7095 21.296C96.9988 21.408 97.4421 21.5153 98.0395 21.618C98.6368 21.7113 99.1268 21.8187 99.5095 21.94C99.8921 22.0613 100.219 22.2667 100.489 22.556C100.769 22.8453 100.909 23.256 100.909 23.788C100.909 24.488 100.606 25.048 99.9995 25.468C99.3928 25.888 98.5668 26.098 97.5215 26.098ZM105.273 18.44C106.374 18.44 107.214 18.706 107.793 19.238C108.381 19.7607 108.675 20.554 108.675 21.618V26H107.023V25.09C106.808 25.4167 106.5 25.6687 106.099 25.846C105.707 26.014 105.231 26.098 104.671 26.098C104.111 26.098 103.621 26.0047 103.201 25.818C102.781 25.622 102.454 25.356 102.221 25.02C101.997 24.6747 101.885 24.2873 101.885 23.858C101.885 23.186 102.132 22.6493 102.627 22.248C103.131 21.8373 103.919 21.632 104.993 21.632H106.925V21.52C106.925 20.9973 106.766 20.596 106.449 20.316C106.141 20.036 105.679 19.896 105.063 19.896C104.643 19.896 104.227 19.9613 103.817 20.092C103.415 20.2227 103.075 20.4047 102.795 20.638L102.109 19.364C102.501 19.0653 102.972 18.8367 103.523 18.678C104.073 18.5193 104.657 18.44 105.273 18.44ZM105.035 24.824C105.473 24.824 105.861 24.726 106.197 24.53C106.542 24.3247 106.785 24.0353 106.925 23.662V22.794H105.119C104.111 22.794 103.607 23.1253 103.607 23.788C103.607 24.1053 103.733 24.3573 103.985 24.544C104.237 24.7307 104.587 24.824 105.035 24.824ZM115.064 18.44C115.792 18.44 116.441 18.5987 117.01 18.916C117.589 19.2333 118.042 19.6813 118.368 20.26C118.695 20.8387 118.858 21.506 118.858 22.262C118.858 23.018 118.695 23.69 118.368 24.278C118.042 24.8567 117.589 25.3047 117.01 25.622C116.441 25.9393 115.792 26.098 115.064 26.098C114.056 26.098 113.258 25.762 112.67 25.09V28.716H110.92V18.524H112.586V19.504C112.876 19.1493 113.23 18.8833 113.65 18.706C114.08 18.5287 114.551 18.44 115.064 18.44ZM114.868 24.6C115.512 24.6 116.04 24.3853 116.45 23.956C116.87 23.5267 117.08 22.962 117.08 22.262C117.08 21.562 116.87 20.9973 116.45 20.568C116.04 20.1387 115.512 19.924 114.868 19.924C114.448 19.924 114.07 20.022 113.734 20.218C113.398 20.4047 113.132 20.6753 112.936 21.03C112.74 21.3847 112.642 21.7953 112.642 22.262C112.642 22.7287 112.74 23.1393 112.936 23.494C113.132 23.8487 113.398 24.124 113.734 24.32C114.07 24.5067 114.448 24.6 114.868 24.6ZM124.662 18.44C125.39 18.44 126.039 18.5987 126.608 18.916C127.187 19.2333 127.639 19.6813 127.966 20.26C128.293 20.8387 128.456 21.506 128.456 22.262C128.456 23.018 128.293 23.69 127.966 24.278C127.639 24.8567 127.187 25.3047 126.608 25.622C126.039 25.9393 125.39 26.098 124.662 26.098C123.654 26.098 122.856 25.762 122.268 25.09V28.716H120.518V18.524H122.184V19.504C122.473 19.1493 122.828 18.8833 123.248 18.706C123.677 18.5287 124.149 18.44 124.662 18.44ZM124.466 24.6C125.11 24.6 125.637 24.3853 126.048 23.956C126.468 23.5267 126.678 22.962 126.678 22.262C126.678 21.562 126.468 20.9973 126.048 20.568C125.637 20.1387 125.11 19.924 124.466 19.924C124.046 19.924 123.668 20.022 123.332 20.218C122.996 20.4047 122.73 20.6753 122.534 21.03C122.338 21.3847 122.24 21.7953 122.24 22.262C122.24 22.7287 122.338 23.1393 122.534 23.494C122.73 23.8487 122.996 24.124 123.332 24.32C123.668 24.5067 124.046 24.6 124.466 24.6Z" fill="#48C95F"/>
</svg>
