<svg width="25" height="20" fill="none" xmlns="http://www.w3.org/2000/svg"><path d="M24.96 6.703c.03.056.043.12.04.183l-.484-.261a.237.237 0 01.15-.09.228.228 0 01.167.038.32.32 0 01.127.13zm0 0l-.202.108.201-.108zm-8.163 6.646c.193-.162.369-.31.493-.428l.015-.012c3.497-2.694 5.907-4.57 7.194-5.622v10.215c.002.266-.047.53-.14.774a2.008 2.008 0 01-.405.65 1.828 1.828 0 01-.595.426c-.22.098-.456.148-.693.148H2.347a1.705 1.705 0 01-.696-.144 1.828 1.828 0 01-.6-.425 2.008 2.008 0 01-.408-.652 2.136 2.136 0 01-.142-.777V7.255c1.203.97 3.6 2.845 7.184 5.619.102.101.315.292.662.581.376.314.682.569.942.743.174.117.386.253.622.405l.268.172h0l.004.003c.365.23.755.414 1.162.547h0l.007.002c.372.115.756.175 1.143.18v0h.006c.346-.001.69-.052 1.024-.151.308-.09.61-.203.902-.34h0l.011-.004a6.82 6.82 0 00.9-.534h0l.008-.006.21-.153c.2-.145.403-.29.552-.418.081-.069.18-.146.298-.238l.002-.002c.116-.09.247-.193.38-.305l.009-.007zm-3.566-.747l-.016.008-.016.01a1.647 1.647 0 01-.696.217 1.76 1.76 0 01-.708-.221l-.009-.005-.01-.005a9.132 9.132 0 01-.85-.493 11.886 11.886 0 01-.948-.74 6.306 6.306 0 00-.754-.579C5.261 7.711 2.444 5.48.769 4.096h0l-.01-.008a.661.661 0 01-.193-.249.743.743 0 01-.066-.331V2.5h0v-.003a2.136 2.136 0 01.143-.777c.095-.246.234-.467.408-.652.173-.184.377-.328.6-.425a1.7 1.7 0 01.696-.144h20.319c.237 0 .472.05.693.148.22.098.423.242.595.426.172.185.31.405.404.65.094.245.142.508.141.774v1.009a.777.777 0 01-.063.335.7.7 0 01-.19.256c-1.591 1.313-4.413 3.545-8.47 6.698-.261.17-.508.364-.738.578-.432.354-.748.6-.952.744-.276.18-.561.342-.855.485z" fill="#00A0E3" stroke="#00A0E3" opacity=".5"/></svg>