<svg width="22" height="22" fill="none" xmlns="http://www.w3.org/2000/svg"><path opacity=".5" d="M20.627 14.673l.002.001a1.449 1.449 0 01.836 1.646v.003l-.938 4.063h0a1.437 1.437 0 01-1.402 1.114m1.502-6.827L.5 2.875H1 .5C.5 13.17 8.845 21.5 19.125 21.5m1.502-6.827l-4.375-1.875h-.001m4.376 1.875l-4.376-1.875m2.874 8.702V21v.5s0 0 0 0zm-2.874-8.702a1.437 1.437 0 00-1.678.413l-1.686 2.06A13.98 13.98 0 016.725 9.11m9.526 3.689l-9.526-3.69m0 0l2.06-1.686s0 0 0 0l-2.06 1.686z" fill="#00A0E3" stroke="#00A0E3"/></svg>