<svg width="122" height="40" fill="none" xmlns="http://www.w3.org/2000/svg"><circle cx="20" cy="20" r="20" fill="#29B6F6"/><path d="M9.35 20.374l4.599 1.715 1.792 5.767c.078.39.546.467.858.233l2.571-2.104c.234-.233.624-.233.935 0l4.599 3.351c.311.234.779.078.857-.311l3.429-16.366c.078-.39-.312-.78-.701-.624L9.35 19.361c-.468.156-.468.857 0 1.013zm6.158.857l9.04-5.533c.156-.078.312.156.156.234L17.3 22.868c-.234.234-.468.546-.468.935l-.233 1.87c0 .234-.39.312-.468 0l-.935-3.428c-.234-.39-.078-.858.312-1.014z" fill="#fff"/><path d="M57.377 17.74H54.13V16.2h8.316v1.54h-3.248V26h-1.82v-8.26zm12.529 4.564c0 .121-.01.294-.029.518h-5.865c.102.55.368.99.797 1.316.44.317.98.476 1.624.476.822 0 1.498-.27 2.03-.812l.939 1.078a3.16 3.16 0 01-1.275.91c-.513.205-1.091.308-1.736.308-.82 0-1.544-.163-2.17-.49a3.591 3.591 0 01-1.456-1.358c-.336-.588-.504-1.25-.504-1.988 0-.728.164-1.381.49-1.96a3.56 3.56 0 011.387-1.372c.587-.327 1.25-.49 1.987-.49.728 0 1.377.163 1.947.49.578.317 1.026.77 1.343 1.358.327.579.49 1.25.49 2.016zm-3.78-2.464c-.56 0-1.037.168-1.428.504-.383.327-.616.765-.7 1.316h4.242c-.075-.541-.304-.98-.686-1.316-.383-.336-.86-.504-1.428-.504zm5.46-4.228h1.75V26h-1.75V15.612zm11.075 6.692c0 .121-.009.294-.028.518h-5.866c.103.55.369.99.798 1.316.439.317.98.476 1.624.476.822 0 1.498-.27 2.03-.812l.938 1.078a3.16 3.16 0 01-1.274.91c-.513.205-1.092.308-1.736.308-.821 0-1.544-.163-2.17-.49a3.59 3.59 0 01-1.456-1.358c-.336-.588-.504-1.25-.504-1.988 0-.728.164-1.381.49-1.96a3.56 3.56 0 011.386-1.372c.588-.327 1.251-.49 1.988-.49.728 0 1.377.163 1.946.49a3.3 3.3 0 011.344 1.358c.327.579.49 1.25.49 2.016zm-3.78-2.464c-.56 0-1.036.168-1.428.504-.382.327-.616.765-.7 1.316h4.242c-.074-.541-.303-.98-.686-1.316-.382-.336-.858-.504-1.428-.504zm12.881-1.316v6.342c0 2.632-1.344 3.948-4.032 3.948-.718 0-1.4-.093-2.044-.28-.644-.177-1.176-.439-1.596-.784l.784-1.316c.327.27.738.485 1.232.644a4.798 4.798 0 001.526.252c.822 0 1.424-.187 1.806-.56.383-.373.574-.943.574-1.708v-.392a2.875 2.875 0 01-1.092.742c-.429.168-.9.252-1.414.252a4.15 4.15 0 01-1.932-.448 3.532 3.532 0 01-1.358-1.288c-.326-.55-.49-1.18-.49-1.89s.164-1.335.49-1.876a3.43 3.43 0 011.358-1.274 4.15 4.15 0 011.932-.448 3.89 3.89 0 011.47.266c.448.177.822.448 1.12.812v-.994h1.666zm-3.99 5.656c.663 0 1.204-.196 1.624-.588.43-.401.644-.92.644-1.554 0-.625-.214-1.134-.644-1.526-.42-.392-.961-.588-1.624-.588-.672 0-1.222.196-1.652.588-.42.392-.63.9-.63 1.526 0 .635.21 1.153.63 1.554.43.392.98.588 1.652.588zm7.957-4.564c.504-.784 1.39-1.176 2.66-1.176v1.666a2.22 2.22 0 00-.406-.042c-.681 0-1.213.2-1.596.602-.383.392-.574.961-.574 1.708V26h-1.75v-7.476h1.666v1.092zm6.96-1.176c1.101 0 1.941.266 2.52.798.588.523.882 1.316.882 2.38V26h-1.652v-.91a2.077 2.077 0 01-.924.756c-.392.168-.868.252-1.428.252-.56 0-1.05-.093-1.47-.28a2.392 2.392 0 01-.98-.798 2.09 2.09 0 01-.336-1.162c0-.672.247-1.209.742-1.61.504-.41 1.292-.616 2.366-.616h1.932v-.112c0-.523-.159-.924-.476-1.204-.308-.28-.77-.42-1.386-.42-.42 0-.836.065-1.246.196a3.04 3.04 0 00-1.022.546l-.686-1.274a4.247 4.247 0 011.414-.686 6.287 6.287 0 011.75-.238zm-.238 6.384c.438 0 .826-.098 1.162-.294.345-.205.588-.495.728-.868v-.868h-1.806c-1.008 0-1.512.331-1.512.994 0 .317.126.57.378.756.252.187.602.28 1.05.28zm15.321-6.384c.943 0 1.69.275 2.24.826.551.541.826 1.358.826 2.45V26h-1.75v-4.06c0-.653-.144-1.143-.434-1.47-.289-.336-.704-.504-1.246-.504-.588 0-1.059.196-1.414.588-.354.383-.532.933-.532 1.652V26h-1.75v-4.06c0-.653-.144-1.143-.434-1.47-.289-.336-.704-.504-1.246-.504-.597 0-1.073.191-1.428.574-.345.383-.518.938-.518 1.666V26h-1.75v-7.476h1.666v.952a2.72 2.72 0 011.05-.77c.42-.177.887-.266 1.4-.266.56 0 1.055.107 1.484.322.439.205.784.513 1.036.924a3.058 3.058 0 011.19-.91 3.798 3.798 0 011.61-.336z" fill="#29B6F6"/></svg>