<svg width="129" height="40" fill="none" xmlns="http://www.w3.org/2000/svg"><circle cx="20" cy="20" r="20" fill="#48C95F"/><path d="M27.927 12.063A10.428 10.428 0 0020.537 9c-5.78 0-10.464 4.667-10.464 10.427 0 1.823.512 3.646 1.39 5.177L10 30l5.561-1.458c1.537.802 3.22 1.24 4.976 1.24 5.78 0 10.463-4.667 10.463-10.428-.073-2.698-1.098-5.323-3.073-7.291zm-2.342 11.083c-.22.583-1.244 1.166-1.756 1.24a4.104 4.104 0 01-1.61-.073c-.365-.146-.878-.292-1.463-.584-2.634-1.094-4.317-3.719-4.463-3.937-.147-.146-1.098-1.386-1.098-2.698 0-1.313.659-1.896.878-2.188.22-.291.512-.291.732-.291h.512c.146 0 .366-.073.585.437.22.51.732 1.823.805 1.896a.463.463 0 010 .437 1.527 1.527 0 01-.292.438c-.147.146-.293.364-.366.437-.147.146-.293.292-.147.51.147.293.659 1.095 1.464 1.824 1.024.875 1.83 1.166 2.122 1.312.293.146.439.073.585-.073.146-.145.659-.729.805-1.02.146-.292.366-.22.585-.146.22.073 1.537.729 1.756.875.293.145.44.218.513.291.073.22.073.73-.147 1.313z" fill="#fff"/><path d="M69.67 16.2L66.422 26H64.49l-2.422-7.252L59.604 26h-1.946l-3.248-9.8h1.89l2.436 7.448L61.27 16.2h1.68l2.478 7.49 2.506-7.49h1.736zm5.762 2.24c.943 0 1.699.275 2.268.826.57.55.854 1.367.854 2.45V26h-1.75v-4.06c0-.653-.154-1.143-.462-1.47-.308-.336-.747-.504-1.316-.504-.644 0-1.153.196-1.526.588-.373.383-.56.938-.56 1.666V26h-1.75V15.612h1.75v3.78c.29-.308.644-.541 1.064-.7a3.89 3.89 0 011.428-.252zm8.198 0c1.101 0 1.941.266 2.52.798.588.523.882 1.316.882 2.38V26H85.38v-.91a2.074 2.074 0 01-.924.756c-.392.168-.868.252-1.428.252-.56 0-1.05-.093-1.47-.28a2.391 2.391 0 01-.98-.798 2.09 2.09 0 01-.336-1.162c0-.672.247-1.209.742-1.61.504-.41 1.293-.616 2.366-.616h1.932v-.112c0-.523-.159-.924-.476-1.204-.308-.28-.77-.42-1.386-.42-.42 0-.835.065-1.246.196a3.05 3.05 0 00-1.022.546l-.686-1.274a4.248 4.248 0 011.414-.686 6.29 6.29 0 011.75-.238zm-.238 6.384c.439 0 .826-.098 1.162-.294.345-.205.588-.495.728-.868v-.868h-1.806c-1.008 0-1.512.331-1.512.994 0 .317.126.57.378.756.252.187.602.28 1.05.28zm10.38.77a2.057 2.057 0 01-.756.378 3.3 3.3 0 01-.924.126c-.822 0-1.456-.215-1.904-.644-.448-.43-.672-1.055-.672-1.876V19.98h-1.232v-1.4h1.232v-1.708h1.75v1.708h2.002v1.4h-2.002v3.556c0 .364.088.644.266.84.177.187.434.28.77.28.392 0 .718-.103.98-.308l.49 1.246zm3.75.504c-.607 0-1.2-.08-1.779-.238-.578-.159-1.04-.36-1.385-.602l.671-1.33a4.48 4.48 0 001.205.546c.476.13.942.196 1.4.196 1.045 0 1.567-.275 1.567-.826 0-.261-.135-.443-.405-.546-.262-.103-.687-.2-1.275-.294-.615-.093-1.12-.2-1.511-.322a2.393 2.393 0 01-1.009-.63c-.28-.308-.42-.733-.42-1.274 0-.71.294-1.274.882-1.694.598-.43 1.4-.644 2.409-.644.513 0 1.026.06 1.54.182.513.112.933.266 1.259.462l-.672 1.33c-.634-.373-1.348-.56-2.141-.56-.514 0-.906.08-1.177.238-.26.15-.391.35-.391.602 0 .28.14.48.42.602.289.112.732.22 1.33.322.597.093 1.087.2 1.47.322.382.121.709.327.979.616.28.29.42.7.42 1.232 0 .7-.303 1.26-.91 1.68-.606.42-1.432.63-2.477.63zm7.751-7.658c1.101 0 1.941.266 2.52.798.588.523.882 1.316.882 2.38V26h-1.652v-.91a2.077 2.077 0 01-.924.756c-.392.168-.868.252-1.428.252-.56 0-1.05-.093-1.47-.28a2.39 2.39 0 01-.98-.798 2.09 2.09 0 01-.336-1.162c0-.672.247-1.209.742-1.61.504-.41 1.292-.616 2.366-.616h1.932v-.112c0-.523-.159-.924-.476-1.204-.308-.28-.77-.42-1.386-.42-.42 0-.836.065-1.246.196a3.04 3.04 0 00-1.022.546l-.686-1.274a4.245 4.245 0 011.414-.686 6.287 6.287 0 011.75-.238zm-.238 6.384c.438 0 .826-.098 1.162-.294.345-.205.588-.495.728-.868v-.868h-1.806c-1.008 0-1.512.331-1.512.994 0 .317.126.57.378.756.252.187.602.28 1.05.28zm10.029-6.384c.728 0 1.377.159 1.946.476a3.413 3.413 0 011.358 1.344c.327.579.49 1.246.49 2.002 0 .756-.163 1.428-.49 2.016a3.413 3.413 0 01-1.358 1.344c-.569.317-1.218.476-1.946.476-1.008 0-1.806-.336-2.394-1.008v3.626h-1.75V18.524h1.666v.98c.29-.355.644-.62 1.064-.798.43-.177.901-.266 1.414-.266zm-.196 6.16c.644 0 1.172-.215 1.582-.644.42-.43.63-.994.63-1.694s-.21-1.265-.63-1.694c-.41-.43-.938-.644-1.582-.644-.42 0-.798.098-1.134.294a2.026 2.026 0 00-.798.812c-.196.355-.294.765-.294 1.232 0 .467.098.877.294 1.232.196.355.462.63.798.826.336.187.714.28 1.134.28zm9.794-6.16c.728 0 1.377.159 1.946.476a3.42 3.42 0 011.358 1.344c.327.579.49 1.246.49 2.002 0 .756-.163 1.428-.49 2.016a3.42 3.42 0 01-1.358 1.344c-.569.317-1.218.476-1.946.476-1.008 0-1.806-.336-2.394-1.008v3.626h-1.75V18.524h1.666v.98c.289-.355.644-.62 1.064-.798a3.67 3.67 0 011.414-.266zm-.196 6.16c.644 0 1.171-.215 1.582-.644.42-.43.63-.994.63-1.694s-.21-1.265-.63-1.694c-.411-.43-.938-.644-1.582-.644-.42 0-.798.098-1.134.294a2.026 2.026 0 00-.798.812c-.196.355-.294.765-.294 1.232 0 .467.098.877.294 1.232.196.355.462.63.798.826.336.187.714.28 1.134.28z" fill="#48C95F"/></svg>