<?xml version="1.0" standalone="no"?>
<!DOCTYPE svg PUBLIC "-//W3C//DTD SVG 20010904//EN"
 "http://www.w3.org/TR/2001/REC-SVG-20010904/DTD/svg10.dtd">
<svg version="1.0" xmlns="http://www.w3.org/2000/svg"
 width="24.000000pt" height="24.000000pt" viewBox="0 0 24.000000 24.000000"
 preserveAspectRatio="xMidYMid meet">

<g transform="translate(0.000000,24.000000) scale(0.100000,-0.100000)"
fill="#F2E2CE" stroke="none">
<path d="M3 224 c-4 -10 9 -31 38 -60 l43 -44 -42 -43 c-45 -46 -51 -64 -26
-74 10 -4 31 9 60 38 l44 43 44 -43 c29 -29 50 -42 60 -38 25 10 19 28 -26 74
l-41 42 41 45 c46 49 51 63 26 73 -10 4 -31 -9 -60 -38 l-44 -43 -43 42 c-46
45 -64 51 -74 26z"/>
</g>
</svg>
