<svg width="22" height="22" viewBox="0 0 22 22" fill="none" xmlns="http://www.w3.org/2000/svg">
<path opacity="0.5" d="M20.6266 14.6731L20.6291 14.6742C20.9381 14.8086 21.1906 15.0465 21.3431 15.347C21.4956 15.6475 21.5386 15.9917 21.4648 16.3205L21.4641 16.3233L20.5266 20.3859L20.5266 20.3859C20.4534 20.7028 20.275 20.9855 20.0204 21.1878C19.7659 21.3902 19.4502 21.5002 19.125 21.5M20.6266 14.6731L0.5 2.87468H1L0.5 2.87479C0.500061 13.1708 8.84524 21.4998 19.125 21.5M20.6266 14.6731L16.2515 12.7981L16.2506 12.7977M20.6266 14.6731L16.2506 12.7977M19.125 21.5L19.1253 21V21.5C19.1252 21.5 19.1251 21.5 19.125 21.5ZM16.2506 12.7977C15.964 12.6756 15.6455 12.6498 15.3431 12.7244C15.0406 12.7989 14.7705 12.9697 14.5735 13.211L12.887 15.2714C10.2289 13.9266 8.06953 11.7672 6.72465 9.10905M16.2506 12.7977L6.72465 9.10905M6.72465 9.10905L8.78437 7.4232C8.78464 7.42298 8.78491 7.42276 8.78518 7.42255L6.72465 9.10905Z" fill="#00A0E3" stroke="#00A0E3"/>
</svg>
