<svg width="81" height="94" viewBox="0 0 81 94" fill="none" xmlns="http://www.w3.org/2000/svg">
    <path d="M69 64H75C77.7614 64 80 66.2386 80 69V91H69V64Z" fill="#F04716"/>
    <path d="M1 69C1 66.2386 3.23858 64 6 64H12V91H1V69Z" fill="#F04716"/>
    <path d="M58.9375 1L54.0208 16.0857L60.1667 17.9714L65.0833 23L70 4.14286L58.9375 1Z" fill="#F04716"/>
    <path d="M20.2188 17.9714L26.3646 16.0857L21.4479 1L11 4.14286L15.9167 21.7429L20.2188 17.9714Z" fill="#F04716"/>
    <path d="M20 71C20 69.3431 21.3431 68 23 68H58C59.6569 68 61 69.3431 61 71V93H20V71Z" fill="#4788FF"/>
    <path d="M47.5984 76.5008H28.0703C27.7141 76.5008 27.3726 76.3593 27.1207 76.1075C26.8689 75.8556 26.7274 75.514 26.7274 75.1579C26.7274 74.8017 26.8689 74.4602 27.1207 74.2083C27.3726 73.9565 27.7141 73.815 28.0703 73.815H52.8613C53.2174 73.815 53.559 73.9565 53.8108 74.2083C54.0627 74.4602 54.2042 74.8017 54.2042 75.1579C54.2042 75.514 54.0627 75.8556 53.8108 76.1075C53.559 76.3593 53.2174 76.5008 52.8613 76.5008H50.2842V78.7125C50.2842 79.0687 50.1427 79.4103 49.8909 79.6621C49.639 79.9139 49.2975 80.0554 48.9413 80.0554C48.5852 80.0554 48.2436 79.9139 47.9918 79.6621C47.7399 79.4103 47.5984 79.0687 47.5984 78.7125V76.5008Z"
          fill="#36383F"/>
    <path fill-rule="evenodd" clip-rule="evenodd"
          d="M56.3137 3.16122L53.354 14.2339C52.6527 14.1568 51.9446 14.1173 51.2324 14.1165H50.2574V9.74942C50.2567 9.02236 49.9675 8.32529 49.4534 7.81118C48.9393 7.29707 48.2423 7.00794 47.5152 7.00722H33.4848C32.7575 7.00758 32.0601 7.29656 31.5457 7.8107C31.0313 8.32485 30.742 9.02213 30.7413 9.74942V14.1165H29.7664C29.0539 14.1174 28.3454 14.1571 27.6438 14.2343L24.6754 3.15724C24.3777 2.06938 23.6632 1.14265 22.687 0.577848C21.7107 0.0130434 20.5512 -0.144355 19.4597 0.139755L13.4758 1.74452C12.39 2.04559 11.4659 2.76109 10.9025 3.73691C10.3391 4.71273 10.1815 5.87079 10.4637 6.96166L14.39 21.589C11.6847 25.0226 10.1899 29.2831 10.1845 33.6986V62.1478H7.85989C5.77598 62.15 3.77802 62.9787 2.30447 64.4523C0.830912 65.9259 0.00213298 67.9239 0 70.0078V89.4583C0.000711043 90.1807 0.288006 90.8734 0.798834 91.3842C1.30966 91.895 2.00229 92.1823 2.72471 92.183H10.4429C10.5934 92.5248 10.807 92.8392 11.0761 93.1083C11.6461 93.6783 12.4187 93.9989 13.2248 94H67.774C68.5805 93.9996 69.3539 93.6793 69.9244 93.1093C70.194 92.8399 70.4079 92.5252 70.5586 92.183H78.2739C78.6323 92.1829 78.9872 92.1121 79.3182 91.9747C79.6492 91.8373 79.9499 91.636 80.203 91.3823C80.4562 91.1286 80.6569 90.8275 80.7937 90.4963C80.9304 90.165 81.0005 89.81 81 89.4516V70.0078C80.9979 67.9239 80.1691 65.9259 78.6955 64.4523C77.222 62.9787 75.224 62.15 73.1401 62.1478H70.817V33.6986C70.8115 29.2818 69.316 25.0203 66.6092 21.5862L70.5335 6.95893C70.8129 5.86773 70.6527 4.71047 70.0873 3.73623C69.522 2.762 68.5967 2.04869 67.5107 1.74984L61.5241 0.138362C60.4325 -0.146139 59.2728 0.0118247 58.2971 0.5779C57.3213 1.14398 56.6086 2.07238 56.3137 3.16122ZM67.9404 6.26465L64.4514 19.2628C62.0413 17.0557 59.1335 15.5004 56.0037 14.7113L58.9095 3.85818C58.9618 3.65731 59.0533 3.46876 59.1788 3.30339C59.3042 3.13802 59.4611 2.9991 59.6405 2.89463C59.8199 2.79016 60.0181 2.7222 60.2238 2.69466C60.4296 2.66712 60.6387 2.68055 60.8392 2.73418L66.8151 4.33625C67.0159 4.3884 67.2045 4.47975 67.3699 4.60505C67.5353 4.73035 67.6743 4.88713 67.7789 5.06636C67.8835 5.24558 67.9516 5.44372 67.9793 5.64937C68.007 5.85503 67.9938 6.06413 67.9404 6.26465ZM53.983 17.0772C53.9059 17.0567 53.831 17.0293 53.7591 16.9956C52.9279 16.8689 52.0835 16.8035 51.2324 16.8023H29.7704C25.2905 16.8076 20.9956 18.5894 17.8275 21.7568C14.6594 24.9242 12.8766 29.2187 12.8702 33.6986V35.9492L18.4445 42.927C19.3936 44.121 20.6006 45.0847 21.975 45.7459C23.3495 46.4071 24.8558 46.7486 26.381 46.7449H33.3223V44.0604C33.3233 43.3585 33.6027 42.6857 34.0992 42.1895C34.5956 41.6933 35.2686 41.4143 35.9704 41.4136H45.0336C45.7355 41.4143 46.4084 41.6933 46.9048 42.1895C47.4013 42.6857 47.6807 43.3585 47.6817 44.0604V46.7449H54.6191C56.1443 46.7486 57.6506 46.4071 59.0251 45.7459C60.3995 45.0848 61.6065 44.1211 62.5556 42.9271L68.1285 35.9506V33.6986C68.1221 29.2194 66.34 24.9255 63.1727 21.7582C60.776 19.3615 57.7343 17.7579 54.4553 17.1167C54.2969 17.1316 54.137 17.1183 53.983 17.0772ZM16.5477 19.2649L13.0609 6.2741C13.0061 6.07349 12.9917 5.86402 13.0184 5.6578C13.0451 5.45158 13.1124 5.2527 13.2164 5.07264C13.3204 4.89258 13.4591 4.73492 13.6244 4.60877C13.7897 4.48261 13.9784 4.39046 14.1795 4.33765L20.154 2.73557C20.3544 2.68088 20.5637 2.66648 20.7697 2.69322C20.9758 2.71995 21.1744 2.78728 21.3543 2.89132C21.5341 2.99535 21.6915 3.13402 21.8174 3.2993C21.9433 3.46458 22.0352 3.65319 22.0877 3.8542L24.9922 14.7127C21.8635 15.5025 18.9569 17.058 16.5477 19.2649ZM47.5716 14.1165H33.4271L33.4284 9.74942L33.4848 9.69301L47.5716 9.74942V14.1165ZM12.8702 40.2532V62.1478H12.8715L12.8702 90.9597L12.8702 90.9621C12.8709 91.0553 12.9082 91.1445 12.9741 91.2104C13.0406 91.2769 13.1307 91.3142 13.2248 91.3142H19.4356V70.2817C19.4367 69.3096 19.8232 68.3776 20.5105 67.6901C21.1977 67.0026 22.1296 66.6157 23.1017 66.6143H57.8287C58.8008 66.6157 59.7326 67.0026 60.4199 67.6901C61.1071 68.3776 61.4937 69.3096 61.4947 70.2817V91.3142H67.774C67.868 91.3142 67.9582 91.2769 68.0247 91.2104C68.0912 91.1439 68.1285 91.0537 68.1285 90.9597V40.2527L64.6545 44.6017C63.4548 46.1119 61.9287 47.3308 60.1907 48.1672C58.4527 49.0035 56.5479 49.4355 54.6191 49.4307H47.6817V51.7968C47.6817 52.4994 47.4028 53.1733 46.9063 53.6703C46.4097 54.1674 45.7361 54.447 45.0336 54.4477H35.9704C35.2686 54.447 34.5956 54.168 34.0992 53.6718C33.6027 53.1756 33.3233 52.5028 33.3223 51.8009V49.4306H26.3796C24.451 49.4356 22.5463 49.0038 20.8083 48.1677C19.0703 47.3316 17.5441 46.1129 16.3443 44.6029L12.8702 40.2532ZM70.817 89.4972V64.8403H73.1388C74.5106 64.8418 75.8258 65.3873 76.7959 66.3574C77.7659 67.3274 78.3115 68.6427 78.3129 70.0145L78.2739 89.4972H70.817ZM7.85855 64.8336C6.48672 64.835 5.17149 65.3806 4.20146 66.3507C3.23143 67.3207 2.68585 68.636 2.68442 70.0078V89.4516L10.1844 89.4852V64.8336H7.85855ZM58.809 91.3141H22.1214V70.2817C22.1218 70.0217 22.2251 69.7724 22.4088 69.5884C22.5926 69.4045 22.8417 69.3008 23.1017 69.3001H57.8287C58.0887 69.3008 58.3378 69.4045 58.5215 69.5884C58.7053 69.7724 58.8086 70.0217 58.809 70.2817V91.3141ZM36.0148 44.1074V51.8049L45.0336 51.7619L44.996 44.0645L36.0148 44.1074Z"
          fill="#36383F"/>
</svg>
