<svg width="90" height="70" viewBox="0 0 90 70" fill="none" xmlns="http://www.w3.org/2000/svg">
<rect x="1" y="31" width="6" height="13" fill="#4788FF"/>
<rect x="6" y="25" width="6" height="25" fill="#F04716"/>
<rect x="83" y="31" width="6" height="13" fill="#4788FF"/>
<rect x="78" y="25" width="6" height="25" fill="#F04716"/>
<rect x="14" y="8" width="62" height="9" fill="#A3A6B2"/>
<path fill-rule="evenodd" clip-rule="evenodd" d="M19.5 0C18.6716 0 18 0.671573 18 1.5V7H13.5C12.6716 7 12 7.67157 12 8.5V9H3.5C1.567 9 0 10.567 0 12.5C0 14.433 1.567 16 3.5 16H12V16.5C12 17.3284 12.6716 18 13.5 18H18V33H14V27.5C14 25.0147 11.9853 23 9.5 23C7.01472 23 5 25.0147 5 27.5V29.126C4.68038 29.0438 4.3453 29 4 29C1.79086 29 0 30.7909 0 33V42C0 44.2091 1.79086 46 4 46C4.3453 46 4.68038 45.9562 5 45.874V47.5C5 49.9853 7.01472 52 9.5 52C11.9853 52 14 49.9853 14 47.5V42H18V60.8787L11.8787 67H1.5C0.671573 67 0 67.6716 0 68.5C0 69.3284 0.671573 70 1.5 70H88.5C89.3284 70 90 69.3284 90 68.5C90 67.6716 89.3284 67 88.5 67H78.1213L72 60.8787V42H76V47.5C76 49.9853 78.0147 52 80.5 52C82.9853 52 85 49.9853 85 47.5V45.874C85.3196 45.9562 85.6547 46 86 46C88.2091 46 90 44.2091 90 42V33C90 30.7909 88.2091 29 86 29C85.6547 29 85.3196 29.0438 85 29.126V27.5C85 25.0147 82.9853 23 80.5 23C78.0147 23 76 25.0147 76 27.5V33H72V18H76.5C77.3284 18 78 17.3284 78 16.5V16H86.5C88.433 16 90 14.433 90 12.5C90 10.567 88.433 9 86.5 9H78V8.5C78 7.67157 77.3284 7 76.5 7H72V1.5C72 0.671573 71.3284 0 70.5 0H63.5C62.6716 0 62 0.671573 62 1.5V7H28V1.5C28 0.671573 27.3284 0 26.5 0H19.5ZM85 33V42C85 42.5523 85.4477 43 86 43C86.5523 43 87 42.5523 87 42V33C87 32.4477 86.5523 32 86 32C85.4477 32 85 32.4477 85 33ZM82 27.5C82 26.6716 81.3284 26 80.5 26C79.6716 26 79 26.6716 79 27.5V47.5C79 48.3284 79.6716 49 80.5 49C81.3284 49 82 48.3284 82 47.5V27.5ZM5 42V33C5 32.4477 4.55229 32 4 32C3.44772 32 3 32.4477 3 33V42C3 42.5523 3.44772 43 4 43C4.55228 43 5 42.5523 5 42ZM8 47.5C8 48.3284 8.67157 49 9.5 49C10.3284 49 11 48.3284 11 47.5V27.5C11 26.6716 10.3284 26 9.5 26C8.67157 26 8 26.6716 8 27.5V47.5ZM25 7H21V3H25V7ZM3.5 12H12V13H3.5C3.22386 13 3 12.7761 3 12.5C3 12.2239 3.22386 12 3.5 12ZM75 10H15V15H75V10ZM86.5 13H78V12H86.5C86.7761 12 87 12.2239 87 12.5C87 12.7761 86.7761 13 86.5 13ZM21 33V18H25V33H21ZM28 33V18H62V33H28ZM65 33V18H69V33H65ZM14 39V36H76V39H14ZM21 67V42H25V67H21ZM28 60.8787V42H62V60.8787L55.8787 67H34.1213L28 60.8787ZM65 67V42H69V67H65ZM73.8787 67H72V65.1213L73.8787 67ZM62 65.1213V67H60.1213L62 65.1213ZM28 65.1213L29.8787 67H28V65.1213ZM18 65.1213V67H16.1213L18 65.1213ZM69 3V7H65V3H69Z" fill="#36383F"/>
</svg>
