<svg width="91" height="91" viewBox="0 0 91 91" fill="none" xmlns="http://www.w3.org/2000/svg">
<path d="M34.3872 38.0909C30.0637 33.5091 32.5858 28.1212 34.3872 26L50 43.1818L42.7941 47L34.3872 38.0909Z" fill="#F04716"/>
<path d="M34 25.9231L45.0323 37L46.2581 22.8462L48.0968 19.1538L53 18.5385L51.1613 13L45.0323 14.8462L34 25.9231Z" fill="#4788FF"/>
<path d="M73.1029 12H48.4408C45.9113 10.1667 54.7644 1 62.3527 1L71.2058 3.44444L75 9.55556L73.1029 12Z" fill="#F04716"/>
<path d="M72.2005 52.3088C69.3308 52.2401 66.5976 52.8062 64.129 53.8752L60.5974 46.9948L61.848 47.5119C62.5687 47.8099 63.3176 47.9509 64.0574 47.9509C66.3308 47.9508 68.5103 46.6173 69.4639 44.4114C69.6105 44.0723 69.722 43.7235 69.8009 43.3694H71.7017C72.4413 43.3694 73.0861 42.7972 73.1083 42.0549C73.1314 41.2869 72.5181 40.6568 71.7584 40.6568H69.7511C69.685 40.4 69.6027 40.1453 69.5014 39.8945C68.8967 38.3972 67.7015 37.1876 66.2225 36.576L56.2035 32.4335L56.4089 23.4064C56.4093 23.3933 56.4087 23.3803 56.4089 23.3673C57.9936 24.1937 59.7909 24.6636 61.6965 24.6636C67.7726 24.6636 72.7609 19.9124 73.1794 13.9155C73.782 13.5889 74.3112 13.1252 74.7156 12.5476C75.5504 11.355 75.7559 9.82482 75.265 8.4546C74.4255 6.11057 73.0586 4.20454 71.2021 2.78952C68.7736 0.938646 65.5754 0 61.6965 0C59.1032 0 56.5433 0.79818 54.0696 2.37544C53.4048 2.79934 53.2365 3.70051 53.7073 4.33448C54.1328 4.90777 54.9241 5.04306 55.5256 4.66057C57.5589 3.36692 59.6298 2.71224 61.6965 2.71224C67.4022 2.71224 71.1037 4.93079 72.6997 9.30651C72.9061 9.8723 72.8444 10.5156 72.4937 11.0044C72.1566 11.4745 71.6335 11.7439 71.0555 11.7439H49.9719C49.6008 11.7439 49.4295 11.4856 49.3729 11.3746C49.3175 11.2657 49.2115 10.9807 49.4241 10.6858C50.0499 9.81733 50.7049 9.00255 51.3806 8.25238C51.8641 7.7155 51.8482 6.89483 51.3394 6.38223C50.795 5.83392 49.902 5.85052 49.3848 6.42453C48.6408 7.25019 47.921 8.14458 47.2358 9.09572C46.4931 10.127 46.3902 11.4729 46.9676 12.6083C47.064 12.7976 47.1772 12.9738 47.303 13.1378C45.341 13.9478 43.5496 15.1422 42.0083 16.6888L33.4946 25.2383C33.3734 25.3601 33.2545 25.4854 33.1402 25.6123C33.1351 25.6178 33.1298 25.6237 33.1248 25.6294C29.6074 29.5617 29.769 35.5684 33.4946 39.3096L34.0765 39.894H25.9137C25.1742 39.894 24.5294 40.4662 24.5071 41.2085C24.484 41.9765 25.0974 42.6066 25.857 42.6066H29.191L32.5372 48.505L28.5531 54.7032C25.597 53.0633 22.1694 52.1796 18.5301 52.3167C8.33843 52.7011 0.146281 61.1318 0.00196071 71.373C-0.150002 82.1688 8.551 91 19.2673 91C29.4375 91 37.7914 83.0457 38.4865 73.007H47.222C47.7077 73.007 48.156 72.745 48.3961 72.3209L60.0182 51.7864L61.7296 55.1206C56.0119 58.6227 52.2433 65.031 52.4756 72.2858C52.8004 82.4253 60.9918 90.6568 71.0886 90.9891C82.0612 91.3504 91.0922 82.4442 90.9993 71.4837C90.9113 61.0929 82.5452 52.5565 72.2005 52.3088ZM60.5041 14.4567H64.8257V15.612C64.8257 16.3609 65.4304 16.9683 66.1763 16.9683C66.9223 16.9683 67.5269 16.3611 67.5269 15.612V14.4567H70.4066C69.7547 18.6955 66.0974 21.9512 61.6967 21.9512C61.292 21.9512 60.8946 21.9212 60.5043 21.868L60.5041 14.4567ZM57.8031 14.4567V21.0381C55.2773 19.7835 53.4313 17.3497 52.9865 14.4567H57.8031ZM43.9181 18.6073C45.7127 16.8066 47.912 15.5768 50.3398 14.9994C50.4768 15.8283 50.7024 16.6274 51.0058 17.3875C50.9014 17.3793 50.7966 17.3734 50.6907 17.3709C47.4618 17.2885 44.7588 19.8653 44.6774 23.1156L44.4024 34.9198L36.0384 26.5207L43.9181 18.6073ZM34.2884 28.5992L45.6179 39.9765C45.8973 40.3332 46.2219 40.6579 46.5839 40.9465L48.3088 42.6787L43.4254 45.4466L35.4048 37.3924C33.0389 35.0164 32.6484 31.385 34.2884 28.5992ZM32.3001 42.607H36.1543C36.3384 42.607 36.5138 42.5696 36.674 42.5025L41.6964 47.5461H35.1023L32.3001 42.607ZM41.0761 50.2589L39.7795 55.791L36.6411 50.2589H41.0761ZM18.1334 70.9154C17.8652 71.3325 17.8456 71.8635 18.082 72.2997C18.3184 72.7359 18.7734 73.007 19.268 73.007H31.3912C30.7172 79.1269 25.5382 83.9031 19.2673 83.9031C12.5401 83.9031 7.06727 78.4071 7.06727 71.6516C7.06727 64.8962 12.5403 59.4001 19.2673 59.4001C21.2212 59.4001 23.0673 59.8663 24.7062 60.6897L18.1334 70.9154ZM21.7473 70.2946L26.9743 62.1624C29.3856 64.141 31.0305 67.0259 31.391 70.2946H21.7473ZM19.2673 88.2876C10.1327 88.2876 2.70104 80.8248 2.70104 71.6515C2.70104 62.4783 10.1327 55.0153 19.2673 55.0153C22.093 55.0153 24.7551 55.7302 27.0852 56.9879L26.1777 58.4001C24.1106 57.3087 21.7604 56.6875 19.2673 56.6875C11.0507 56.6875 4.36624 63.4005 4.36624 71.6515C4.36624 79.9026 11.051 86.6154 19.2673 86.6154C27.0287 86.6154 33.4198 80.6249 34.1046 73.0069H35.7782C35.0889 81.5487 27.9474 88.2876 19.2673 88.2876ZM34.1045 70.2944C33.7246 66.0729 31.592 62.354 28.4445 59.8751L29.3522 58.4627C32.9552 61.2476 35.3898 65.4848 35.7782 70.2944H34.1045ZM38.4861 70.2944C38.0866 64.5314 35.1636 59.4555 30.8208 56.1774L34.0447 51.162L38.8706 59.6686L38.3226 62.0064C37.8913 63.8515 38.43 65.7513 39.7644 67.0887C40.515 67.8401 41.4602 68.35 42.4967 68.5633C42.847 68.6354 43.1975 68.6704 43.5443 68.6704C43.6858 68.6704 43.8265 68.6631 43.9664 68.6519L44.8981 70.2944H38.4861ZM43.0401 65.9064C42.5207 65.7995 42.0476 65.5443 41.672 65.1682C41.0054 64.5001 40.7364 63.5497 40.952 62.627L44.1033 49.1807C44.1036 49.1786 44.1043 49.1768 44.1047 49.1746L44.3747 48.023L50.1278 44.7623C50.3626 45.2935 50.4232 45.893 50.2849 46.4817L49.7862 48.6108C49.7844 48.6186 49.7823 48.6261 49.7807 48.6342L46.2334 63.7725C45.8892 65.2414 44.4571 66.1986 43.0401 65.9064ZM47.2207 68.9083L46.5549 67.7346C47.6752 66.9777 48.531 65.8079 48.8625 64.3936L52.1746 50.2587H57.7759L47.2207 68.9083ZM52.8103 47.5465L52.9141 47.1037C53.188 45.9371 53.0719 44.7484 52.6123 43.6928L56.7404 45.3997L57.8422 47.5465H52.8103ZM58.2495 43.0903C58.2458 43.0887 58.2421 43.0873 58.2383 43.0858L49.0324 39.2793C48.8411 39.2002 48.6574 39.1022 48.4862 38.9882C47.5734 38.3797 47.0451 37.3597 47.0727 36.2569L47.3771 23.1813C47.4203 21.4557 48.8321 20.0814 50.5417 20.0814C50.5686 20.0814 50.5954 20.0816 50.6224 20.0823C52.3678 20.1264 53.7521 21.5882 53.7084 23.341C53.7084 23.3421 53.7084 23.343 53.7084 23.3441L53.4816 33.3021C53.4688 33.8628 53.801 34.3737 54.3177 34.587L65.1938 39.084C65.9202 39.3844 66.5208 39.95 66.8791 40.6568H64.1953C63.4495 40.6568 62.8447 41.264 62.8447 42.0131C62.8447 42.7622 63.4493 43.3694 64.1953 43.3694H66.9674C66.2721 44.9199 64.4473 45.653 62.8765 45.0038L58.2495 43.0903ZM71.7328 88.2876C62.5982 88.2876 55.1665 80.8246 55.1665 71.6515C55.1665 65.7069 58.2881 60.4816 62.9709 57.5393L63.7378 59.0337C59.5898 61.6933 56.8314 66.3537 56.8314 71.6518C56.8314 79.9031 63.5162 86.6157 71.7325 86.6157C73.612 86.6157 75.445 86.2686 77.1806 85.5835C77.8748 85.3096 78.2164 84.5225 77.9438 83.8253C77.671 83.1281 76.8868 82.7849 76.1929 83.0589C74.7732 83.6192 73.2727 83.9029 71.7327 83.9029C65.0054 83.9029 59.5326 78.4069 59.5326 71.6515C59.5326 67.4019 61.699 63.6522 64.9802 61.454L70.5326 72.272C70.7722 72.7391 71.2446 73.007 71.7343 73.007C71.9424 73.007 72.1541 72.9583 72.3519 72.856C73.0148 72.513 73.2752 71.695 72.9334 71.0291L67.3798 60.2087C68.7327 59.6879 70.1995 59.3996 71.7327 59.3996C78.4599 59.3996 83.9327 64.8957 83.9327 71.6511C83.9327 75.1064 82.4684 78.4188 79.915 80.7388C79.3619 81.2412 79.3193 82.099 79.8196 82.6544C80.3203 83.2099 81.1741 83.2527 81.7272 82.7501C84.8454 79.9169 86.6338 75.8713 86.6338 71.6511C86.6338 63.4 79.949 56.6872 71.7327 56.6872C69.7539 56.6872 67.8657 57.0798 66.1365 57.7863L65.3696 56.292C67.3298 55.4699 69.4792 55.015 71.7327 55.015C80.8675 55.015 88.299 62.4779 88.299 71.6511C88.2991 80.8248 80.8675 88.2876 71.7328 88.2876Z" fill="#36383F"/>
</svg>
