<svg width="10" height="7" viewBox="0 0 10 7" fill="none" xmlns="http://www.w3.org/2000/svg">
    <path d="M0 0.5C0 0.223858 0.223858 0 0.5 0H9.5C9.77614 0 10 0.223858 10 0.5C10 0.776142 9.77614 1 9.5 1H0.5C0.223858 1 0 0.776142 0 0.5Z"
          fill="currentColor"/>
    <path d="M0 3.5C0 3.22386 0.223858 3 0.5 3H9.5C9.77614 3 10 3.22386 10 3.5C10 3.77614 9.77614 4 9.5 4H0.5C0.223858 4 0 3.77614 0 3.5Z"
          fill="currentColor"/>
    <path d="M0 6.5C0 6.22386 0.223858 6 0.5 6H9.5C9.77614 6 10 6.22386 10 6.5C10 6.77614 9.77614 7 9.5 7H0.5C0.223858 7 0 6.77614 0 6.5Z"
          fill="currentColor"/>
</svg>
