<svg width="129" height="94" viewBox="0 0 129 94" fill="none" xmlns="http://www.w3.org/2000/svg">
<path d="M121.402 77.614H6.89086C4.12303 77.614 1.87939 75.3703 1.87939 72.6025V63.1423H126.414V72.6025C126.414 75.3703 124.17 77.614 121.402 77.614Z" fill="#7F8085"/>
<path d="M79.7137 6.89092V56.534C79.7137 61.5159 75.675 65.5546 70.6931 65.5546H1.87939V6.89092C1.87939 4.12309 4.12303 1.87946 6.89086 1.87946H74.7022C77.4698 1.87946 79.7137 4.12309 79.7137 6.89092Z" fill="#FFD462"/>
<path fill-rule="evenodd" clip-rule="evenodd" d="M21.0483 27.1581V41.4982C21.0483 44.0608 22.4157 46.4277 24.633 47.7029L36.9788 54.8036C39.1703 56.064 41.8633 56.0686 44.0591 54.8157L56.532 47.6987C58.7611 46.4267 60.1378 44.0532 60.1378 41.4819V27.1744C60.1378 24.6031 58.7611 22.2296 56.532 20.9576L44.0591 13.8406C41.8633 12.5877 39.1703 12.5923 36.9788 13.8528L24.633 20.9534C22.4157 22.2286 21.0483 24.5955 21.0483 27.1581ZM24.1507 41.4982V27.1581C24.1507 25.7097 24.9235 24.3719 26.1768 23.6511L28.9593 22.0507V46.6056L26.1768 45.0052C24.9236 44.2844 24.1507 42.9466 24.1507 41.4982ZM35.164 50.1742L38.5226 52.1059C39.7613 52.8183 41.2834 52.8209 42.5245 52.1127L53.7298 45.719H35.0088C34.1522 45.719 33.4577 45.0228 33.4577 44.1639C33.4577 43.3051 34.1522 42.6089 35.0088 42.6089H56.8757C56.9803 42.2475 57.0354 41.8687 57.0354 41.4819V29.8574H35.0088C34.1522 29.8574 33.4577 29.1611 33.4577 28.3023C33.4577 27.4435 34.1522 26.7472 35.0088 26.7472H57.0129C56.8769 25.4619 56.1328 24.3085 54.9974 23.6606L42.5245 16.5436C41.2834 15.8354 39.7613 15.838 38.5226 16.5505L35.164 18.4822V25.5032C33.6219 25.5032 32.3719 26.7564 32.3719 28.3023C32.3719 29.8482 33.6219 31.1014 35.164 31.1014V41.3648C33.6219 41.3648 32.3719 42.618 32.3719 44.1639C32.3719 45.7098 33.6219 46.963 35.164 46.963V50.1742Z" fill="#1D1E22"/>
<path d="M79.7139 6.70324V61.2129C79.7139 63.6106 77.5106 65.5543 75.0925 65.5543H69.9846V1.87946H74.8492C77.5359 1.87946 79.7139 4.03914 79.7139 6.70324Z" fill="#1D1E22"/>
<path d="M123.458 40.8313L125.83 45.186C126.213 45.8901 126.414 46.6779 126.414 47.478V65.5543H75.092V14.9037C75.092 12.2396 77.27 10.08 79.9567 10.08H87.0103C89.697 10.08 91.8749 12.2396 91.8749 14.9037V33.4757C91.8749 36.1398 94.0529 38.2995 96.7396 38.2995H119.178C120.965 38.2995 122.609 39.2715 123.458 40.8313Z" fill="#F04716"/>
<path d="M42.9849 77.614C42.9849 85.6065 36.4509 92.0856 28.391 92.0856C20.3311 92.0856 13.7971 85.6065 13.7971 77.614C13.7971 69.6214 20.3311 63.1423 28.391 63.1423C36.4509 63.1423 42.9849 69.6214 42.9849 77.614ZM99.901 63.1423C91.8411 63.1423 85.3072 69.6214 85.3072 77.614C85.3072 85.6065 91.8411 92.0856 99.901 92.0856C107.961 92.0856 114.495 85.6065 114.495 77.614C114.495 69.6214 107.961 63.1423 99.901 63.1423Z" fill="#A5A7AC"/>
<path d="M104.767 77.6139C104.767 80.278 102.589 82.4377 99.9023 82.4377C97.2156 82.4377 95.0377 80.278 95.0377 77.6139C95.0377 74.9498 97.2156 72.7901 99.9023 72.7901C102.589 72.7901 104.767 74.9498 104.767 77.6139ZM28.3922 72.7901C25.7056 72.7901 23.5276 74.9498 23.5276 77.6139C23.5276 80.278 25.7056 82.4377 28.3922 82.4377C31.0789 82.4377 33.2568 80.278 33.2568 77.6139C33.2568 74.9498 31.0789 72.7901 28.3922 72.7901ZM108.092 12.6115C107.242 11.0519 105.599 10.0797 103.811 10.0797H87.011V39.0229C87.011 41.687 89.189 43.8467 91.8757 43.8467H125.101L108.092 12.6115Z" fill="white"/>
<path d="M125.101 43.8469H117.804L99.4153 10.08H103.811C105.598 10.08 107.242 11.0522 108.091 12.6117L125.101 43.8469Z" fill="#D8D8D8"/>
<path d="M128.293 47.4781C128.293 46.3673 128.012 45.264 127.48 44.2873L126.755 42.9562C126.754 42.953 126.752 42.9497 126.75 42.9465L109.741 11.713C108.562 9.54659 106.289 8.20051 103.811 8.20051H81.5929V6.70308C81.5929 3.00688 78.5674 0 74.8489 0H6.74392C3.02542 0 0 3.00688 0 6.70308V46.5199C0 47.5578 0.841424 48.3992 1.8793 48.3992C2.91717 48.3992 3.7586 47.5578 3.7586 46.5199V6.70308C3.7586 5.07937 5.09791 3.7586 6.74392 3.7586H74.8487C76.4947 3.7586 77.834 5.07937 77.834 6.70308V8.54254C75.1526 9.42882 73.2127 11.9446 73.2127 14.9036V65.5542C73.2127 66.5921 74.0541 67.4335 75.092 67.4335H87.025C85.1485 69.7671 83.9016 72.6181 83.5406 75.7345H44.7526C44.3915 72.6181 43.1447 69.7668 41.2681 67.4335H68.4035C69.4413 67.4335 70.2827 66.5921 70.2827 65.5542C70.2827 64.5163 69.4413 63.6749 68.4035 63.6749H36.9919C34.4869 62.1464 31.5414 61.2631 28.3914 61.2631C25.2415 61.2631 22.2962 62.1466 19.791 63.6749H3.7586V63.1424V53.3337C3.7586 52.2959 2.91717 51.4544 1.8793 51.4544C0.841424 51.4544 0 52.2959 0 53.3337V63.1424V65.5542V72.79C0 76.4862 3.02542 79.4931 6.74392 79.4931H12.0305C12.9729 87.6267 19.9489 93.9647 28.3914 93.9647C36.8342 93.9647 43.8099 87.6267 44.7526 79.4931H83.5408C84.4832 87.6267 91.4592 93.9647 99.902 93.9647C108.345 93.9647 115.321 87.6267 116.263 79.4931H121.55C125.268 79.4931 128.294 76.4862 128.294 72.79V65.5589C128.294 65.5572 128.294 65.5557 128.294 65.5542V47.4781H128.293ZM76.9715 14.9038C76.9715 13.2801 78.3109 11.9594 79.9569 11.9594H85.1312V19.366C85.1312 20.4039 85.9726 21.2453 87.0105 21.2453C88.0484 21.2453 88.8898 20.4039 88.8898 19.366V11.9594H103.811C104.912 11.9594 105.92 12.554 106.441 13.5107L121.937 41.9677H91.8751C90.2291 41.9677 88.8898 40.647 88.8898 39.0233V26.1192C88.8898 25.0814 88.0484 24.2399 87.0105 24.2399C85.9726 24.2399 85.1312 25.0814 85.1312 26.1192V39.0233C85.1312 42.7195 88.1566 45.7263 91.8751 45.7263H123.984L124.18 46.0849C124.412 46.5119 124.535 46.9935 124.535 47.4783V63.1379C124.535 63.1397 124.535 63.1412 124.535 63.1427V63.6751H108.861C108.753 63.6751 108.649 63.6862 108.547 63.7034C106.032 62.1582 103.071 61.2634 99.902 61.2634C96.752 61.2634 93.8065 62.1469 91.3016 63.6751H76.9718V14.9038H76.9715ZM3.7586 72.7902V67.4337H15.515C13.6384 69.7673 12.3916 72.6183 12.0305 75.7347H6.74392C5.09791 75.7347 3.7586 74.4139 3.7586 72.7902ZM28.3914 90.2063C21.3807 90.2063 15.6769 84.5574 15.6769 77.614C15.6769 70.6706 21.3807 65.0217 28.3914 65.0217C35.4022 65.0217 41.106 70.6706 41.106 77.614C41.106 84.5574 35.4025 90.2063 28.3914 90.2063ZM99.9017 90.2063C92.891 90.2063 87.1872 84.5574 87.1872 77.614C87.1872 70.6706 92.891 65.0217 99.9017 65.0217C106.913 65.0217 112.616 70.6706 112.616 77.614C112.616 84.5574 106.913 90.2063 99.9017 90.2063ZM121.549 75.7347H116.263C115.902 72.6183 114.655 69.7671 112.778 67.4337H124.535V72.7902C124.535 74.4139 123.195 75.7347 121.549 75.7347ZM111.887 51.0828C111.887 50.045 112.728 49.2035 113.766 49.2035H118.631C119.668 49.2035 120.51 50.045 120.51 51.0828C120.51 52.1207 119.668 52.9621 118.631 52.9621H113.766C112.728 52.9621 111.887 52.1207 111.887 51.0828ZM28.3914 70.9109C24.6729 70.9109 21.6475 73.9178 21.6475 77.614C21.6475 81.3102 24.6729 84.3171 28.3914 84.3171C32.1099 84.3171 35.1354 81.3102 35.1354 77.614C35.1354 73.9178 32.1099 70.9109 28.3914 70.9109ZM28.3914 80.5587C26.7454 80.5587 25.4061 79.238 25.4061 77.6143C25.4061 75.9905 26.7454 74.6698 28.3914 74.6698C30.0375 74.6698 31.3768 75.9905 31.3768 77.6143C31.3768 79.238 30.0375 80.5587 28.3914 80.5587ZM99.9017 70.9109C96.1832 70.9109 93.1578 73.9178 93.1578 77.614C93.1578 81.3102 96.1832 84.3171 99.9017 84.3171C103.62 84.3171 106.646 81.3102 106.646 77.614C106.646 73.9178 103.62 70.9109 99.9017 70.9109ZM99.9017 80.5587C98.2557 80.5587 96.9164 79.238 96.9164 77.6143C96.9164 75.9905 98.2557 74.6698 99.9017 74.6698C101.548 74.6698 102.887 75.9905 102.887 77.6143C102.887 79.238 101.548 80.5587 99.9017 80.5587Z" fill="#232528"/>
</svg>
