<svg width="112" height="116" viewBox="0 0 112 116" fill="none" xmlns="http://www.w3.org/2000/svg">
<path d="M95.9935 114.301H6.19653L10.6313 96.1783C12.5974 87.4422 19.9425 81.2793 28.392 81.2793H73.7976C82.2472 81.2793 89.5922 87.4422 91.5583 96.1783L95.9935 114.301Z" fill="#FFD15B"/>
<path d="M95.9927 114.301H90.5076L86.0715 96.178C84.1072 87.4418 76.7621 81.2793 68.3113 81.2793H73.7986C82.2471 81.2793 89.5923 87.4418 91.5589 96.178L95.9927 114.301Z" fill="#FFC344"/>
<path d="M32.6799 81.2793L35.0543 89.9877C36.0763 93.7359 40.5509 95.2795 43.6664 92.9584L51.0949 87.4237V81.2793H32.6799Z" fill="#FEA613"/>
<path d="M51.0949 81.2793V87.4237L43.6659 92.9586C41.3437 94.6872 38.2669 94.2704 36.4272 92.3944L51.0949 81.2793Z" fill="#FE9901"/>
<path d="M69.5097 81.2793L67.1353 89.9877C66.1133 93.7359 61.6387 95.2795 58.5233 92.9584L51.0947 87.4237V81.2793H69.5097Z" fill="#FEA613"/>
<path d="M69.5099 81.2793L67.1355 89.9884C66.1137 93.7357 61.6391 95.2786 58.5239 92.9586L58.4038 92.8702C59.2897 92.1747 59.9784 91.1959 60.3069 89.9884L62.6813 81.2793H69.5099Z" fill="#FE9901"/>
<path d="M23.8815 105.782H5.05825C3.70205 105.782 2.60254 106.882 2.60254 108.238V111.845C2.60254 113.201 3.70205 114.301 5.05825 114.301H23.8815V105.782Z" fill="#4788FF"/>
<path d="M18.1208 105.782H23.8823V114.301H18.1208V105.782Z" fill="#0A4ECB"/>
<path d="M78.3083 105.782H97.1316C98.4878 105.782 99.5873 106.882 99.5873 108.238V111.845C99.5873 113.201 98.4878 114.301 97.1316 114.301H78.3083V105.782Z" fill="#4788FF"/>
<path d="M99.5882 108.238V111.845C99.5882 113.202 98.4871 114.301 97.1323 114.301H92.2703C93.6251 114.301 94.7239 113.202 94.7239 111.845V108.238C94.7239 106.881 93.6251 105.782 92.2703 105.782H97.1323C98.4871 105.782 99.5882 106.881 99.5882 108.238Z" fill="#0A4ECB"/>
<path d="M69.8005 114.301H37.5125L92.6342 59.1505C93.451 58.3337 94.7754 58.3337 95.5922 59.1505L108.787 72.3452C109.604 73.162 109.604 74.4865 108.787 75.3032L69.8005 114.301Z" fill="#E49280"/>
<path d="M108.787 75.3042L69.8013 114.301H63.5549L102.552 75.3042C103.369 74.4863 103.369 73.1609 102.552 72.3453L90.9969 60.7906L92.6349 59.1503C93.4505 58.3347 94.7759 58.3347 95.5915 59.1503L108.787 72.3453C109.604 73.1609 109.604 74.4863 108.787 75.3042Z" fill="#DD7F66"/>
<path d="M60.4969 68.2195H41.6929V81.2797L45.3206 84.9924C48.4879 88.2341 53.7027 88.2338 56.8701 84.992L60.4969 81.2795V68.2195Z" fill="#FFDFCF"/>
<path d="M60.4972 68.2202V81.2793L56.8699 84.9926C54.5409 87.3783 51.1017 88.0082 48.1858 86.8822C49.2325 86.4812 50.2135 85.8491 51.0495 84.9926L54.6768 81.2793V68.2202H60.4972Z" fill="#FFCEBF"/>
<path d="M19.5236 54.4411H26.6866L28.783 43.2089L26.2181 31.9766H19.5236C15.5262 31.9766 12.2856 35.4536 12.2856 39.7429V46.675C12.2856 50.9639 15.5262 54.4411 19.5236 54.4411Z" fill="#F04716"/>
<path d="M28.783 43.2078L26.6873 54.4407H21.0776L20.6086 31.9771H26.2183L28.783 43.2078Z" fill="#C13208"/>
<path d="M82.6661 54.4411H75.5031L73.4067 43.2089L75.9717 31.9766H82.6659C86.6634 31.9766 89.9039 35.4536 89.9039 39.7429V46.675C89.9039 50.9639 86.6634 54.4411 82.6661 54.4411Z" fill="#F04716"/>
<path d="M89.9049 39.7436V46.6742C89.9049 50.963 86.6628 54.4407 82.6663 54.4407H76.9863C80.9829 54.4407 84.225 50.963 84.225 46.6742V39.7436C84.225 35.4525 80.9829 31.9771 76.9863 31.9771H82.6663C86.6628 31.9771 89.9049 35.4525 89.9049 39.7436Z" fill="#C13208"/>
<path d="M59.1102 70.6437H43.0796C33.7642 70.6437 26.2129 63.0922 26.2129 53.7771V18.6964L51.0949 12.3338L75.9769 18.6964V53.7768C75.9771 63.0922 68.4256 70.6437 59.1102 70.6437Z" fill="#FFDFCF"/>
<path d="M75.9759 18.696V53.7769C75.9759 63.0932 68.4245 70.6445 59.1106 70.6445H54.1919C63.5081 70.6445 71.0595 63.0932 71.0595 53.7769V17.4385L75.9759 18.696Z" fill="#FFCEBF"/>
<path d="M51.1009 52.0837H51.0893C49.1148 52.0837 47.5142 50.4831 47.5142 48.5086V42.9707C47.5142 40.9962 49.1148 39.3956 51.0893 39.3956H51.1009C53.0754 39.3956 54.676 40.9962 54.676 42.9707V48.5086C54.676 50.4831 53.0754 52.0837 51.1009 52.0837Z" fill="#FFCEBF"/>
<path d="M59.1712 1.69922H51.0949H43.0186C31.0206 1.69922 21.2949 11.4251 21.2949 23.4207V31.9766H26.8736C29.1433 31.9766 30.8631 30.138 30.8631 27.8706V24.3654C30.8631 22.5221 32.5007 21.1097 34.3223 21.3812L44.8354 22.9413C46.9089 23.2489 49.0019 23.4039 51.0949 23.4039C53.1879 23.4039 55.2809 23.2489 57.3544 22.9413L67.8675 21.3812C69.6891 21.11 71.3267 22.5221 71.3267 24.3654V27.8706C71.3267 30.138 73.0465 31.9766 75.3162 31.9766H80.8949V23.4207C80.8949 11.4251 71.1692 1.69922 59.1712 1.69922Z" fill="#E49280"/>
<path d="M80.8947 23.4198V31.977H75.9783V23.4198C75.9783 11.4255 66.2519 1.69922 54.2532 1.69922H59.1718C71.1683 1.69922 80.8947 11.4255 80.8947 23.4198Z" fill="#DD7F66"/>
<path d="M26.2124 31.9764V40.9779C26.2124 44.3086 28.2762 47.2882 31.3914 48.4606L35.7758 50.1102C38.7819 51.2414 42.1613 49.977 43.6897 47.1502L46.2598 42.3926C46.7177 41.4746 47.4153 40.726 48.2558 40.2051C49.0916 39.6868 50.0726 39.3961 51.0949 39.3961C52.1171 39.3961 53.0981 39.6868 53.9339 40.2051C54.7745 40.726 55.472 41.4746 55.9299 42.3926L58.5 47.1502C60.0284 49.977 63.4078 51.2417 66.4139 50.1102L70.7983 48.4606C73.9135 47.2882 75.9773 44.3086 75.9773 40.9779V31.9764H26.2124Z" fill="#EAF6FF"/>
<path d="M75.9782 31.9771V40.9784C75.9782 44.3088 73.9142 47.2881 70.7989 48.4617L66.415 50.1111C64.8381 50.7047 63.1593 50.639 61.7002 50.0341L65.8803 48.4617C68.9955 47.2881 71.0595 44.3088 71.0595 40.9784V31.9771H75.9782Z" fill="#C8EFFE"/>
<path d="M19.7888 37.804C18.8502 37.804 18.0896 38.5648 18.0896 39.5032V46.9143C18.0896 47.8527 18.8502 48.6135 19.7888 48.6135C20.7275 48.6135 21.488 47.8527 21.488 46.9143V39.5032C21.488 38.5648 20.7275 37.804 19.7888 37.804Z" fill="black"/>
<path d="M82.4009 48.6135C83.3395 48.6135 84.1001 47.8527 84.1001 46.9143V39.5032C84.1001 38.5648 83.3395 37.804 82.4009 37.804C81.4622 37.804 80.7017 38.5648 80.7017 39.5032V46.9143C80.7017 47.8527 81.4622 48.6135 82.4009 48.6135Z" fill="black"/>
<path d="M51.0948 62.7202C52.8808 62.7202 54.6031 61.9694 55.8206 60.6601C56.4598 59.9727 56.4206 58.8976 55.7334 58.2585C55.0458 57.6191 53.9712 57.6586 53.3318 58.3457C52.7466 58.9751 51.9521 59.3218 51.0945 59.3218C50.237 59.3218 49.4424 58.9751 48.8572 58.3457C48.2183 57.6586 47.1431 57.6194 46.4557 58.2585C45.7685 58.8974 45.7293 59.9727 46.3685 60.6601C47.5865 61.9694 49.3088 62.7202 51.0948 62.7202Z" fill="black"/>
<path d="M92.6128 72.8639L74.7128 90.7639C74.0492 91.4275 74.0492 92.5034 74.7128 93.1668C75.0447 93.4985 75.4797 93.6646 75.9145 93.6646C76.3495 93.6646 76.7843 93.4987 77.1162 93.1668L95.0162 75.2668C95.6798 74.6032 95.6798 73.5272 95.0162 72.8639C94.3524 72.2005 93.2766 72.2005 92.6128 72.8639Z" fill="black"/>
<path d="M71.2915 96.5886C70.6276 95.925 69.5519 95.925 68.8883 96.5886L52.3776 113.099C51.714 113.763 51.714 114.839 52.3776 115.502C52.7095 115.834 53.1445 116 53.5793 116C54.014 116 54.449 115.834 54.781 115.502L71.2917 98.9915C71.9548 98.3281 71.9548 97.252 71.2915 96.5886Z" fill="black"/>
<path d="M83.717 92.1015C84.0489 92.4334 84.4837 92.5992 84.9187 92.5992C85.3535 92.5992 85.7884 92.4334 86.1204 92.1015L102.955 75.267C103.619 74.6034 103.619 73.5274 102.955 72.864C102.292 72.2007 101.216 72.2002 100.552 72.864L83.7172 89.6985C83.0536 90.3619 83.0536 91.4379 83.717 92.1015Z" fill="black"/>
<path d="M109.988 71.1436L96.7936 57.9488C95.3155 56.4709 92.9103 56.4709 91.4323 57.9492L69.8125 79.5801H62.1962V72.0815C70.204 70.7355 76.485 64.2479 77.5204 56.1401H82.6661C87.5941 56.1401 91.6031 51.8939 91.6031 46.6746V39.7425C91.6031 34.5231 87.5941 30.2771 82.6661 30.2771H82.5941V23.4204C82.5941 10.5066 72.0865 0 59.1711 0H43.0188C36.4464 0 30.1362 2.78672 25.7058 7.6458C25.0735 8.33931 25.1231 9.41412 25.8164 10.0462C26.5099 10.6786 27.5849 10.6292 28.217 9.93545C32.0049 5.7812 37.4 3.39844 43.0188 3.39844H59.1711C70.2126 3.39844 79.1958 12.3805 79.1958 23.4207V30.2774H75.3164C74.0105 30.2774 73.0261 29.2426 73.0261 27.8706V24.3654C73.0261 22.9918 72.4296 21.6895 71.3892 20.7928C70.3495 19.8965 68.974 19.4982 67.618 19.7003L57.1051 21.2604C53.1314 21.8501 49.0585 21.8501 45.0848 21.2604L34.5728 19.7005C33.2154 19.4975 31.8404 19.8965 30.8012 20.7928C29.761 21.6895 29.1643 22.9918 29.1643 24.3657V27.8708C29.181 29.3614 27.8063 30.501 26.2126 30.2776H22.9943V23.4209C22.9943 21.0488 23.4046 18.7283 24.2139 16.5239C24.5372 15.6428 24.0852 14.6665 23.2041 14.3432C22.3232 14.0195 21.3467 14.4717 21.0234 15.3528C20.0762 17.9336 19.5959 20.6482 19.5959 23.4209V30.2776H19.5236C14.5956 30.2776 10.5866 34.5238 10.5866 39.7429V46.675C10.5866 51.8944 14.5956 56.1406 19.5236 56.1406H24.6693C25.7047 64.2484 31.9857 70.736 39.9937 72.082V79.5803H28.3921C19.114 79.5803 11.1322 86.2449 8.97733 95.7895L6.94755 104.083H5.05825C2.76725 104.083 0.90332 105.947 0.90332 108.238V111.845C0.90332 114.136 2.76725 116 5.05825 116H23.8815C24.8202 116 25.5807 115.239 25.5807 114.301V98.6211C25.5807 97.6826 24.8202 96.9219 23.8815 96.9219C22.9429 96.9219 22.1823 97.6826 22.1823 98.6211V104.083H10.4461L12.2817 96.5822C12.2842 96.572 12.2865 96.5618 12.289 96.5514C14.0874 88.5601 20.7092 82.9785 28.3919 82.9785H31.3816L33.4146 90.4347C34.5932 95.1168 40.5701 97.3899 44.6813 94.3209L51.0948 89.5425L56.1161 93.2837L36.3105 113.1C35.6471 113.763 35.6474 114.839 36.3112 115.502C36.6429 115.834 37.0776 116 37.5124 116C37.9474 116 38.3824 115.834 38.7143 115.502L93.8356 60.3519C93.9888 60.1988 94.238 60.199 94.3907 60.3519L95.7777 61.739L54.479 103.037C53.8154 103.701 53.8154 104.777 54.479 105.44C54.8109 105.772 55.2457 105.938 55.6807 105.938C56.1155 105.938 56.5505 105.772 56.8824 105.44L98.1809 64.1421L107.585 73.5467C107.739 73.6996 107.739 73.9486 107.585 74.1018L68.5991 113.099C67.9355 113.763 67.9357 114.839 68.5993 115.502C69.2631 116.166 70.3391 116.166 71.0022 115.502L76.609 109.894V114.301C76.609 115.239 77.3695 116 78.3082 116H97.1314C99.4224 116 101.286 114.136 101.286 111.845V108.238C101.286 105.947 99.4224 104.083 97.1314 104.083H95.2424L93.2128 95.7899C93.063 95.1273 92.8795 94.4718 92.6704 93.8279L109.988 76.5049C111.466 75.0266 111.466 72.6217 109.988 71.1436ZM22.1823 112.602H5.05825C4.64115 112.602 4.30176 112.262 4.30176 111.845V108.238C4.30176 107.821 4.64115 107.482 5.05825 107.482H22.1823V112.602ZM51.0953 85.7247C49.3646 85.7247 47.7456 85.043 46.536 83.805L43.3922 80.5876V72.343H58.7977V80.5876L55.6546 83.8048C54.445 85.0427 52.826 85.7245 51.0953 85.7247ZM52.9767 42.971V48.5086C52.9767 49.5429 52.135 50.3846 51.1007 50.3846H51.0892C50.0549 50.3846 49.2135 49.5431 49.2135 48.5086V42.971C49.2135 41.9419 50.0465 41.1043 51.0849 41.0959C51.8765 41.0891 52.9092 41.7938 52.9767 42.971ZM54.8295 38.7612C51.6633 36.687 46.5772 37.7938 44.7522 41.6077L42.1948 46.342C41.076 48.4112 38.5745 49.3478 36.3739 48.5199L31.9895 46.8703C29.5537 45.9537 27.9166 43.5911 27.9118 40.9892V33.6758H74.2774V40.9949C74.2704 43.5945 72.6337 45.9544 70.1999 46.8703L65.8151 48.5199C63.6156 49.3476 61.1134 48.4114 59.9949 46.3425L57.437 41.6077C56.8473 40.4369 55.946 39.4529 54.8295 38.7612ZM82.6663 33.6758C85.7202 33.6758 88.2049 36.3975 88.2049 39.7427V46.6748C88.2049 50.0202 85.7202 52.7419 82.6663 52.7419H77.6763L77.677 33.6758H82.6663ZM32.5625 27.8706V24.3654C32.5625 23.8396 32.8491 23.514 33.0201 23.3665C33.1905 23.2195 33.5537 22.9841 34.073 23.0618L44.5859 24.6219C48.8883 25.2601 53.3011 25.2601 57.6035 24.6219L68.1174 23.0616C68.6353 22.9845 68.9992 23.2195 69.17 23.3665C69.3408 23.5138 69.6274 23.8394 69.6274 24.3652V27.8704C69.6274 28.734 69.8048 29.5471 70.1229 30.2771H32.0672C32.3851 29.5474 32.5625 28.7342 32.5625 27.8706ZM13.9848 46.6748V39.7427C13.9848 36.3973 16.4695 33.6758 19.5234 33.6758H24.5129L24.5134 52.7419H19.5236C16.4695 52.7419 13.9848 50.0202 13.9848 46.6748ZM27.9121 53.7769V48.341C28.7524 49.0635 29.7223 49.6482 30.793 50.0511L35.1775 51.7007C38.9597 53.1241 43.2619 51.5151 45.185 47.9576L45.815 46.7913V48.5086C45.815 51.4168 48.181 53.783 51.0892 53.783H51.1007C54.0091 53.783 56.3751 51.417 56.3751 48.5086V46.7915L57.0054 47.9583C58.4563 50.6422 61.2616 52.2168 64.1761 52.2165C65.1243 52.2165 66.084 52.0498 67.0122 51.7007L71.3971 50.0511C72.4676 49.6482 73.4375 49.0635 74.2778 48.3412V53.7769C74.2778 62.1404 67.4737 68.9446 59.1104 68.9446H43.0797C34.7162 68.9446 27.9121 62.1402 27.9121 53.7769ZM42.6513 91.5958C40.8465 93.0408 37.3663 92.2517 36.6936 89.5407L34.9045 82.9785H40.9772L44.1056 86.1801C44.9817 87.0766 45.999 87.7803 47.1073 88.2758L42.6513 91.5958ZM55.0828 88.2762C56.1914 87.7805 57.2091 87.0768 58.0852 86.1798L61.2127 82.9787H66.4157L58.5234 90.8751C58.4556 90.8022 55.0828 88.2762 55.0828 88.2762ZM97.8879 108.238V111.845C97.8879 112.262 97.5485 112.601 97.1314 112.601H80.0074V107.481H97.1314C97.5485 107.482 97.8879 107.821 97.8879 108.238ZM91.7436 104.083H82.4178L89.9098 96.5893L91.7436 104.083Z" fill="black"/>
</svg>
