<svg width="87" height="99" viewBox="0 0 87 99" fill="none" xmlns="http://www.w3.org/2000/svg">
<ellipse cx="68" cy="69.5" rx="3" ry="3.5" fill="#4788FF"/>
<ellipse cx="63.5" cy="51" rx="3.5" ry="3" fill="#4788FF"/>
<circle cx="46.5" cy="54.5" r="3.5" fill="#4788FF"/>
<circle cx="60.5" cy="29.5" r="3.5" fill="#4788FF"/>
<path d="M57.76 12.8333L53.6 15V10.125L51 6.875L54.64 5.79167L57.76 2L59.84 5.79167L64 6.875L61.4 10.125V14.4583L57.76 12.8333Z" fill="#F04716"/>
<rect x="23" y="78" width="19" height="20" fill="#4788FF"/>
<rect x="1" y="85" width="22" height="13" fill="#F04716"/>
<path d="M41.1778 71.272C40.3504 70.9638 39.4467 70.9162 38.5909 71.1358C37.735 71.3554 36.9688 71.8314 36.3974 72.4985L32.9999 76.4171L29.6017 72.4985C29.027 71.836 28.2609 71.3634 27.4063 71.1443C26.5518 70.9252 25.6499 70.9701 24.8219 71.2729C23.9939 71.5758 23.2796 72.122 22.7751 72.8382C22.2706 73.5544 22.0001 74.4062 22 75.279V78.2295C21.6256 77.9267 21.2029 77.6875 20.7493 77.5216C19.9218 77.2135 19.0182 77.1659 18.1623 77.3855C17.3065 77.6051 16.5403 78.0811 15.9688 78.7482L12.5714 82.6667L9.1732 78.7482C8.59851 78.0857 7.83237 77.6131 6.97785 77.3939C6.12332 77.1748 5.22142 77.2197 4.39346 77.5225C3.5655 77.8253 2.85121 78.3715 2.34669 79.0877C1.84217 79.8039 1.57161 80.6556 1.57143 81.5284V83.5004C1.15466 83.5004 0.75496 83.664 0.46026 83.9554C0.165561 84.2467 0 84.6419 0 85.0539V97.4465C0 97.8585 0.165561 98.2536 0.46026 98.545C0.75496 98.8363 1.15466 99 1.57143 99H42.4285C42.8453 99 43.245 98.8363 43.5397 98.545C43.8344 98.2536 43.9999 97.8585 43.9999 97.4465V75.279C44.0054 74.4048 43.7371 73.5504 43.2318 72.833C42.7265 72.1156 42.009 71.5703 41.1778 71.272ZM4.71428 81.5284C4.71429 81.2903 4.78806 81.058 4.92566 80.8626C5.06325 80.6673 5.25807 80.5183 5.4839 80.4357C5.70973 80.3531 5.95574 80.3409 6.18881 80.4006C6.42189 80.4604 6.63085 80.5893 6.78758 80.7701L9.15473 83.5004H4.71428V81.5284ZM11 95.893H3.14285V92.8568H11V95.893ZM11 89.7498H3.14285V86.6074H11V89.7498ZM18.3552 80.7701C18.512 80.5893 18.7209 80.4604 18.954 80.4006C19.1871 80.3409 19.4331 80.3531 19.6589 80.4357C19.8847 80.5183 20.0796 80.6673 20.2172 80.8626C20.3547 81.058 20.4285 81.2903 20.4285 81.5284V83.5004H15.9881L18.3552 80.7701ZM22 95.893H14.1428V92.8568H22V95.893ZM22 89.7498H14.1428V86.6074H22V89.7498ZM25.1428 75.279C25.1428 75.0409 25.2165 74.8085 25.3541 74.6132C25.4917 74.4178 25.6865 74.2687 25.9123 74.1861C26.1382 74.1035 26.3842 74.0912 26.6173 74.151C26.8504 74.2108 27.0594 74.3397 27.2161 74.5204L29.5833 77.2508H25.1428V75.279ZM31.4285 95.893H25.1428V89.6789H31.4285V95.893ZM31.4285 86.5719H25.1428V80.3578H31.4285V86.5719ZM40.8571 95.893H34.5714V89.6789H40.8571V95.893ZM40.8571 86.5719H34.5714V80.3578H40.8571V86.5719ZM40.8571 77.2508H36.4166L38.7838 74.5204C38.9405 74.3397 39.1495 74.2108 39.3826 74.151C39.6157 74.0912 39.8617 74.1035 40.0875 74.1861C40.3134 74.2687 40.5082 74.4178 40.6458 74.6132C40.7834 74.8085 40.8571 75.0409 40.8571 75.279V77.2508Z" fill="#36383F"/>
<path d="M44.6232 23.7135C44.7822 23.8309 44.9621 23.9148 45.1525 23.9603C45.3429 24.0059 45.5402 24.0123 45.733 23.9791C45.9258 23.9459 46.1104 23.8738 46.2762 23.767C46.442 23.6601 46.5859 23.5205 46.6995 23.3563L48.7236 20.431C48.9525 20.099 49.0446 19.6868 48.9797 19.2848C48.9148 18.8828 48.6983 18.5237 48.3776 18.2864C48.1262 18.0993 47.8241 17.9991 47.5143 18C47.2772 18.0001 47.0435 18.0586 46.8326 18.1706C46.6216 18.2825 46.4395 18.4447 46.3013 18.6438L44.2772 21.5689C44.0478 21.9007 43.9554 22.3131 44.0203 22.7153C44.0852 23.1174 44.302 23.4765 44.6232 23.7135Z" fill="#36383F"/>
<path d="M40.6294 28.7204C40.8824 28.9031 41.1868 29.001 41.4988 29C41.7374 29 41.9726 28.943 42.1848 28.8337C42.3969 28.7245 42.58 28.5661 42.7187 28.3718C42.8341 28.2122 42.9165 28.0311 42.9613 27.8393C43.006 27.6474 43.0121 27.4485 42.9791 27.2542C42.9468 27.0598 42.8764 26.8737 42.7722 26.7065C42.668 26.5393 42.5318 26.3942 42.3716 26.2796C42.2113 26.1651 42.0301 26.0832 41.8382 26.0387C41.6464 25.9942 41.4476 25.988 41.2533 26.0204C41.0591 26.0528 40.8731 26.1231 40.706 26.2274C40.5389 26.3318 40.3939 26.468 40.2794 26.6284C40.165 26.7887 40.0831 26.9701 40.0387 27.1621C39.9942 27.3541 39.988 27.553 40.0204 27.7474C40.0524 27.9419 40.1227 28.1281 40.2272 28.2951C40.3318 28.4622 40.4685 28.6067 40.6294 28.7204Z" fill="#36383F"/>
<path d="M31.5451 65.2473H36.28L35.2812 67.826C35.2044 68.0194 35.1658 68.2264 35.1678 68.4351C35.1697 68.6438 35.212 68.85 35.2923 69.0419C35.3727 69.2338 35.4894 69.4074 35.6358 69.5529C35.7822 69.6984 35.9554 69.8128 36.1453 69.8895C36.3352 69.9662 36.5381 70.0036 36.7422 69.9997C36.9464 69.9958 37.1477 69.9506 37.3347 69.8666C37.5216 69.7827 37.6904 69.6617 37.8314 69.5107C37.9723 69.3597 38.0826 69.1817 38.1558 68.9869L39.6026 65.2473H62.4545C62.8644 65.2473 63.2575 65.0808 63.5473 64.7846C63.8372 64.4884 64 64.0866 64 63.6676C64 63.2487 63.8372 62.8469 63.5473 62.5506C63.2575 62.2544 62.8644 62.088 62.4545 62.088H33.983L44.6178 39.0667C44.7292 38.8261 44.7792 38.5606 44.7632 38.2949C44.7473 38.0292 44.6658 37.772 44.5264 37.5471C44.387 37.3223 44.1942 37.1371 43.966 37.0089C43.7378 36.8807 43.4815 36.8135 43.2211 36.8137H37.64L39.9273 33.538C40.0529 33.3697 40.1442 33.1775 40.1957 32.9725C40.2471 32.7676 40.2578 32.5541 40.2271 32.3449C40.1963 32.1356 40.1247 31.9349 40.0166 31.7544C39.9084 31.574 39.7659 31.4176 39.5975 31.2946C39.4291 31.1715 39.2382 31.0843 39.0362 31.0381C38.8341 30.9919 38.6251 30.9877 38.4214 31.0256C38.2178 31.0636 38.0237 31.143 37.8506 31.2591C37.6775 31.3753 37.5291 31.5257 37.414 31.7016L33.3784 37.4752C33.2133 37.7114 33.1151 37.9895 33.0946 38.279C33.074 38.5684 33.1319 38.8581 33.2618 39.1162C33.3917 39.3743 33.5887 39.5908 33.8311 39.7419C34.0736 39.8931 34.352 39.973 34.636 39.973H40.7812L30.1483 62.9923C30.037 63.2331 29.9869 63.4987 30.0029 63.7645C30.0189 64.0302 30.1003 64.2876 30.2397 64.5126C30.3791 64.7376 30.5718 64.9229 30.8 65.0514C31.0282 65.1798 31.2845 65.2472 31.5451 65.2473Z" fill="#36383F"/>
<path d="M86.8918 84.4561L79.2092 64.843H83.9226C84.182 64.843 84.4371 64.7767 84.6643 64.6505C84.8914 64.5242 85.0833 64.3421 85.222 64.1209C85.3608 63.8998 85.4418 63.6469 85.4577 63.3856C85.4736 63.1244 85.4238 62.8633 85.313 62.6267L83.5649 58.8887C83.4392 58.6233 83.2419 58.3992 82.9956 58.242C82.7493 58.0848 82.464 58.0009 82.1726 58C81.9136 58.0002 81.6588 58.0665 81.4318 58.1926C81.2049 58.3188 81.0132 58.5007 80.8745 58.7215C80.7359 58.9424 80.6547 59.195 80.6386 59.4559C80.6224 59.7168 80.6719 59.9777 80.7823 60.2142L81.4938 61.7379H76.9477C76.6967 61.7376 76.4495 61.7993 76.2277 61.9176C76.0058 62.0359 75.816 62.2073 75.6748 62.4167C75.5337 62.6261 75.4455 62.8672 75.418 63.119C75.3905 63.3707 75.4245 63.6254 75.5169 63.8608L83.1976 83.4741H48.5384C48.1304 83.4741 47.7391 83.6377 47.4506 83.9289C47.1621 84.22 47 84.6149 47 85.0267C47 85.4385 47.1621 85.8334 47.4506 86.1245C47.7391 86.4157 48.1304 86.5793 48.5384 86.5793H51.6153V95.8948H50.0769C49.6689 95.8948 49.2776 96.0584 48.989 96.3496C48.7005 96.6407 48.5384 97.0356 48.5384 97.4474C48.5384 97.8592 48.7005 98.2541 48.989 98.5453C49.2776 98.8364 49.6689 99 50.0769 99H65.4613C65.8693 99 66.2606 98.8364 66.5491 98.5453C66.8377 98.2541 66.9997 97.8592 66.9997 97.4474C66.9997 97.0356 66.8377 96.6407 66.5491 96.3496C66.2606 96.0584 65.8693 95.8948 65.4613 95.8948H63.9229V86.5793H85.4611C85.712 86.5796 85.9592 86.5178 86.1811 86.3995C86.403 86.2811 86.5928 86.1097 86.7339 85.9003C86.875 85.6909 86.9632 85.4498 86.9907 85.198C87.0182 84.9463 86.9843 84.6916 86.8918 84.4561ZM60.846 95.8948H54.6922V86.5793H60.846V95.8948Z" fill="#36383F"/>
<path d="M65.8751 20.4736L77.4505 36.8791H49.5455C49.1356 36.8791 48.7425 37.0439 48.4527 37.3373C48.1628 37.6307 48 38.0286 48 38.4435C48 38.8584 48.1628 39.2564 48.4527 39.5497C48.7425 39.8431 49.1356 40.008 49.5455 40.008H70.8907L75.113 49.0583C75.1955 49.2506 75.3153 49.4242 75.4653 49.5688C75.6153 49.7133 75.7924 49.8258 75.9863 49.8997C76.1801 49.9735 76.3866 50.0072 76.5935 49.9987C76.8004 49.9902 77.0036 49.9397 77.1908 49.8501C77.3781 49.7606 77.5456 49.6339 77.6836 49.4775C77.8215 49.3211 77.927 49.1383 77.9937 48.9398C78.0605 48.7414 78.0871 48.5314 78.0722 48.3223C78.0572 48.1132 78.0008 47.9093 77.9064 47.7227L74.3075 40.008H80.4545C80.7385 40.008 81.0169 39.9288 81.2594 39.7791C81.5018 39.6294 81.6988 39.415 81.8287 39.1594C81.9586 38.9038 82.0165 38.6169 81.9959 38.3302C81.9754 38.0435 81.8772 37.7681 81.7121 37.5342L68.3903 18.6551C68.2468 18.4525 68.0577 18.2875 67.8387 18.1735C67.6197 18.0596 67.377 18.0001 67.1308 18C66.8091 17.9991 66.4954 18.1011 66.2344 18.2914C65.9014 18.5329 65.6766 18.8983 65.6093 19.3073C65.5419 19.7164 65.6375 20.1358 65.8751 20.4736Z" fill="#36383F"/>
<path d="M79.4998 53C79.2469 53.0001 78.9981 53.064 78.7766 53.1859C78.5551 53.3078 78.368 53.4837 78.2327 53.6972C78.0974 53.9107 78.0183 54.1549 78.0028 54.4072C77.9873 54.6594 78.0359 54.9115 78.144 55.1399C78.2661 55.3966 78.4584 55.6135 78.6986 55.7657C78.9389 55.9179 79.2173 55.9991 79.5017 56C79.7543 55.9992 80.0027 55.9348 80.2239 55.8128C80.445 55.6907 80.6318 55.5149 80.7669 55.3016C80.9021 55.0883 80.9812 54.8444 80.997 54.5924C81.0129 54.3405 80.9649 54.0886 80.8575 53.8601C80.7354 53.6034 80.5431 53.3865 80.3029 53.2343C80.0626 53.0821 79.7843 53.0009 79.4998 53Z" fill="#36383F"/>
<path d="M51.8277 10.984L51.0495 15.1725C50.997 15.4552 51.0258 15.7468 51.1327 16.0145C51.2396 16.2822 51.4204 16.5155 51.655 16.6883C51.8896 16.8612 52.1686 16.9668 52.461 16.9934C52.7533 17.0199 53.0475 16.9664 53.3105 16.8387L57.5 14.8055L61.6895 16.8387C61.9525 16.9664 62.2467 17.0199 62.539 16.9934C62.8314 16.9668 63.1104 16.8612 63.345 16.6883C63.5796 16.5155 63.7604 16.2822 63.8673 16.0145C63.9742 15.7468 64.003 15.4552 63.9505 15.1725L63.1723 10.984L66.4881 8.00023C66.7094 7.80117 66.8682 7.54459 66.946 7.26046C67.0238 6.97634 67.0174 6.6764 66.9276 6.39569C66.8378 6.11498 66.6682 5.86509 66.4387 5.67521C66.2092 5.48533 65.9293 5.3633 65.6315 5.32338L60.9704 4.69815L58.9028 0.831288C58.7688 0.580565 58.5672 0.370548 58.3199 0.224009C58.0726 0.0774697 57.7891 0 57.5 0C57.2109 0 56.9274 0.0774697 56.6801 0.224009C56.4328 0.370548 56.2312 0.580565 56.0972 0.831288L54.0296 4.69854L49.3685 5.32377C49.0707 5.36369 48.7908 5.48572 48.5613 5.6756C48.3318 5.86548 48.1622 6.11537 48.0724 6.39608C47.9826 6.67679 47.9762 6.97673 48.054 7.26085C48.1318 7.54498 48.2906 7.80156 48.5119 8.00062L51.8277 10.984ZM55.2685 7.66117C55.5186 7.62756 55.7569 7.53588 55.9635 7.39379C56.1701 7.25169 56.3389 7.06329 56.456 6.84432L57.5 4.89267L58.5436 6.84451C58.6607 7.06349 58.8295 7.25188 59.0361 7.39398C59.2427 7.53608 59.481 7.62775 59.7311 7.66136L61.8668 7.94772L60.3864 9.27976C60.1896 9.45682 60.0418 9.67977 59.9568 9.92782C59.8718 10.1759 59.8523 10.441 59.9001 10.6984L60.2708 12.6901L58.2034 11.6867C57.9848 11.5806 57.7442 11.5255 57.5002 11.5255C57.2562 11.5255 57.0156 11.5806 56.797 11.6867L54.7292 12.6901L55.0993 10.6984C55.1471 10.441 55.1276 10.1759 55.0426 9.92782C54.9576 9.67977 54.8098 9.45682 54.613 9.27976L53.1326 7.94772L55.2685 7.66117Z" fill="#36383F"/>
<path d="M46.5 46C46.1022 46 45.7206 46.1712 45.4393 46.4759C45.158 46.7807 45 47.194 45 47.6249V49.5293C43.9992 49.9126 43.1557 50.6669 42.6186 51.6587C42.0814 52.6506 41.8853 53.8162 42.0648 54.9496C42.2443 56.083 42.7879 57.1111 43.5995 57.8523C44.4111 58.5935 45.4385 59 46.5 59C47.5615 59 48.5889 58.5935 49.4005 57.8523C50.2121 57.1111 50.7557 56.083 50.9352 54.9496C51.1147 53.8162 50.9186 52.6506 50.3814 51.6587C49.8443 50.6669 49.0008 49.9126 48 49.5293V47.6249C48 47.194 47.842 46.7807 47.5607 46.4759C47.2794 46.1712 46.8978 46 46.5 46ZM46.5 55.7495C46.2033 55.7495 45.9133 55.6542 45.6666 55.4756C45.42 55.2971 45.2277 55.0433 45.1142 54.7464C45.0007 54.4495 44.9709 54.1228 45.0288 53.8076C45.0867 53.4924 45.2296 53.2028 45.4393 52.9756C45.6491 52.7483 45.9164 52.5936 46.2074 52.5309C46.4983 52.4682 46.7999 52.5004 47.074 52.6233C47.3481 52.7463 47.5824 52.9546 47.7472 53.2218C47.912 53.489 48 53.8032 48 54.1246C47.9996 54.5554 47.8414 54.9684 47.5602 55.273C47.279 55.5776 46.8977 55.749 46.5 55.7495Z" fill="#36383F"/>
<path d="M60.5 22C60.1022 22 59.7206 22.158 59.4393 22.4393C59.158 22.7206 59 23.1021 59 23.4999V25.2578C57.9992 25.6117 57.1557 26.3079 56.6186 27.2234C56.0814 28.139 55.8853 29.215 56.0648 30.2612C56.2443 31.3073 56.7879 32.2564 57.5995 32.9406C58.4111 33.6248 59.4385 34 60.5 34C61.5615 34 62.5889 33.6248 63.4005 32.9406C64.2121 32.2564 64.7557 31.3073 64.9352 30.2612C65.1147 29.215 64.9186 28.139 64.3814 27.2234C63.8443 26.3079 63.0008 25.6117 62 25.2578V23.4999C62 23.1021 61.842 22.7206 61.5607 22.4393C61.2794 22.158 60.8978 22 60.5 22ZM60.5 30.9995C60.2033 30.9995 59.9133 30.9116 59.6666 30.7467C59.42 30.5819 59.2277 30.3477 59.1142 30.0736C59.0007 29.7995 58.9709 29.4979 59.0288 29.207C59.0867 28.916 59.2296 28.6488 59.4393 28.439C59.6491 28.2292 59.9164 28.0864 60.2074 28.0285C60.4983 27.9706 60.7999 28.0003 61.074 28.1139C61.3481 28.2274 61.5824 28.4196 61.7472 28.6663C61.912 28.9129 62 29.2029 62 29.4996C61.9996 29.8973 61.8414 30.2785 61.5602 30.5597C61.279 30.8409 60.8977 30.9991 60.5 30.9995Z" fill="#36383F"/>
<path d="M63.5 43C63.1022 43 62.7206 43.1712 62.4393 43.4759C62.158 43.7807 62 44.194 62 44.6249V46.5293C60.9992 46.9126 60.1557 47.6669 59.6186 48.6587C59.0814 49.6506 58.8853 50.8162 59.0648 51.9496C59.2443 53.083 59.7879 54.1111 60.5995 54.8523C61.4111 55.5935 62.4385 56 63.5 56C64.5615 56 65.5889 55.5935 66.4005 54.8523C67.2121 54.1111 67.7557 53.083 67.9352 51.9496C68.1147 50.8162 67.9186 49.6506 67.3814 48.6587C66.8443 47.6669 66.0008 46.9126 65 46.5293V44.6249C65 44.194 64.842 43.7807 64.5607 43.4759C64.2794 43.1712 63.8978 43 63.5 43ZM63.5 52.7495C63.2033 52.7495 62.9133 52.6542 62.6666 52.4756C62.42 52.2971 62.2277 52.0433 62.1142 51.7464C62.0007 51.4495 61.9709 51.1228 62.0288 50.8076C62.0867 50.4924 62.2296 50.2028 62.4393 49.9756C62.6491 49.7483 62.9164 49.5936 63.2074 49.5309C63.4983 49.4682 63.7999 49.5004 64.074 49.6233C64.3481 49.7463 64.5824 49.9546 64.7472 50.2218C64.912 50.489 65 50.8032 65 51.1246C64.9996 51.5554 64.8414 51.9684 64.5602 52.273C64.279 52.5776 63.8977 52.749 63.5 52.7495Z" fill="#36383F"/>
<path d="M68.5 74C69.5616 73.9996 70.589 73.6241 71.4005 72.94C72.2121 72.2558 72.7556 71.3069 72.9351 70.261C73.1147 69.2151 72.9187 68.1394 72.3817 67.2239C71.8447 66.3085 71.0014 65.6122 70.0006 65.258V63.5C70.0006 63.1022 69.8425 62.7206 69.5611 62.4393C69.2797 62.158 68.898 62 68.5 62C68.102 62 67.7203 62.158 67.4389 62.4393C67.1575 62.7206 66.9994 63.1022 66.9994 63.5V65.258C65.9986 65.6122 65.1553 66.3085 64.6183 67.2239C64.0813 68.1394 63.8853 69.2151 64.0649 70.261C64.2444 71.3069 64.7879 72.2558 65.5995 72.94C66.411 73.6241 67.4384 73.9996 68.5 74ZM68.5 68C68.7968 68 69.0869 68.088 69.3337 68.2528C69.5805 68.4176 69.7728 68.6519 69.8864 68.926C69.9999 69.2001 70.0297 69.5017 69.9718 69.7926C69.9139 70.0836 69.7709 70.3509 69.5611 70.5607C69.3512 70.7704 69.0838 70.9133 68.7928 70.9712C68.5017 71.0291 68.1999 70.9993 67.9257 70.8858C67.6515 70.7723 67.4172 70.58 67.2523 70.3334C67.0874 70.0867 66.9994 69.7967 66.9994 69.5C66.9998 69.1023 67.1581 68.721 67.4394 68.4398C67.7207 68.1586 68.1022 68.0004 68.5 68Z" fill="#36383F"/>
<path d="M49.5 31C50.3284 31 51 30.3284 51 29.5C51 28.6716 50.3284 28 49.5 28C48.6716 28 48 28.6716 48 29.5C48 30.3284 48.6716 31 49.5 31Z" fill="#36383F"/>
<path d="M54.5 23C55.3284 23 56 22.3284 56 21.5C56 20.6716 55.3284 20 54.5 20C53.6716 20 53 20.6716 53 21.5C53 22.3284 53.6716 23 54.5 23Z" fill="#36383F"/>
<path d="M68.5 34C69.3284 34 70 33.3284 70 32.5C70 31.6716 69.3284 31 68.5 31C67.6716 31 67 31.6716 67 32.5C67 33.3284 67.6716 34 68.5 34Z" fill="#36383F"/>
<path d="M55.5 46C56.3284 46 57 45.3284 57 44.5C57 43.6716 56.3284 43 55.5 43C54.6716 43 54 43.6716 54 44.5C54 45.3284 54.6716 46 55.5 46Z" fill="#36383F"/>
<path d="M55.5 59C56.3284 59 57 58.3284 57 57.5C57 56.6716 56.3284 56 55.5 56C54.6716 56 54 56.6716 54 57.5C54 58.3284 54.6716 59 55.5 59Z" fill="#36383F"/>
<path d="M71.5 59C72.3284 59 73 58.3284 73 57.5C73 56.6716 72.3284 56 71.5 56C70.6716 56 70 56.6716 70 57.5C70 58.3284 70.6716 59 71.5 59Z" fill="#36383F"/>
<path d="M59 71C60.1046 71 61 70.3284 61 69.5C61 68.6716 60.1046 68 59 68C57.8954 68 57 68.6716 57 69.5C57 70.3284 57.8954 71 59 71Z" fill="#36383F"/>
<path d="M55.5 77C56.3284 77 57 76.3284 57 75.5C57 74.6716 56.3284 74 55.5 74C54.6716 74 54 74.6716 54 75.5C54 76.3284 54.6716 77 55.5 77Z" fill="#36383F"/>
<path d="M62.5 81C63.3284 81 64 80.1046 64 79C64 77.8954 63.3284 77 62.5 77C61.6716 77 61 77.8954 61 79C61 80.1046 61.6716 81 62.5 81Z" fill="#36383F"/>
<path d="M74.5 81C75.3284 81 76 80.1046 76 79C76 77.8954 75.3284 77 74.5 77C73.6716 77 73 77.8954 73 79C73 80.1046 73.6716 81 74.5 81Z" fill="#36383F"/>
</svg>
