<svg width="8" height="8" viewBox="0 0 8 8" fill="none" xmlns="http://www.w3.org/2000/svg">
    <path d="M0.500001 0.500029C0.776143 0.223887 1.22386 0.223887 1.5 0.500028L7.50003 6.50003C7.77617 6.77617 7.77617 7.22389 7.50003 7.50003C7.22389 7.77617 6.77617 7.77617 6.50003 7.50003L0.500003 1.50003C0.223859 1.22389 0.223858 0.776172 0.500001 0.500029Z"
          fill="currentColor"/>
    <path d="M7.50006 0.500029C7.22392 0.223887 6.7762 0.223887 6.50006 0.500028L0.500034 6.50003C0.223891 6.77617 0.22389 7.22389 0.500032 7.50003C0.776174 7.77617 1.22389 7.77617 1.50003 7.50003L7.50006 1.50003C7.7762 1.22389 7.7762 0.776172 7.50006 0.500029Z"
          fill="currentColor"/>
</svg>
