<svg xmlns="http://www.w3.org/2000/svg" width="32" height="32" version="1.0" viewBox="0 0 24 24">
    <path fill="currentColor" d="M16.6 1.9c3 1.4 4.5 2.9 5.7 5.7.9 2.2 1.6 3.3 1.6 2.6.2-4-6-10.2-10.1-10.2-.7 0 .5.9 2.8 1.9zM1 5.1c-1.6 3-.4 7.1 3.5 11.7 3.3 3.8 8.8 7.2 11.7 7.2.8 0 2.3-.6 3.4-1.4 1.8-1.4 1.8-1.5-1.1-4.6-2.3-2.4-3.5-2.9-5.6-2.5-3.2.7-5.4-1.5-4.4-4.5.5-1.6 0-3-2.1-5.1-3.3-3.4-4-3.6-5.4-.8zm7 4.2c0 .6-1.1 0-2.5-1.3S3 5.2 3 4.7c0-.6 1.1 0 2.5 1.3S8 8.8 8 9.3zM7 13c0 2.1 1.9 4 4 4 .9 0 2.9 1.3 4.5 3 2.3 2.4 2.5 3 1.1 3C11.1 23 1 12.9 1 7.4c0-1.4.6-1.2 3 1.1 1.7 1.6 3 3.6 3 4.5zm11 5.5c1.3 1.4 1.9 2.5 1.3 2.5-.5 0-2-1.1-3.3-2.5-1.3-1.4-1.9-2.5-1.3-2.5.5 0 2 1.1 3.3 2.5zM15 5.3c1.3.7 3 2.4 3.7 3.7.9 1.8 1.3 2 1.3.7 0-.9-.9-2.6-2-3.7s-2.8-2-3.7-2c-1.3 0-1.1.4.7 1.3zM14.5 9c2.1 2.4 2.6 2.5 1.9.6-.3-.8-1.3-1.7-2.2-2.1-1.3-.5-1.3-.2.3 1.5z"/>
</svg>