<svg width="27" height="20" viewBox="0 0 27 20" fill="none" xmlns="http://www.w3.org/2000/svg">
<path d="M12 3.98893C10 -0.507481 1 -0.259282 1 6.99252C1 13.3378 7.5 17 12 19C16.5 17 23 13.3379 23 6.99252C23 -0.259277 14 -0.507472 12 3.98893Z" stroke="#F04716"/>
<path d="M21 6.58579L20.2071 5.79289C19.5404 5.12623 18.4596 5.12623 17.7929 5.79289C17.1262 6.45956 17.1262 7.54044 17.7929 8.20711L20.2929 10.7071C20.6834 11.0976 21.3166 11.0976 21.7071 10.7071L25.2071 7.20711C25.8738 6.54044 25.8738 5.45956 25.2071 4.79289C24.5404 4.12623 23.4596 4.12623 22.7929 4.79289L21 6.58579Z" fill="#F04716" stroke="white" stroke-width="2" stroke-linejoin="round"/>
</svg>
