<svg width="28" height="28" viewBox="0 0 28 28" fill="none" xmlns="http://www.w3.org/2000/svg">
<path fill-rule="evenodd" clip-rule="evenodd" d="M18.9986 27.0813C24.2621 25.0688 28 19.9709 28 14C28 6.26801 21.732 0 14 0C6.26801 0 0 6.26801 0 14C0 21.732 6.26801 28 14 28C14.3359 28 14.6691 27.9882 14.9991 27.9649L14.9923 17H13V13.5533H14.9924V11.4781C14.9924 10.0055 15.3283 8.89109 16.0001 8.13455C16.672 7.37818 17.7775 7 19.3166 7H21.9767V10.4465H20.3128C20.008 10.4465 19.7639 10.4727 19.5802 10.5254C19.3967 10.5781 19.2638 10.673 19.1818 10.8106C19.0996 10.9482 19.0467 11.0876 19.0234 11.2294C19 11.3709 18.9885 11.5713 18.9885 11.83V13.5533H22L21.6484 17H18.9885L18.9986 27.0813Z" fill="#4267B2"/>
</svg>
