<svg width="94" height="94" viewBox="0 0 94 94" fill="none" xmlns="http://www.w3.org/2000/svg">
<path d="M35.5 70.5L32.5 74.5L35.5 78.5H39.5V84L44 87L48.298 84V78.5H55.5V70.5H48.298V65L44 62L39.5 65V70.5H35.5Z" fill="#DEDFE7"/>
<path d="M69.5 70.5V78.5H76V83.5L80.5 87L85 83.5V78.5H89L92 74.5L88.5 70.5H85V65.5L80.5 62L76 65.5V70.5H69.5Z" fill="#DEDFE7"/>
<path d="M12 34.5L5.49999 37C3.89999 31 9.49999 22.4999 12.5 18.9999C12.5 16.4999 14.5 12.9999 18 12C21.5 4.99997 27.5 3.99997 33.5 4.49995C39 0.499937 46 1.49997 51 4.49995C60.6 2.89995 65.3333 8.83329 66.5 12C70.9 13.2 72 16.1666 72 17.5L73.5 22L78 31L79.5 36.5L72.5 34.5L69.5 28.5H14.5L12 34.5Z" fill="#F04716"/>
<path d="M26.5 70.5V92.5H59.5L55 86.5V78.5H48.5L47.5 84.5L45 86.5H43L39.5 83L39 78.5H36.5L32.5 76.5V73L26.5 70.5Z" fill="#4788FF"/>
<path d="M12.5 18.5L6.5 28.5H77.5L72 18.5H12.5Z" fill="#4788FF"/>
<path d="M25.6146 42.0116C25.6146 40.982 26.4524 40.1444 27.4818 40.1444C28.5114 40.1444 29.3491 40.9821 29.3491 42.0116C29.3491 42.772 29.9656 43.3885 30.7261 43.3885C31.4865 43.3885 32.103 42.772 32.103 42.0116C32.103 39.4635 30.0299 37.3905 27.4818 37.3905C24.9337 37.3905 22.8607 39.4636 22.8607 42.0116C22.8607 42.772 23.4772 43.3885 24.2377 43.3885C24.9981 43.3885 25.6146 42.772 25.6146 42.0116Z" fill="#36383F"/>
<path d="M54.6144 42.0116C54.6144 40.982 55.4521 40.1444 56.4815 40.1444C57.5111 40.1444 58.3489 40.9821 58.3489 42.0116C58.3489 42.772 58.9654 43.3885 59.7258 43.3885C60.4863 43.3885 61.1028 42.772 61.1028 42.0116C61.1028 39.4635 59.0296 37.3905 56.4815 37.3905C53.9334 37.3905 51.8605 39.4636 51.8605 42.0116C51.8605 42.772 52.477 43.3885 53.2374 43.3885C53.9979 43.3885 54.6144 42.772 54.6144 42.0116Z" fill="#36383F"/>
<path d="M10.6714 52.9277C10.7086 52.9277 10.7466 52.9262 10.7841 52.9257C11.7705 56.0804 13.2375 59.0814 15.1578 61.8415C15.592 62.4656 16.45 62.6198 17.0746 62.1854C17.6988 61.751 17.8526 60.8929 17.4184 60.2687C15.463 57.458 14.0214 54.3739 13.1267 51.1268C13.1251 51.1209 13.1245 51.1149 13.1229 51.109C11.1076 43.7811 11.9894 36.0516 15.2722 29.5602H68.9736C74.9279 41.3352 72.4314 55.5792 63.0885 64.6735C62.8223 64.6441 62.4707 64.6204 62.1448 64.6204C62.1432 64.6204 62.1417 64.6204 62.1402 64.6204C58.8464 64.6226 55.861 66.5204 54.4928 69.5393H49.7194V66.8131C49.7194 63.6154 47.1235 60.9829 43.8892 60.9829C40.6743 60.9829 38.059 63.5983 38.059 66.8131V69.5393H36.2137C34.679 69.5393 33.1768 70.2435 32.2009 71.5112C27.9229 70.0148 24.0082 67.5447 20.8076 64.329C20.2709 63.79 19.3992 63.7882 18.8602 64.3246C18.3212 64.8611 18.3191 65.7328 18.8558 66.2718C20.3374 67.7602 21.96 69.0992 23.6902 70.2747C22.6079 71.086 21.2063 72.3288 19.8132 74.1135C17.2398 77.4105 14.1719 83.298 14.1719 92.6225C14.1719 93.3829 14.7885 93.9995 15.5489 93.9995H62.1288H62.1294C62.1345 93.9995 62.1395 93.9998 62.1446 93.9998C66.78 93.9998 70.5512 90.2286 70.5512 85.5931V79.6705H74.5701V82.3967C74.5701 85.6114 77.1855 88.2269 80.4003 88.2269C83.6152 88.2269 86.2305 85.6114 86.2305 82.3967V79.6705H88.0758C90.869 79.6705 93.1413 77.3982 93.1413 74.605C93.1413 71.8118 90.869 69.5394 88.0758 69.5394H86.2305V66.8133C86.2305 63.5985 83.615 60.9831 80.4003 60.9831C77.1855 60.9831 74.5701 63.5985 74.5701 66.8133V69.5394H69.7906C69.0145 67.8451 67.6928 66.4519 66.0502 65.5863C68.5822 62.8965 70.6243 59.8299 72.1316 56.4424C72.6442 55.2905 73.0848 54.117 73.4584 52.9259C73.497 52.9262 73.5359 52.9279 73.5743 52.9279C78.9851 52.9279 83.387 48.5258 83.387 43.1152C83.387 40.8641 82.6232 38.7891 81.3438 37.1318C80.847 33.8633 79.9477 30.673 78.6604 27.6448C78.6604 27.6446 78.6602 27.6444 78.6602 27.6443C77.2577 24.3421 75.4098 21.2449 73.1659 18.4295C73.1085 15.3145 71.3129 11.9173 67.2856 10.7696C65.7818 7.9228 63.3861 5.60548 60.4798 4.20209C57.5748 2.79925 54.2719 2.36359 51.1084 2.95494C48.5157 1.04483 45.3502 0 42.1226 0C42.1219 0 42.1208 0 42.1199 0C38.8995 0.000550781 35.7411 1.04134 33.1478 2.94686C26.6336 1.63031 19.9737 4.83641 16.949 10.7724C12.9296 11.922 11.1355 15.3167 11.0771 18.4291C8.83928 21.2374 6.99178 24.3348 5.58435 27.6444C5.58435 27.6444 5.58435 27.6446 5.58416 27.6448C4.29809 30.673 3.39958 33.8628 2.90296 37.13C1.62276 38.7877 0.858643 40.8632 0.858643 43.115C0.858643 48.5258 5.26049 52.9277 10.6714 52.9277ZM53.7698 72.2933C53.7054 73.0318 53.7551 73.9406 53.7381 76.9166H49.7194V72.2933H53.7698ZM43.8892 85.473C42.1929 85.473 40.8129 84.0929 40.8129 82.3967C40.8129 80.7967 40.8129 68.9103 40.8129 66.8133C40.8129 65.1141 42.1957 63.737 43.889 63.737C45.5951 63.737 46.9653 65.1312 46.9653 66.8133V82.3967C46.9655 84.0931 45.585 85.473 43.8892 85.473ZM38.0588 72.2933V76.9166H36.2135C34.9388 76.9166 33.9018 75.8797 33.9018 74.605C33.9018 73.3211 34.9507 72.2933 36.2135 72.2933H38.0588ZM16.9505 91.2457C17.1708 85.1405 18.8655 79.8695 21.8853 75.9357C22.94 74.5618 24.0021 73.5522 24.8711 72.8474C24.8711 74.5303 24.8712 88.9117 24.8712 91.2457H16.9505ZM27.6251 72.5742C28.7794 73.1417 30.0473 73.6725 31.1757 74.0726C30.8593 77.055 33.2071 79.6705 36.2135 79.6705H38.0588V82.3967C38.0588 85.6114 40.6743 88.2269 43.889 88.2269C47.0703 88.2269 49.7192 85.6419 49.7192 82.3967V79.6705H53.7379V85.5934C53.7379 87.3497 54.2897 89.0042 55.2219 90.3555C55.4374 90.668 55.6724 90.9659 55.927 91.2459H27.6253C27.6253 89.7199 27.6251 74.9114 27.6251 72.5742ZM88.076 72.2933C89.3505 72.2933 90.3876 73.3303 90.3876 74.605C90.3876 75.8797 89.3507 76.9166 88.076 76.9166H86.2307V72.2933H88.076ZM77.324 66.8133C77.324 65.117 78.704 63.737 80.4003 63.737C82.0965 63.737 83.4766 65.117 83.4766 66.8133V82.3967C83.4766 84.0929 82.0965 85.473 80.4003 85.473C78.704 85.473 77.324 84.0929 77.324 82.3967C77.324 80.7967 77.324 68.9103 77.324 66.8133ZM70.5196 72.2933H74.5701V76.9166H70.5514C70.5338 73.803 70.5837 73.0286 70.5196 72.2933ZM67.7971 73.0198C67.7971 73.0222 67.7973 73.0246 67.7973 73.0272V85.5934C67.7973 88.7105 65.2615 91.2463 62.1446 91.2463C62.1408 91.2463 62.1367 91.2461 62.1329 91.2461C62.1325 91.2461 62.1321 91.2461 62.1318 91.2461C59.0221 91.2391 56.492 88.7035 56.492 85.5936C56.492 82.6978 56.492 75.6829 56.492 73.0274C56.492 69.7906 59.2106 67.2216 62.4296 67.3818C65.4008 67.5311 67.7929 69.9911 67.7971 73.0198ZM6.25134 34.3528C6.64919 32.721 7.15829 31.1191 7.77499 29.5602H12.2181C11.7413 30.6102 11.1891 32.0243 10.7889 33.303C9.18903 33.2912 7.65271 33.6459 6.25134 34.3528ZM3.61255 43.115C3.61255 39.4763 6.39106 36.4156 10.0512 36.0857C9.07685 40.5491 9.01223 45.3882 10.0495 50.1466C6.44742 49.8307 3.61255 46.7977 3.61255 43.115ZM77.9948 34.3531C76.6678 33.6825 75.0772 33.2844 73.4568 33.303C73.0877 32.1243 72.5605 30.7349 72.0275 29.5602H76.4701C77.0873 31.1191 77.5966 32.7208 77.9948 34.3531ZM74.1966 50.1466C75.2281 45.4237 75.1774 40.5874 74.1944 36.0859C77.9194 36.4206 80.6331 39.545 80.6331 43.1152C80.6331 46.7975 77.7984 49.8305 74.1966 50.1466ZM13.1181 20.2856H52.3152C53.0756 20.2856 53.6922 19.6691 53.6922 18.9087C53.6922 18.1482 53.0756 17.5317 52.3152 17.5317H13.9173C14.2327 15.7367 15.4182 13.9551 18.0133 13.3399C18.112 13.3164 18.1759 13.3027 18.2086 13.2951C18.979 13.1225 19.2015 12.4111 19.2345 12.3656C21.6925 7.14253 27.5411 4.3677 33.1414 5.76778C33.5602 5.87243 34.0113 5.76852 34.3472 5.49771C36.5414 3.72897 39.3019 2.75446 42.1204 2.75391H42.1226C44.9402 2.75391 47.7004 3.72732 49.905 5.50322C50.2351 5.7698 50.6697 5.86949 51.0829 5.77292C53.8302 5.13218 56.742 5.45494 59.2822 6.68153C61.8224 7.9083 63.8858 9.98805 65.086 12.5251C65.3946 13.1984 66.0429 13.2916 66.0612 13.3004C68.5535 13.8521 69.9591 15.4389 70.3261 17.5315H57.823C57.0626 17.5315 56.4461 18.1481 56.4461 18.9085C56.4461 19.6689 57.0626 20.2855 57.823 20.2855H71.1249C72.7262 22.3147 74.1069 24.4993 75.2468 26.8062C71.4455 26.8062 11.3815 26.8062 8.99846 26.8062C10.1406 24.4949 11.5207 22.3103 13.1181 20.2856Z" fill="#36383F"/>
</svg>
