<svg width="87" height="87" viewBox="0 0 87 87" fill="none" xmlns="http://www.w3.org/2000/svg">
<path d="M44.5 32.5L21 24L25.5 13L48.5 21L44.5 32.5Z" fill="#F04716"/>
<path d="M46.5 45L50.5 40L55 41H71.5L76 40L80.5 42.75L84.5 51V61.5L82.5 65.5V74.5L80.5 81L74 85.5H55.5L47.5 81.5L44.5 75.5V51L46.5 45Z" fill="#4788FF"/>
<path d="M76.5 56H72C69.5 56 67 58.5 67 61.5C67 64.5 69.5 67 72.5 67C74.9 67 76.8333 67 77.5 67C79.2558 67 81.0115 66.5433 82.5 65.5705M82.5 65.5705C84.8265 64.0501 85.5 61.2688 85.5 57V54C85.5 46 75.5 39 75.5 39M82.5 65.5705V74C82.5 80.0751 77.5751 85 71.5 85H55.5C49.4249 85 44.5 80.0751 44.5 74V57.5M50.5 39.5V28H63.5M50.5 39.5V39.5C50.5 40.3284 51.1716 41 52 41H73.5C74.6046 41 75.5 40.1046 75.5 39V39M50.5 39.5C50.5 39.5 49.8482 40.2605 48.9742 41.5M75.5 39V34M75.5 34V28H63.5M75.5 34H64.5M58.5 34H56.5M21 24.5L44.5 32.5M21 24.5C18.6667 24.8333 13.3 27.4 10.5 35L3.69954 53.4584C1.64008 59.0484 4.40483 65.2619 9.93601 67.4744L27.1538 74.3615C31.5648 76.1259 36.5875 74.158 38.6258 69.8667L44.5 57.5M21 24.5L23.625 17.5M44.5 32.5L48.5 21L37 16.75M44.5 32.5L48.9742 41.5M48.9742 41.5C47.1966 44.0211 44.5 48.5239 44.5 52.6403V57.5M23.625 17.5L25.5 12.5L37 16.75M23.625 17.5L35.5 22M37 16.75L50.5 2L63.5 28M11.5 52L10.7395 53.9773C9.7701 56.4977 10.9771 59.3325 13.4659 60.3804L18.5 62.5" stroke="#36383F" stroke-width="3" stroke-linecap="round" stroke-linejoin="round"/>
</svg>
