<svg width="26" height="20" viewBox="0 0 26 20" fill="none" xmlns="http://www.w3.org/2000/svg">
<rect x="0.5" y="11.5" width="5" height="8" rx="2.5" stroke="#F04716"/>
<rect x="8.5" y="0.5" width="5" height="19" rx="2.5" stroke="#F04716"/>
<rect x="16.5" y="6.5" width="5" height="13" rx="2.5" stroke="#F04716"/>
<path d="M22 5.5C22 4.67157 21.3284 4 20.5 4C19.6716 4 19 4.67157 19 5.5V7H17.5C16.6716 7 16 7.67157 16 8.5C16 9.32843 16.6716 10 17.5 10H19V11.5C19 12.3284 19.6716 13 20.5 13C21.3284 13 22 12.3284 22 11.5V10H23.5C24.3284 10 25 9.32843 25 8.5C25 7.67157 24.3284 7 23.5 7H22V5.5Z" fill="#F04716" stroke="white" stroke-width="2"/>
</svg>
