<svg width="27" height="20" viewBox="0 0 27 20" fill="none" xmlns="http://www.w3.org/2000/svg">
    <path d="M12 3.98893C10 -0.507481 1 -0.259282 1 6.99252C1 13.3378 7.5 17 12 19C16.5 17 23 13.3379 23 6.99252C23 -0.259277 14 -0.507472 12 3.98893Z"
          stroke="currentColor"/>
    <path d="M20 4.5V6H18.5C17.6716 6 17 6.67157 17 7.5C17 8.32843 17.6716 9 18.5 9H20V10.5C20 11.3284 20.6716 12 21.5 12C22.3284 12 23 11.3284 23 10.5V9H24.5C25.3284 9 26 8.32843 26 7.5C26 6.67157 25.3284 6 24.5 6H23V4.5C23 3.67157 22.3284 3 21.5 3C20.6716 3 20 3.67157 20 4.5Z"
          fill="currentColor" stroke="white" stroke-width="2"/>
</svg>
