<svg width="26" height="20" viewBox="0 0 26 20" fill="none" xmlns="http://www.w3.org/2000/svg">
<path fill-rule="evenodd" clip-rule="evenodd" d="M0 1.5C0 1.22386 0.223858 1 0.5 1H3.5C3.72943 1 3.92943 1.15615 3.98507 1.37873L4.89039 5H21.5C21.6591 5 21.8086 5.07568 21.9028 5.20383C21.9971 5.33198 22.0247 5.49732 21.9772 5.64914L19.4772 13.6491C19.412 13.8579 19.2187 14 19 14H6.5C6.27057 14 6.07057 13.8439 6.01493 13.6213L3.10961 2H0.5C0.223858 2 0 1.77614 0 1.5ZM5.14039 6L6.89039 13H18.6324L20.8199 6H5.14039Z" fill="#F04716"/>
<path fill-rule="evenodd" clip-rule="evenodd" d="M8.5 19C9.32843 19 10 18.3284 10 17.5C10 16.6716 9.32843 16 8.5 16C7.67157 16 7 16.6716 7 17.5C7 18.3284 7.67157 19 8.5 19ZM8.5 20C9.88071 20 11 18.8807 11 17.5C11 16.1193 9.88071 15 8.5 15C7.11929 15 6 16.1193 6 17.5C6 18.8807 7.11929 20 8.5 20Z" fill="#F04716"/>
<path fill-rule="evenodd" clip-rule="evenodd" d="M16.5 19C17.3284 19 18 18.3284 18 17.5C18 16.6716 17.3284 16 16.5 16C15.6716 16 15 16.6716 15 17.5C15 18.3284 15.6716 19 16.5 19ZM16.5 20C17.8807 20 19 18.8807 19 17.5C19 16.1193 17.8807 15 16.5 15C15.1193 15 14 16.1193 14 17.5C14 18.8807 15.1193 20 16.5 20Z" fill="#F04716"/>
<path d="M22 2.5C22 1.67157 21.3284 1 20.5 1C19.6716 1 19 1.67157 19 2.5V4H17.5C16.6716 4 16 4.67157 16 5.5C16 6.32843 16.6716 7 17.5 7H19V8.5C19 9.32843 19.6716 10 20.5 10C21.3284 10 22 9.32843 22 8.5V7H23.5C24.3284 7 25 6.32843 25 5.5C25 4.67157 24.3284 4 23.5 4H22V2.5Z" fill="#F04716" stroke="white" stroke-width="2"/>
</svg>
