<svg width="94" height="82" viewBox="0 0 94 82" fill="none" xmlns="http://www.w3.org/2000/svg">
<path d="M74.5461 49.2L57.0638 67.2H64.2979L75.7518 56.4L78.766 72L83.5887 75L86 70.2L81.1773 42L73.9433 43.8L74.5461 49.2Z" fill="#4788FF"/>
<path d="M14.8652 61.2C20.1702 61.2 23.5059 65.2 24.5106 67.2H30.539C28.1277 62.4 23.9078 55.2 14.8652 55.2C7.63121 55.2 2.60757 61.2 1 64.2L4.61702 68.4C5.8227 66 9.56028 61.2 14.8652 61.2Z" fill="#4788FF"/>
<path d="M60 9.23529L62.4828 11L78 5.11765L76.1379 1L60.6207 5.70588L60 9.23529Z" fill="#F04716"/>
<path d="M85.7181 59.6293L82.5983 41.9526C82.4674 41.2028 81.9209 40.6288 81.2357 40.42L76.1302 11.4932C75.9108 10.2457 76.1074 8.93882 76.6817 7.8117L77.1122 7.65522C78.5881 7.11826 79.352 5.4817 78.815 4.00657L78.0381 1.87323C77.5005 0.398102 75.8627 -0.365052 74.3864 0.171908L61.5797 4.82953C59.5152 5.58039 58.4467 7.86986 59.1981 9.93294C59.7865 11.5482 61.3184 12.5532 62.9465 12.5532C63.3982 12.5532 63.8573 12.4759 64.3055 12.3128L68.0067 10.9667L71.3619 29.9701C71.4798 30.6375 72.0606 31.1072 72.7163 31.1072C72.7957 31.1072 72.8762 31.1002 72.9569 31.0859C73.7058 30.954 74.2059 30.2404 74.0737 29.4919L70.6345 10.0111L73.42 8.99808C73.2496 9.97789 73.2452 10.9865 73.4181 11.9703L78.4864 40.687L76.1223 41.1034L75.1992 35.8706C75.0673 35.1223 74.3537 34.6223 73.6043 34.7545C72.8554 34.8864 72.3551 35.6001 72.4873 36.3483L73.4475 41.791C72.8767 42.22 72.5585 42.9458 72.6895 43.6954L73.3814 47.6177C73.4721 48.1308 73.3058 48.6582 72.9375 49.027L56.3811 65.5705H42.1135C41.3531 65.5705 40.7365 66.1866 40.7365 66.9464C40.7365 67.7063 41.3531 68.3223 42.1135 68.3223H66.4985C66.5339 68.3223 66.6281 68.3223 66.6861 68.4381C66.7442 68.5538 66.6878 68.6292 66.6667 68.6575L61.652 75.3679C61.2665 75.8838 60.6516 76.192 60.0072 76.192H38.6004C38.5544 76.192 38.5086 76.1852 38.4644 76.1716L27.9677 72.9579C27.7839 72.9012 27.5931 72.8726 27.4004 72.8726H15.2057C13.9457 72.8726 12.8857 71.8899 12.8427 70.6817C12.8205 70.0568 13.0465 69.4659 13.4794 69.0178C13.9125 68.5692 14.4945 68.3223 15.1182 68.3223H35.6881C36.4486 68.3223 37.0651 67.7063 37.0651 66.9464C37.0651 66.1866 36.4486 65.5705 35.6881 65.5705H31.0676C28.8919 58.6398 22.4837 53.8869 15.1174 53.8869C8.83836 53.8869 3.14496 57.3536 0.262551 62.9274C-0.204142 63.8182 -0.0379905 64.8962 0.676003 65.6096L3.85326 68.7846C3.75853 69.3751 3.70749 69.9801 3.70749 70.5969C3.70749 76.8847 8.82588 82 15.1174 82C19.5303 82 23.4546 79.5267 25.3639 75.6244H27.2766L37.6575 78.8025C37.9632 78.8962 38.2804 78.9437 38.6006 78.9437H60.0078C61.5167 78.9437 62.9563 78.2224 63.8592 77.0144L68.8738 70.3037C69.5491 69.4003 69.6541 68.2128 69.1483 67.2047C68.8111 66.5324 68.2463 66.0312 67.5731 65.7711L75.2346 58.1155L75.8173 61.417C72.8951 63.5625 71.1763 66.9279 71.1763 70.5967C71.1763 76.8845 76.2956 81.9998 82.588 81.9998C88.8807 81.9998 94 76.8845 94 70.5967C93.9995 65.4753 90.5698 61.0076 85.7181 59.6293ZM63.3637 9.72711C62.7262 9.95954 62.0181 9.62952 61.7859 8.99184C61.5538 8.35453 61.8839 7.64733 62.5217 7.41527L75.3284 2.75764C75.3374 2.75416 75.3651 2.74407 75.4011 2.76076C75.4367 2.77745 75.447 2.80534 75.4503 2.81433L76.2273 4.94731C76.2453 4.99666 76.2196 5.05132 76.1702 5.0693L63.3637 9.72711ZM2.86204 63.903C5.3187 59.4136 9.9838 56.6387 15.1172 56.6387C20.9742 56.6387 26.1082 60.2332 28.1568 65.5705H25.3643C23.4551 61.6676 19.5305 59.194 15.1174 59.194C10.5375 59.194 6.58182 61.9059 4.76701 65.8063L2.86204 63.903ZM15.1172 79.2484C10.3444 79.2484 6.4612 75.3675 6.4612 70.5971C6.4612 65.8268 10.3444 61.9459 15.1172 61.9459C17.9818 61.9459 20.5745 63.32 22.1714 65.5707H15.1182C13.7405 65.5707 12.4548 66.1165 11.4979 67.1071C10.5414 68.0976 10.0416 69.4019 10.0908 70.7798C10.1876 73.4965 12.4344 75.6245 15.2059 75.6245H22.1711C20.574 77.8747 17.9817 79.2484 15.1172 79.2484ZM73.729 55.7284L63.879 65.5707H60.276L74.8865 50.9716C75.8889 49.9673 76.3402 48.5346 76.0936 47.1396L75.5397 44.0002L80.0242 43.2103L84.6963 69.6824C84.7078 69.7488 84.7245 69.8145 84.746 69.8785C84.8248 70.1141 84.8644 70.3559 84.8644 70.5971C84.8644 71.8513 83.8433 72.8719 82.5879 72.8719C81.4848 72.8719 80.5441 72.0852 80.3508 71.0012C80.33 70.8851 80.2946 70.7732 80.2463 70.6679L77.8381 57.0229C77.6812 56.1287 77.0452 55.4032 76.1783 55.1296C75.311 54.8563 74.3723 55.0856 73.729 55.7284ZM82.5875 79.2484C77.8135 79.2484 73.9296 75.3675 73.9296 70.5971C73.9296 68.301 74.8182 66.1624 76.3731 64.5695L77.5947 71.491C77.6189 71.6288 77.6639 71.7607 77.7271 71.8829C78.3026 74.0733 80.2856 75.6236 82.5875 75.6236C85.3612 75.6236 87.618 73.3688 87.618 70.5971C87.618 70.0955 87.5418 69.5965 87.3918 69.1122L86.2718 62.7663C89.2449 64.1648 91.2456 67.1895 91.2456 70.5971C91.2456 75.3675 87.3617 79.2484 82.5875 79.2484Z" fill="#36383F"/>
</svg>
