<svg width="105" height="105" viewBox="0 0 105 105" fill="none" xmlns="http://www.w3.org/2000/svg">
<path d="M11.0913 41.2009H93.9071V103.432H11.0913V41.2009Z" fill="#A3A6B2"/>
<path d="M11.0916 9.42664H93.9082L103.433 41.2008H1.56689L11.0916 9.42664Z" fill="#FFC62F"/>
<path d="M11.0913 1.56702H93.9071V9.42582H11.0913V1.56702Z" fill="#3EA2E5"/>
<path d="M20.0156 50.1252H84.9836V103.433H20.0156V50.1252Z" fill="#6E7284"/>
<path d="M52.5 63.3948H72.5187V83.4134H52.5V63.3948Z" fill="#FFC62F"/>
<path d="M32.481 83.4135H72.5192V103.432H32.481V83.4135Z" fill="#F04716"/>
<path d="M11.0957 87.334C11.5054 87.3338 11.8982 87.1709 12.1879 86.8812C12.4775 86.5916 12.6404 86.1987 12.6406 85.7891V81.8164C12.6406 81.4067 12.4779 81.0137 12.1881 80.724C11.8984 80.4343 11.5054 80.2715 11.0957 80.2715C10.686 80.2715 10.293 80.4343 10.0033 80.724C9.71355 81.0137 9.55078 81.4067 9.55078 81.8164V85.7891C9.55078 86.1988 9.71355 86.5918 10.0033 86.8815C10.293 87.1712 10.686 87.334 11.0957 87.334Z" fill="black"/>
<path d="M104.912 40.7586L95.4522 9.1989V1.56787C95.4523 1.36496 95.4124 1.16401 95.3348 0.976518C95.2572 0.789027 95.1434 0.61867 94.9999 0.475188C94.8564 0.331705 94.6861 0.217912 94.4986 0.140313C94.3111 0.0627149 94.1101 0.0228334 93.9072 0.0229495H83.1819C82.7722 0.0229495 82.3792 0.185717 82.0895 0.475446C81.7998 0.765175 81.637 1.15813 81.637 1.56787C81.637 1.97761 81.7998 2.37057 82.0895 2.6603C82.3792 2.95003 82.7722 3.11279 83.1819 3.11279H92.3632V7.87998H12.6373V3.11279H76.4046C76.8143 3.11279 77.2073 2.95003 77.497 2.6603C77.7867 2.37057 77.9495 1.97761 77.9495 1.56787C77.9495 1.15813 77.7867 0.765175 77.497 0.475446C77.2073 0.185717 76.8143 0.0229495 76.4046 0.0229495H11.0959C10.893 0.0228334 10.692 0.0627149 10.5045 0.140313C10.317 0.217912 10.1467 0.331705 10.0032 0.475188C9.85971 0.61867 9.74592 0.789027 9.66832 0.976518C9.59072 1.16401 9.55084 1.36496 9.55096 1.56787V9.1989L0.0872045 40.7586C0.0179294 40.9893 0.00359143 41.233 0.0453368 41.4702C0.0870823 41.7074 0.183753 41.9316 0.32762 42.1248C0.471488 42.318 0.65856 42.4749 0.873883 42.5828C1.0892 42.6908 1.3268 42.7469 1.56768 42.7467H9.54742V74.5456C9.54742 74.9553 9.71019 75.3483 9.99992 75.638C10.2897 75.9277 10.6826 76.0905 11.0923 76.0905C11.5021 76.0905 11.895 75.9277 12.1848 75.638C12.4745 75.3483 12.6373 74.9553 12.6373 74.5456V42.7458H92.3623V101.887H86.5287V50.1252C86.5288 49.9223 86.4889 49.7213 86.4113 49.5339C86.3337 49.3464 86.2199 49.176 86.0764 49.0325C85.933 48.889 85.7626 48.7752 85.5751 48.6977C85.3876 48.6201 85.1867 48.5802 84.9838 48.5803H20.0123C19.8094 48.5802 19.6084 48.6201 19.4209 48.6977C19.2334 48.7752 19.0631 48.889 18.9196 49.0325C18.7761 49.176 18.6623 49.3464 18.5847 49.5339C18.5071 49.7213 18.4672 49.9223 18.4674 50.1252V101.887H12.6373V93.4316C12.6373 93.0218 12.4745 92.6289 12.1848 92.3392C11.895 92.0494 11.5021 91.8867 11.0923 91.8867C10.6826 91.8867 10.2897 92.0494 9.99992 92.3392C9.71019 92.6289 9.54742 93.0218 9.54742 93.4316V103.432C9.54731 103.635 9.58719 103.836 9.66479 104.023C9.74239 104.211 9.85618 104.381 9.99966 104.525C10.1431 104.668 10.3135 104.782 10.501 104.86C10.6885 104.937 10.8894 104.977 11.0923 104.977H93.9037C94.1066 104.977 94.3076 104.937 94.4951 104.86C94.6826 104.782 94.8529 104.668 94.9964 104.525C95.1399 104.381 95.2537 104.211 95.3313 104.023C95.4089 103.836 95.4487 103.635 95.4486 103.432V42.7458H103.428C103.669 42.7466 103.907 42.6909 104.123 42.5832C104.339 42.4755 104.526 42.3188 104.67 42.1256C104.815 41.9325 104.912 41.7082 104.954 41.4708C104.996 41.2334 104.982 40.9895 104.912 40.7586ZM21.5607 51.6701H83.4388V101.887H74.0634V63.3965C74.0634 62.9868 73.9006 62.5938 73.6109 62.3041C73.3211 62.0144 72.9282 61.8516 72.5185 61.8516H52.4998C52.09 61.8516 51.6971 62.0144 51.4074 62.3041C51.1176 62.5938 50.9549 62.9868 50.9549 63.3965V81.8685H32.4802C32.0705 81.8685 31.6776 82.0313 31.3878 82.321C31.0981 82.6107 30.9353 83.0037 30.9353 83.4134V101.887H21.5607V51.6701ZM54.0482 71.0796H70.9744V81.8685H54.0447L54.0482 71.0796ZM70.9779 67.9898H54.0447V64.9397H70.9744L70.9779 67.9898ZM50.9549 88.0093H34.0252V84.9583H50.9549V88.0093ZM54.0447 84.9583H70.9735V88.0093H54.0447V84.9583ZM34.0252 91.0992H50.9549V101.887H34.0252V91.0992ZM54.0447 101.887V91.0992H70.9735V101.887H54.0447ZM3.64317 39.6559L12.2435 10.9716H92.756L101.355 39.6559H3.64317Z" fill="black"/>
<path d="M32.6832 31.4131H15.3501C14.9404 31.4131 14.5474 31.5759 14.2577 31.8656C13.9679 32.1553 13.8052 32.5483 13.8052 32.958C13.8052 33.3677 13.9679 33.7607 14.2577 34.0504C14.5474 34.3402 14.9404 34.5029 15.3501 34.5029H32.6832C33.093 34.5029 33.4859 34.3402 33.7757 34.0504C34.0654 33.7607 34.2282 33.3677 34.2282 32.958C34.2282 32.5483 34.0654 32.1553 33.7757 31.8656C33.4859 31.5759 33.093 31.4131 32.6832 31.4131Z" fill="black"/>
<path d="M43.2453 31.4131H39.1843C38.7746 31.4131 38.3816 31.5759 38.0919 31.8656C37.8022 32.1553 37.6394 32.5483 37.6394 32.958C37.6394 33.3677 37.8022 33.7607 38.0919 34.0504C38.3816 34.3402 38.7746 34.5029 39.1843 34.5029H43.2453C43.655 34.5029 44.048 34.3402 44.3377 34.0504C44.6274 33.7607 44.7902 33.3677 44.7902 32.958C44.7902 32.5483 44.6274 32.1553 44.3377 31.8656C44.048 31.5759 43.655 31.4131 43.2453 31.4131Z" fill="black"/>
</svg>
