<svg width="92" height="92" viewBox="0 0 92 92" fill="none" xmlns="http://www.w3.org/2000/svg">
<ellipse cx="71.5" cy="16" rx="8.5" ry="9" fill="#F04716"/>
<path d="M1 82.1224V62L8.69737 65.551L16.3947 62L23.5 65.551L31.1974 62L38.8947 65.551L46.5921 62C47.5789 63.1837 50.2632 65.551 53.1053 65.551C56.6579 65.551 57.25 62 60.8026 62L68.5 65.551L76.1974 62L83.3026 65.551L91 62V79.1633C91 83.3061 88.6316 91 80.3421 91H11.6579C4.55263 91 1.59211 85.0816 1 82.1224Z" fill="#4788FF"/>
<path d="M71.5156 5.21094C72.2599 5.21094 72.8633 4.60755 72.8633 3.86328V1.34766C72.8633 0.60339 72.2599 0 71.5156 0C70.7714 0 70.168 0.60339 70.168 1.34766V3.86328C70.168 4.60755 70.7714 5.21094 71.5156 5.21094Z" fill="#36383F"/>
<path fill-rule="evenodd" clip-rule="evenodd" d="M61.543 16.3516C61.543 10.8526 66.0166 6.37891 71.5156 6.37891C77.0146 6.37891 81.4883 10.8526 81.4883 16.3516C81.4883 21.8505 77.0146 26.3242 71.5156 26.3242C66.0166 26.3242 61.543 21.8505 61.543 16.3516ZM64.2383 16.3516C64.2383 20.3643 67.5029 23.6289 71.5156 23.6289C75.5284 23.6289 78.793 20.3643 78.793 16.3516C78.793 12.3388 75.5284 9.07422 71.5156 9.07422C67.5029 9.07422 64.2383 12.3388 64.2383 16.3516Z" fill="#36383F"/>
<path d="M21.5625 71.2461H16.1719C15.4276 71.2461 14.8242 71.8495 14.8242 72.5938C14.8242 73.338 15.4276 73.9414 16.1719 73.9414H21.5625C22.3068 73.9414 22.9102 73.338 22.9102 72.5938C22.9102 71.8495 22.3068 71.2461 21.5625 71.2461Z" fill="#36383F"/>
<path d="M68.6406 79.1523H75.8281C76.5724 79.1523 77.1758 79.7557 77.1758 80.5C77.1758 81.2443 76.5724 81.8477 75.8281 81.8477H68.6406C67.8964 81.8477 67.293 81.2443 67.293 80.5C67.293 79.7557 67.8964 79.1523 68.6406 79.1523Z" fill="#36383F"/>
<path d="M60.375 73.9414H45.2812C44.537 73.9414 43.9336 74.5448 43.9336 75.2891C43.9336 76.0333 44.537 76.6367 45.2812 76.6367H60.375C61.1193 76.6367 61.7227 76.0333 61.7227 75.2891C61.7227 74.5448 61.1193 73.9414 60.375 73.9414Z" fill="#36383F"/>
<path d="M25.875 77.8945H35.9375C36.6818 77.8945 37.2852 78.4979 37.2852 79.2422C37.2852 79.9865 36.6818 80.5898 35.9375 80.5898H25.875C25.1307 80.5898 24.5273 79.9865 24.5273 79.2422C24.5273 78.4979 25.1307 77.8945 25.875 77.8945Z" fill="#36383F"/>
<path fill-rule="evenodd" clip-rule="evenodd" d="M86.4297 38.9922H90.6523C91.3966 38.9922 92 39.5956 92 40.3398V80.5898C92 86.8814 86.8814 92 80.5898 92H11.4102C5.11858 92 0 86.8814 0 80.5898V40.3398C0 39.5956 0.60339 38.9922 1.34766 38.9922H14.6445V34.4217C14.6445 33.6774 15.2479 33.074 15.9922 33.074C16.7365 33.074 17.3398 33.6774 17.3398 34.4217V60.821C18.5103 61.0077 19.3516 61.4765 20.0352 61.9809V25.5156C20.0352 25.1563 19.8952 24.8188 19.6409 24.5656C19.3843 24.3079 19.0469 24.168 18.6875 24.168C17.9443 24.168 17.3398 24.7724 17.3398 25.5156V28.7453C17.3398 29.4896 16.7365 30.093 15.9922 30.093C15.2479 30.093 14.6445 29.4896 14.6445 28.7453V25.5156C14.6445 23.2862 16.4581 21.4727 18.6875 21.4727C19.7687 21.4727 20.7841 21.8942 21.5469 22.6597C22.3089 23.419 22.7305 24.4344 22.7305 25.5156V26.4141H35.4883V25.5156C35.4883 23.2862 37.3019 21.4727 39.5312 21.4727C40.6124 21.4727 41.6278 21.8942 42.3906 22.6597C43.1527 23.419 43.5742 24.4344 43.5742 25.5156V38.9922H80.1406C80.8849 38.9922 81.4883 39.5956 81.4883 40.3398C81.4883 41.0841 80.8849 41.6875 80.1406 41.6875H43.5742V44.3828H89.3047V41.6875H86.4297C85.6854 41.6875 85.082 41.0841 85.082 40.3398C85.082 39.5956 85.6854 38.9922 86.4297 38.9922ZM39.5312 24.168C38.7881 24.168 38.1836 24.7726 38.1836 25.5156V63.8349C38.3022 63.8442 38.4249 63.8505 38.5564 63.8505C39.6322 63.8505 40.2473 63.5283 40.8789 63.041V25.5156C40.8789 25.1563 40.7389 24.8188 40.4847 24.5656C40.2281 24.3079 39.8906 24.168 39.5312 24.168ZM22.7305 44.3828H35.4883V41.6875H22.7305V44.3828ZM35.4883 51.5703V47.0781H22.7305V51.5703H35.4883ZM35.4883 54.2656H22.7305V56.9609H35.4883V54.2656ZM22.7305 38.9922H35.4883V34.5H22.7305V38.9922ZM35.4883 59.6563H22.7305V63.7474C23.0052 63.8135 23.3127 63.8503 23.6726 63.8503C25.0433 63.8503 25.6661 63.3288 26.5282 62.6069C27.5244 61.7729 28.7649 60.7344 31.1147 60.7344C33.3009 60.7344 34.5261 61.6328 35.4883 62.4297V59.6563ZM35.4883 31.8047V29.1094H22.7305V31.8047H35.4883ZM14.6445 47.0781H2.69531V60.8641C4.20864 61.1665 5.14823 61.9491 5.93364 62.6069C6.7956 63.3287 7.41858 63.8503 8.78905 63.8503C10.1597 63.8503 10.7827 63.3289 11.6446 62.6069C12.3884 61.9841 13.2685 61.2479 14.6445 60.9146V47.0781ZM14.6445 41.6875H2.69531V44.3828H14.6445V41.6875ZM80.5898 89.3047C85.3952 89.3047 89.3047 85.3952 89.3047 80.5898L89.3045 63.6588C88.7453 63.8782 88.3137 64.2395 87.7959 64.6733C86.7996 65.5073 85.5593 66.5456 83.2091 66.5456C80.859 66.5456 79.6192 65.5077 78.6229 64.6737C77.7608 63.9517 77.1372 63.4297 75.7661 63.4297C74.3954 63.4297 73.7726 63.9512 72.9105 64.6731C71.9143 65.5072 70.6738 66.5456 68.324 66.5456C65.9737 66.5456 64.7339 65.5076 63.7377 64.6733C62.8755 63.9513 62.2526 63.4297 60.8817 63.4297C60.4365 63.4297 60.0505 63.4849 59.7017 63.5982C58.9937 63.8286 58.2335 63.4412 58.0033 62.7334C57.7731 62.0254 58.1604 61.2652 58.8681 61.035C59.4904 60.8327 60.1491 60.7344 60.8817 60.7344C63.232 60.7344 64.4719 61.7724 65.4681 62.6067C66.3303 63.3287 66.9534 63.8503 68.3242 63.8503C69.695 63.8503 70.318 63.3287 71.1802 62.6067C72.1763 61.7727 73.4163 60.7344 75.7663 60.7344C78.1168 60.7344 79.3567 61.7724 80.353 62.6067C81.2152 63.3287 81.8383 63.8503 83.2093 63.8503C84.5803 63.8503 85.2033 63.3287 86.0655 62.6068C86.8511 61.949 87.791 61.1663 89.3047 60.8639V47.0781H43.5744V61.1883C44.2313 60.9168 45.0168 60.7346 45.9977 60.7346C48.3478 60.7346 49.5876 61.7726 50.5838 62.6069C51.446 63.3289 52.069 63.8505 53.4396 63.8505C53.6698 63.8505 53.8888 63.8352 54.091 63.8051C54.8264 63.6954 55.513 64.2025 55.6232 64.9385C55.7333 65.6745 55.2259 66.3606 54.4897 66.4707C54.1562 66.5205 53.8029 66.5458 53.4396 66.5458C51.0895 66.5458 49.8496 65.5078 48.8534 64.6735C47.9913 63.9515 47.3683 63.4299 45.9977 63.4299C44.6272 63.4299 44.0044 63.9513 43.1424 64.6733C42.1464 65.5076 40.9068 66.5458 38.5566 66.5458C37.7299 66.5458 37.0429 66.4157 36.4532 66.2129C36.4354 66.2076 36.4181 66.2015 36.4007 66.1954L36.3901 66.1917C35.3372 65.8156 34.604 65.2039 33.9706 64.6735C33.1085 63.9515 32.4855 63.4299 31.1149 63.4299C29.744 63.4299 29.1211 63.9515 28.2589 64.6735C27.2628 65.5075 26.0228 66.5458 23.6728 66.5458C22.4467 66.5458 21.5246 66.2623 20.78 65.8736C20.7665 65.8668 20.7531 65.86 20.7399 65.8529L20.7272 65.846L20.7147 65.8389C20.063 65.4885 19.5477 65.0596 19.0864 64.6733C18.2243 63.9513 17.6013 63.4297 16.2306 63.4297C14.86 63.4297 14.237 63.9513 13.375 64.6733C12.379 65.5074 11.1392 66.5456 8.78905 66.5456C6.43892 66.5456 5.19908 65.5074 4.20307 64.6731L4.20116 64.6715C3.68436 64.2389 3.25343 63.8781 2.69531 63.659V80.5898C2.69531 85.3952 6.60477 89.3047 11.4102 89.3047H80.5898Z" fill="#36383F"/>
<path d="M70.2578 31.1758V28.6602C70.2578 27.9159 70.8612 27.3125 71.6055 27.3125C72.3497 27.3125 72.9531 27.9159 72.9531 28.6602V31.1758C72.9531 31.92 72.3497 32.5234 71.6055 32.5234C70.8612 32.5234 70.2578 31.92 70.2578 31.1758Z" fill="#36383F"/>
<path d="M64.1492 6.19807C64.3988 6.6304 64.8518 6.87208 65.3176 6.87208C65.5461 6.87208 65.7781 6.81386 65.9901 6.69131C66.6347 6.31918 66.8555 5.49496 66.4834 4.85042L65.2256 2.67189C64.8534 2.02735 64.0288 1.80651 63.3847 2.17864C62.7401 2.55078 62.5193 3.375 62.8914 4.01954L64.1492 6.19807Z" fill="#36383F"/>
<path d="M76.6257 27.6281C76.2536 26.9836 76.4744 26.1594 77.119 25.7872C77.7631 25.4149 78.5877 25.6357 78.9599 26.2805L80.2177 28.459C80.5898 29.1035 80.369 29.9278 79.7244 30.2999C79.5124 30.4224 79.2804 30.4807 79.0519 30.4807C78.5861 30.4807 78.1331 30.239 77.8835 29.8067L76.6257 27.6281Z" fill="#36383F"/>
<path d="M57.9259 9.97178L60.1045 11.2296C60.3167 11.3521 60.5485 11.4103 60.777 11.4103C61.2428 11.4103 61.6958 11.1687 61.9454 10.7363C62.3175 10.0918 62.0966 9.26758 61.4521 8.89544L59.2736 7.63764C58.6291 7.26532 57.8048 7.48616 57.4327 8.13088C57.0606 8.77541 57.2814 9.59964 57.9259 9.97178Z" fill="#36383F"/>
<path d="M83.8028 24.808L81.6242 23.5501C80.9795 23.178 80.7587 22.3538 81.131 21.7092C81.5031 21.0645 82.3273 20.8437 82.9719 21.216L85.1504 22.4738C85.795 22.8459 86.0158 23.6702 85.6437 24.3147C85.3941 24.747 84.9411 24.9887 84.4753 24.9887C84.2468 24.9887 84.015 24.9305 83.8028 24.808Z" fill="#36383F"/>
<path d="M56.6016 17.6094H59.1172C59.8615 17.6094 60.4648 17.006 60.4648 16.2617C60.4648 15.5175 59.8615 14.9141 59.1172 14.9141H56.6016C55.8573 14.9141 55.2539 15.5175 55.2539 16.2617C55.2539 17.006 55.8573 17.6094 56.6016 17.6094Z" fill="#36383F"/>
<path d="M83.9141 17.5195C83.1698 17.5195 82.5664 16.9161 82.5664 16.1719C82.5664 15.4276 83.1698 14.8242 83.9141 14.8242H86.4297C87.174 14.8242 87.7773 15.4276 87.7773 16.1719C87.7773 16.9161 87.174 17.5195 86.4297 17.5195H83.9141Z" fill="#36383F"/>
<path d="M60.1045 21.2938L57.9259 22.5516C57.2814 22.9238 57.0606 23.748 57.4327 24.3925C57.6823 24.8249 58.1353 25.0666 58.601 25.0666C58.8296 25.0666 59.0616 25.0082 59.2736 24.8858L61.4521 23.628C62.0966 23.2558 62.3175 22.4316 61.9454 21.7871C61.5732 21.1425 60.7486 20.9219 60.1045 21.2938Z" fill="#36383F"/>
<path d="M82.882 11.1518C82.67 11.2742 82.438 11.3326 82.2095 11.3326C81.7437 11.3326 81.2907 11.0909 81.0412 10.6586C80.669 10.014 80.8899 9.18981 81.5344 8.81768L83.7129 7.55987C84.3571 7.18792 85.1817 7.40839 85.5538 8.05311C85.9259 8.69765 85.7051 9.52188 85.0606 9.89401L82.882 11.1518Z" fill="#36383F"/>
<path d="M64.1492 26.3252L62.8914 28.5037C62.5193 29.1483 62.7401 29.9725 63.3847 30.3446C63.5969 30.4672 63.8287 30.5254 64.0572 30.5254C64.523 30.5254 64.976 30.2837 65.2256 29.8514L66.4834 27.6728C66.8555 27.0283 66.6347 26.2041 65.9901 25.8319C65.3454 25.4594 64.5214 25.6805 64.1492 26.3252Z" fill="#36383F"/>
<path d="M77.6357 6.82728C77.4072 6.82728 77.1754 6.76906 76.9631 6.64651C76.3184 6.27438 76.0976 5.45015 76.4699 4.80561L77.7277 2.62708C78.0999 1.98236 78.9241 1.76153 79.5686 2.13384C80.2132 2.50597 80.434 3.3302 80.0619 3.97474L78.804 6.15327C78.5545 6.5856 78.1015 6.82728 77.6357 6.82728Z" fill="#36383F"/>
</svg>
