<svg width="88" height="88" viewBox="0 0 88 88" fill="none" xmlns="http://www.w3.org/2000/svg">
<path d="M36.8507 26.2569C36.8507 17.6697 30.8806 11.945 27.8955 10.156L25.5075 3L34.4627 5.98165L40.4328 11.945L42.8209 21.4862L41.6269 26.2569H36.8507Z" fill="#F04716"/>
<path d="M67.8955 22.6789L64.3134 29.8349L69.0896 34.0092L73.8657 29.8349L79.8358 27.4495L87 29.8349L83.4179 22.6789L75.0597 19.1009L67.8955 22.6789Z" fill="#F04716"/>
<path d="M10.5821 57.2661L17.1493 63.8257L12.3731 67.4037L8.79104 66.211L7 61.4404L10.5821 57.2661Z" fill="#F04716"/>
<path d="M82.2239 59.055L75.6567 64.422L79.2388 68L83.4179 66.8073L85.209 62.633L82.2239 59.055Z" fill="#F04716"/>
<path d="M53 26H36.6071L36 37.5152L38.4286 42.9697L44.5 46L50.5714 42.9697L53 37.5152V26Z" fill="#4788FF"/>
<path d="M20.5434 16.1361C20.5434 16.9464 19.8864 17.6031 19.0763 17.6031C18.2656 17.6031 17.6086 16.9464 17.6086 16.1361C17.6086 15.3264 18.2656 14.6698 19.0763 14.6698C19.8864 14.6698 20.5434 15.3264 20.5434 16.1361Z" fill="#36383F"/>
<path d="M61.6308 55.7332C62.4415 55.7332 63.0985 55.0766 63.0985 54.2669C63.0985 53.4565 62.4415 52.7999 61.6308 52.7999C60.8207 52.7999 60.1637 53.4565 60.1637 54.2669C60.1637 55.0766 60.8207 55.7332 61.6308 55.7332Z" fill="#36383F"/>
<path d="M68.968 51.3335C68.968 52.1432 68.311 52.7998 67.5009 52.7998C66.6902 52.7998 66.0332 52.1432 66.0332 51.3335C66.0332 50.5232 66.6902 49.8665 67.5009 49.8665C68.311 49.8665 68.968 50.5232 68.968 51.3335Z" fill="#36383F"/>
<path d="M67.5009 58.6664C68.311 58.6664 68.968 58.0098 68.968 57.2001C68.968 56.3897 68.311 55.7331 67.5009 55.7331C66.6902 55.7331 66.0332 56.3897 66.0332 57.2001C66.0332 58.0098 66.6902 58.6664 67.5009 58.6664Z" fill="#36383F"/>
<path fill-rule="evenodd" clip-rule="evenodd" d="M76.7157 18.3926C82.8095 18.9539 87.5916 23.8584 87.9973 29.9613L87.9785 29.9593C87.9791 29.9753 87.9842 29.9901 87.9893 30.0047C87.9947 30.0201 88 30.0354 88 30.0519C88.004 30.6367 87.6601 31.1685 87.1247 31.4041C86.5887 31.6398 85.964 31.535 85.5347 31.1376C83.9212 29.9586 81.9726 29.3268 79.9735 29.3336C76.4617 29.3376 73.2381 31.2779 71.5917 34.3784C75.5388 39.1533 77.7212 45.14 77.7723 51.3336V52.1956L84.5036 58.9236C86.1782 60.6014 86.678 63.1218 85.7705 65.3118C84.863 67.5019 82.7262 68.9306 80.3551 68.9333C78.7993 68.9346 77.3074 68.317 76.2085 67.2172L71.9336 62.9452C71.9014 62.9643 71.8688 62.9832 71.8362 63.002L71.6797 63.0916C71.2169 63.3467 70.7373 63.5709 70.2449 63.7616C69.234 64.1517 68.174 64.3981 67.0959 64.4954C65.4918 64.6364 63.8763 64.429 62.3602 63.8878C59.6868 62.9385 57.4237 61.0942 55.9567 58.6664H46.8615L50.7911 60.3268C51.7503 60.7632 52.2696 61.8132 52.0345 62.8391C51.7994 63.8321 50.9127 64.5337 49.8917 64.533H36.3316L50.6944 69.0421C51.7235 69.3777 52.3556 70.411 52.1856 71.4792C52.015 72.548 51.0927 73.3336 50.0106 73.3336H34.7396L45.8533 79.2001H55.7612C59.2468 79.2042 62.2494 81.6547 62.9513 85.0667H73.3705C74.1806 85.0667 74.8375 85.7233 74.8375 86.533C74.8375 87.3434 74.1806 88 73.3705 88H14.6738C13.8637 88 13.2068 87.3434 13.2068 86.533C13.2068 85.7233 13.8637 85.0667 14.6738 85.0667H22.1575C22.8601 81.6547 25.8627 79.2042 29.3483 79.2001H39.57L30.679 74.5065C30.6353 74.483 30.5924 74.4581 30.55 74.4306C29.7433 73.8928 29.3833 72.8904 29.664 71.9626C29.9455 71.0347 30.8006 70.4003 31.7706 70.4003H45.2286L30.8637 65.8912C29.8347 65.5555 29.2026 64.5216 29.3732 63.4534C29.5438 62.3846 30.4667 61.5991 31.5489 61.5997H46.2744L39.3261 58.6664H31.9895C29.8797 58.6678 27.8007 58.1582 25.9306 57.1807L16.2457 66.8607C14.7685 68.3707 12.5942 68.9709 10.5515 68.4324C8.50806 67.8933 6.91272 66.2988 6.37332 64.2571C5.83393 62.2161 6.43445 60.0421 7.94449 58.5657L19.474 47.0387C19.2214 46.045 19.0877 45.0252 19.0763 44V27.8666H10.272C4.60131 27.8605 0.00671725 23.2676 0 17.5997C0.00671725 11.9326 4.60131 7.3396 10.272 7.33356H19.0763V1.46698C19.0763 0.656619 19.7333 2.59237e-06 20.5434 2.59237e-06C22.2892 -0.00134018 23.9947 0.518984 25.4416 1.49451C35.77 1.76844 44.0054 10.2064 44.0221 20.533C44.0195 22.0154 43.8421 23.4925 43.4942 24.9333H52.8264C56.5606 24.9648 60.2295 25.9162 63.5075 27.7041C65.0236 21.7778 70.6224 17.8307 76.7157 18.3926ZM25.1971 85.0667H59.9125C59.2884 83.3104 57.6266 82.1354 55.7612 82.1334H29.3483C27.4829 82.1354 25.8211 83.3104 25.1971 85.0667ZM51.3594 27.8666H38.1526V37.4003C38.1526 41.0452 41.1089 44 44.7557 44C48.4025 44 51.3594 41.0452 51.3594 37.4003V27.8666ZM40.464 24.9333C40.8771 23.5032 41.0867 22.0222 41.0874 20.533C41.076 12.9443 35.7814 6.38623 28.3622 4.77088C29.0098 6.01563 29.3477 7.39734 29.3483 8.79987C29.3483 9.10065 29.3262 9.38666 29.3 9.68006C30.6495 10.4495 31.8928 11.3921 32.9978 12.4844C36.3101 15.7796 38.166 20.2625 38.1526 24.9333H40.464ZM7.65229 10.765C4.81291 11.8439 2.93544 14.5637 2.93477 17.5997C2.94417 20.6344 4.82164 23.3495 7.65833 24.4304C9.34772 22.5566 10.2794 20.1221 10.272 17.5997C10.2781 15.076 9.34436 12.6395 7.65229 10.765ZM10.0194 60.6396C8.87348 61.785 8.87348 63.6414 10.0194 64.7868C11.1809 65.8966 13.0093 65.8966 14.1707 64.7868L14.9781 63.9805L10.8262 59.8313L10.0194 60.6396ZM82.43 65.142C82.7074 64.8654 82.9258 64.5357 83.0729 64.1725H83.0715C83.3577 63.4642 83.3577 62.6719 83.0715 61.9636C82.9251 61.6011 82.7061 61.2728 82.4287 60.9975L82.1748 60.7437L78.0275 64.8882L78.2814 65.142C79.4274 66.286 81.2841 66.286 82.43 65.142ZM75.2688 53.8385C74.9947 53.5619 74.8395 53.1893 74.8375 52.7999V51.3362C74.8375 39.3607 65.3951 28.8226 54.2942 27.9545V37.4003C54.2942 42.6653 50.0233 46.9333 44.7557 46.9333C39.488 46.9333 35.2178 42.6653 35.2178 37.4003V24.9333C35.2326 21.0406 33.689 17.303 30.9302 14.555C29.7923 13.4237 28.4791 12.4824 27.0416 11.7687C27.0191 11.7575 27.0016 11.7418 26.9839 11.726C26.9688 11.7125 26.9537 11.699 26.9355 11.6882C26.8522 11.6351 26.7749 11.574 26.7037 11.5062C26.6366 11.4438 26.5754 11.3753 26.5204 11.3021C26.468 11.2269 26.423 11.147 26.3853 11.0631C26.345 10.9785 26.3128 10.8899 26.2886 10.7993C26.2691 10.71 26.2577 10.62 26.253 10.5294C26.2483 10.4313 26.2523 10.3333 26.2664 10.236C26.2664 10.2206 26.2653 10.2055 26.2642 10.1905C26.262 10.1609 26.2598 10.1318 26.2664 10.1024C26.3692 9.67603 26.4183 9.23828 26.4136 8.79987C26.4082 6.12708 24.5999 3.79334 22.0111 3.12128V8.79987C22.0111 9.61023 21.3541 10.2668 20.5434 10.2668H10.976C13.9497 14.704 13.9497 20.4961 10.976 24.9333H20.5434C22.4873 24.9353 24.352 24.1639 25.725 22.7889C26.2973 22.2155 27.227 22.2148 27.8007 22.7869C28.3743 23.3589 28.3757 24.2881 27.8027 24.8615C26.2409 26.4352 24.2043 27.4517 22.0064 27.7538V44.0087C22.0064 44.0874 22.0153 44.1653 22.0242 44.243C22.0331 44.3204 22.042 44.3976 22.042 44.4753L23.509 43.0084C23.8778 42.627 24.4232 42.4746 24.9364 42.6089C25.4496 42.7425 25.85 43.1433 25.9843 43.6563C26.1187 44.1685 25.9655 44.7144 25.584 45.0823L12.9011 57.7574L17.047 61.9113L29.7299 49.2361C30.3055 48.6802 31.2204 48.6883 31.7867 49.2536C32.3529 49.8196 32.3603 50.7347 31.8048 51.3101L28.1359 54.9765C29.3591 55.4767 30.6683 55.7338 31.9895 55.7332H54.6932C54.4661 54.908 54.3378 54.0587 54.3103 53.2034C54.1968 50.0183 55.3884 46.9252 57.6105 44.6392C57.9692 44.2397 58.5186 44.0678 59.0419 44.192C59.5652 44.3162 59.9783 44.717 60.1187 45.2354C60.2591 45.7543 60.1046 46.3082 59.7163 46.6795C58.0491 48.3956 57.1557 50.7179 57.2417 53.108C57.2854 54.2944 57.5856 55.4572 58.1223 56.5167C59.2092 58.6631 61.0793 60.3107 63.3463 61.119C64.4674 61.5205 65.6618 61.6749 66.8474 61.5722C67.2544 61.5359 67.6588 61.4715 68.0565 61.3788C68.4454 61.2896 68.8269 61.1727 69.1984 61.0277C69.5665 60.8874 69.9239 60.7216 70.2684 60.5309C70.6117 60.3389 70.9422 60.1247 71.2572 59.8897C71.8396 59.4587 72.6504 59.5171 73.1649 60.028L75.9526 62.8143L80.0998 58.6664L75.2688 53.8385ZM66.1656 29.3336C67.3532 30.1701 68.4716 31.102 69.508 32.1198C71.7959 28.5581 75.7383 26.403 79.9735 26.4003C81.499 26.4117 83.0097 26.7071 84.4271 27.2711C82.8351 23.2871 78.7745 20.8586 74.509 21.3407C70.2443 21.8221 66.8279 25.0944 66.1656 29.3336Z" fill="#36383F"/>
<path d="M8.80426 85.0667H5.86949C5.05939 85.0667 4.40245 85.7233 4.40245 86.533C4.40245 87.3433 5.05939 87.9999 5.86949 87.9999H8.80426C9.61503 87.9999 10.272 87.3433 10.272 86.533C10.272 85.7233 9.61503 85.0667 8.80426 85.0667Z" fill="#36383F"/>
<path d="M83.6417 85.0667H79.2399C78.4292 85.0667 77.7722 85.7233 77.7722 86.533C77.7722 87.3433 78.4292 87.9999 79.2399 87.9999H83.6417C84.4525 87.9999 85.1095 87.3433 85.1095 86.533C85.1095 85.7233 84.4525 85.0667 83.6417 85.0667Z" fill="#36383F"/>
</svg>
