<svg width="96" height="70" viewBox="0 0 96 70" fill="none" xmlns="http://www.w3.org/2000/svg">
<ellipse cx="48" cy="24.5" rx="30" ry="11.5" fill="#4788FF"/>
<path fill-rule="evenodd" clip-rule="evenodd" d="M67.0238 47L93.3214 34.378L95 29.9878L94.4405 17.3659L90.5238 12.9756L67.0238 2H28.9762L4.35714 14.0732L1 19.561V29.439L4.35714 35.4756L28.9762 47H67.0238ZM30.0952 41.5122L6.59524 29.439V18.4634L30.0952 7.4878H65.9048L89.4048 19.561V29.439L65.9048 41.5122H30.0952Z" fill="#A3A6B2"/>
<path d="M28.6295 6.39134L7.20891 16.6092C5.84636 17.2589 5 18.5812 5 20.0594C5 20.078 5.00114 29.6161 5.00152 29.0104C5.0269 30.4573 5.87345 31.7533 7.21137 32.3921L28.6222 42.6052C29.1622 42.8634 29.7648 43 30.3647 43H65.6355C66.2358 43 66.8363 42.8645 67.3706 42.6088C70.0067 41.3514 88.3541 32.5995 88.7918 32.3906C90.1277 31.7527 90.9731 30.4575 90.9985 29.0124L90.9994 28.9671C90.9998 28.9544 91 28.9415 91 28.9288V20.0594C91 18.581 90.1536 17.2589 88.7913 16.6092L67.3782 6.39484C66.8382 6.13665 66.2356 6 65.6355 6H30.3645C29.7644 6.00018 29.1637 6.13572 28.6295 6.39134ZM29.8826 8.87066C30.0283 8.80087 30.1993 8.76256 30.3645 8.76256H32.478L35.6107 12.3711C31.9485 12.9667 28.5767 13.8295 25.6654 14.9343C23.5652 15.7313 21.7764 16.6322 20.3173 17.6143L14.162 16.3696L29.8826 8.87066ZM57.0715 11.9137C54.163 11.5824 51.1148 11.4104 48 11.4104C44.8852 11.4104 41.837 11.5824 38.9285 11.9137C38.9187 11.9015 38.9101 11.8888 38.8997 11.877L36.196 8.76275H59.804L57.1003 11.877C57.0899 11.8888 57.0813 11.9015 57.0715 11.9137ZM7.84255 28.9679C7.84084 15.6687 7.8416 21.6785 7.84141 20.0596C7.84141 19.6369 8.0727 19.2741 8.46046 19.0892L10.0081 18.351L17.6515 19.8966C16.385 21.3343 15.724 22.8855 15.724 24.5002C15.724 26.1217 16.3742 27.6705 17.6384 29.1064L10.0077 30.6492L8.46349 29.9126C8.08767 29.7332 7.84956 29.3693 7.84255 28.9679ZM29.8748 40.1262L14.1617 32.631L20.3084 31.3881C21.1574 31.9573 22.1206 32.5004 23.1956 33.0142C23.8995 33.3507 24.7512 33.0687 25.0975 32.384C25.4438 31.6995 25.1536 30.8717 24.4494 30.5352C21.9693 29.3498 18.5655 27.1999 18.5655 24.5002C18.5655 21.205 23.5434 18.7049 26.6987 17.5075C32.3658 15.3569 39.9308 14.1728 48.0002 14.1728C64.0589 14.1728 77.4347 19.143 77.4347 24.5002C77.4347 29.8575 64.0977 34.8276 48.0002 34.8276C41.2647 34.8276 34.9019 34.0085 29.5992 32.4584C28.8474 32.2385 28.0554 32.6529 27.8296 33.3834C27.6038 34.114 28.0298 34.8841 28.7811 35.1038C30.9123 35.7269 33.2031 36.2362 35.6111 36.6289L32.478 40.2378H30.3647C30.1971 40.2378 30.0281 40.1993 29.8748 40.1262ZM57.1001 37.1237L59.8038 40.2378H36.196L38.8997 37.1237C38.91 37.1119 38.9185 37.0992 38.9283 37.0872C41.8385 37.4191 44.883 37.5902 48 37.5902C51.1148 37.5902 54.1628 37.4182 57.0713 37.0869C57.0811 37.099 57.0899 37.1117 57.1001 37.1237ZM66.1174 40.1297C65.9717 40.1995 65.8005 40.2378 65.6353 40.2378H63.5222L60.3893 36.6292C65.4453 35.8068 71.504 34.1983 75.6825 31.3862L81.838 32.631L66.1174 40.1297ZM88.1584 20.0596C88.1582 21.7089 88.159 15.6306 88.1573 28.9636C88.1503 29.3695 87.9133 29.7329 87.5394 29.9113L85.9917 30.6496L78.3483 29.104C79.615 27.6662 80.276 26.1151 80.276 24.5004C80.276 22.8905 79.6188 21.3439 78.3597 19.9099L86.0667 18.3869L87.5397 19.0894C87.9271 19.2741 88.1584 19.6367 88.1584 20.0596ZM66.125 8.87416L81.8884 16.3935L75.6892 17.6186C71.5036 14.7989 65.4322 13.1914 60.3889 12.371L63.5217 8.76238H65.6351C65.8029 8.76256 65.9717 8.80087 66.125 8.87416Z" fill="#36383F"/>
<path d="M90.7716 11.3885L69.5766 0.960918C68.3033 0.332213 66.8784 0.000189341 65.4561 0.000189341H43.7211C42.9444 0.000189341 42.3148 0.631338 42.3148 1.41026C42.3148 2.18919 42.9444 2.82034 43.7211 2.82034H65.4561C66.45 2.82034 67.4453 3.05215 68.3359 3.49191L89.5326 13.9204C91.7871 15.0295 93.1875 17.2849 93.1875 19.8059C93.1877 24.1888 93.1988 28.1114 93.1856 28.9892C93.1435 31.4586 91.7436 33.6694 89.5324 34.7587L89.3036 34.8713C88.6065 35.2142 88.3187 36.0592 88.6609 36.7584C88.8265 37.0968 89.1105 37.3361 89.4375 37.457V57.2727C89.4375 57.9416 88.9913 58.2761 88.7996 58.3889C88.6082 58.5017 88.0991 58.7288 87.5166 58.4019L76.0954 51.9941C75.6887 51.7657 75.436 51.3321 75.436 50.8625V44.8354L85.3116 39.9767C86.0089 39.6336 86.2967 38.7889 85.9547 38.0897C85.6125 37.3904 84.7701 37.1015 84.0728 37.4448L68.3344 45.188C67.4453 45.6268 66.4498 45.8586 65.4559 45.8586C63.2213 45.8586 32.5026 45.8586 30.5439 45.8586C29.5502 45.8586 28.5547 45.6268 27.6641 45.1872L6.46836 34.7587C4.25661 33.6692 2.85655 31.4584 2.81455 28.989C2.79261 27.9304 2.81211 29.2227 2.81267 19.8057C2.81267 17.2847 4.2133 15.0295 6.4678 13.9202L27.6662 3.49078C28.5551 3.05196 29.5504 2.82015 30.5443 2.82015H38.0985C38.8751 2.82015 39.5048 2.189 39.5048 1.41007C39.5048 0.631149 38.8751 0 38.0985 0H30.5443C29.1221 0 27.6973 0.332214 26.4257 0.959791L5.2288 11.3885C2.00361 12.9751 0.000172055 16.2006 0.000172055 19.8059C0.000547055 29.4809 -0.00151545 28.939 0.00279706 29.0545C0.0581096 31.9925 1.45817 34.6724 3.75167 36.3846L3.75017 57.2723C3.75017 58.748 4.50824 60.0746 5.77799 60.8212C6.42505 61.2015 7.13849 61.3922 7.85249 61.3922C8.53949 61.3922 9.22724 61.2158 9.85686 60.8625L21.2784 54.4544C22.5726 53.7281 23.3766 52.3515 23.3766 50.8623V46.219L26.4238 47.7182C27.5411 48.2694 28.7749 48.5924 30.0212 48.6635V61.0393C30.0212 65.9802 33.6244 70 38.0533 70H57.9465C62.3754 70 65.9786 65.9802 65.9786 61.0393V48.6635C67.2249 48.5926 68.4587 48.2696 69.5747 47.719L72.6235 46.219V50.8623C72.6235 52.3517 73.4274 53.7281 74.7218 54.4546L86.1431 60.8625C87.4202 61.579 88.9455 61.5719 90.222 60.8212C91.4918 60.0746 92.2498 58.748 92.2498 57.2723V36.3837C94.5426 34.6713 95.9425 31.9912 95.9972 29.0528C96.0015 28.9373 95.9995 29.4816 95.9998 19.8057C96 16.2006 93.9966 12.9753 90.7716 11.3885ZM20.5642 50.8621C20.5642 51.3317 20.3115 51.7653 19.905 51.9935L8.4838 58.4015C7.90105 58.7281 7.39236 58.5011 7.20074 58.3885C7.00892 58.2757 6.56286 57.9412 6.56286 57.2725L6.56417 37.9471L20.5644 44.8353V50.8621H20.5642ZM57.9467 67.1797H38.0537C35.1756 67.1797 32.8341 64.4251 32.8341 61.0391V48.6786H63.1665V61.0391C63.1663 64.4251 60.8248 67.1797 57.9467 67.1797Z" fill="#36383F"/>
</svg>
