<svg width="94" height="89" viewBox="0 0 94 89" fill="none" xmlns="http://www.w3.org/2000/svg">
<path d="M26 44.5V48.5L46 52L61 50.5L69 48.5L66 39L60 34.5L48.5 35.5L35 34.5L29.5 39L26 44.5Z" fill="#4788FF"/>
<path d="M33 11.5L37 17L48.5 15.5L57 17.5L60 12.5L65.5 9L74 6.5L56.5 2H45L29 4.5L23.5 6.5L33 11.5Z" fill="#4788FF"/>
<path d="M68 53.5L69 48.5L76 45L84 39.5L88.5 33L90.5 26.5L93 36L90.5 45L83 54L71 61.5L62 64L68 53.5Z" fill="#F04716"/>
<path d="M16 45L25.5 48.5L27 57L33 64L17.5 59L8.5 52L2 42L1 33.5L3 29.5L8.5 39.5L16 45Z" fill="#F04716"/>
<path d="M77.5 80L86.2812 74.1459C88.9394 72.3737 92.5 74.2793 92.5 77.4741V81.9352C92.5 85.0444 89.1081 86.9649 86.442 85.3652L77.5 80ZM77.5 80H23.5C14.5 80 10.5 71 16 67C20.4 63.8 20.1133 60.6667 19.42 59.5M19.42 59.5C8.33868 54.2902 1.5 45.5479 1.5 34C1.5 30.2242 2.15611 26.7109 3.42114 23.5M19.42 59.5C23.2976 61.323 27.6947 62.7135 32.5 63.6403M35 34.3147C38.1044 35.3412 42.1984 36 47.5 36C52.6196 36 56.5106 35.3345 59.435 34.3147M35 34.3147C28.7354 32.2434 26.5 28.6746 26.5 26C26.5 23.1718 29.9994 19.3438 36.9983 17.3436M35 34.3147C28.5 37.97 18.9 48.9525 32.5 63.6403M32.5 63.6403C37.1511 64.5374 42.1848 65 47.5 65C53.0158 65 58.1293 64.5374 62.78 63.6403M59.435 34.3147C65.6503 32.1475 67.5 28.3801 67.5 26C67.5 23.4894 64.4127 19.4351 57.5 17.3436M59.435 34.3147C65.6434 37.1367 75.004 46.9525 62.78 63.6403M62.78 63.6403C81.3161 60.0649 92.5 49.5888 92.5 34C92.5 27.9341 90.9034 22.5456 87.8456 18M57.5 17.3436C54.7758 16.5194 51.4575 16 47.5 16C43.3987 16 39.8981 16.5149 36.9983 17.3436M57.5 17.3436C58.5 13.9479 63.4 7.19073 75 7.32818M75 7.32818C67.8167 3.88327 58.5623 2 47.5 2C36.3147 2 26.8237 3.92539 19.42 7.44367M75 7.32818C80.5663 9.99763 84.889 13.6048 87.8456 18M19.42 7.44367C23.7788 6.8582 33.3969 8.01854 36.9983 17.3436M19.42 7.44367C11.6119 11.1541 6.1253 16.6362 3.42114 23.5M3.42114 23.5C1.5 34 11.5 51 47.5 51C89.5 51 93.1912 26.5 87.8456 18" stroke="#36383F" stroke-width="3" stroke-linejoin="round"/>
</svg>
