<svg width="28" height="27" viewBox="0 0 28 27" fill="none" xmlns="http://www.w3.org/2000/svg">
<path d="M0 9C0 4.02944 4.02944 0 9 0H19C23.9706 0 28 4.02944 28 9V14C28 18.9706 23.9706 23 19 23H17.5H15L11 27V23H10H9C4.02944 23 0 18.9706 0 14V9Z" fill="#7D3DAF"/>
<path d="M14.2236 5C15.957 5.2418 17.5273 6.02547 18.7684 7.26652C19.9454 8.44639 20.7174 9.93215 21 11.5694L19.925 11.7529C19.6832 10.34 19.016 9.05526 17.9993 8.03853C16.9272 6.96936 15.5695 6.29057 14.0721 6.08082L14.2236 5Z" fill="white"/>
<path d="M17.6439 14.2613C17.1865 13.8097 16.6155 13.8097 16.161 14.2613C15.8143 14.605 15.4676 14.9488 15.1267 15.2984C15.0335 15.3945 14.9549 15.4149 14.8412 15.3508C14.7523 15.3023 14.6611 15.2575 14.57 15.2127C14.4312 15.1445 14.2926 15.0763 14.1624 14.9954C13.1573 14.3632 12.3153 13.5504 11.5695 12.6357C11.1995 12.1812 10.8703 11.6947 10.6402 11.147C10.5935 11.0363 10.6023 10.9635 10.6926 10.8731C10.9896 10.5861 11.2802 10.2927 11.5717 9.99839L11.7181 9.85059C12.193 9.37282 12.193 8.81347 11.7152 8.33277C11.5797 8.19585 11.4442 8.06039 11.3088 7.92492C11.1733 7.78946 11.0378 7.65399 10.9024 7.51706C10.8092 7.42388 10.7163 7.33037 10.6235 7.23686C10.4376 7.04973 10.2518 6.86259 10.0633 6.67804C9.60593 6.23231 9.03492 6.23231 8.58043 6.68096C8.53181 6.72876 8.48347 6.77674 8.4353 6.82483C8.34504 6.91497 8.25546 7.00549 8.16587 7.09597L8.16439 7.09746C7.95871 7.30525 7.7532 7.51282 7.54037 7.71516C7.21118 8.02688 7.04512 8.40852 7.01014 8.85425C6.9548 9.57966 7.13251 10.2643 7.38305 10.9314C7.89582 12.3123 8.67659 13.5388 9.62342 14.6633C10.9024 16.184 12.429 17.3872 14.2148 18.2554C15.0189 18.6457 15.8521 18.9458 16.7582 18.9953C17.3816 19.0303 17.9235 18.873 18.3576 18.3864C18.553 18.1681 18.7647 17.9624 18.9762 17.7568C19.0864 17.6497 19.1967 17.5426 19.3045 17.4338C19.7706 16.9619 19.7735 16.3909 19.3103 15.9247C18.7594 15.371 18.2057 14.8201 17.6519 14.2693L17.6439 14.2613Z" fill="white"/>
<path d="M17.0874 11.9394L18.1624 11.7559C17.9935 10.7683 17.5273 9.87389 16.8194 9.16305C16.0706 8.41435 15.1238 7.9424 14.0809 7.79674L13.9293 8.87755C14.7364 8.99117 15.4705 9.35533 16.0503 9.93507C16.598 10.4828 16.9563 11.1761 17.0874 11.9394Z" fill="white"/>
</svg>
