<svg width="28" height="28" viewBox="0 0 28 28" fill="none" xmlns="http://www.w3.org/2000/svg">
<circle cx="14" cy="14" r="14" fill="#4D76A1"/>
<path fill-rule="evenodd" clip-rule="evenodd" d="M13.3174 18.9623H14.3336C14.3336 18.9623 14.6405 18.9311 14.7972 18.7743C14.9415 18.6304 14.9369 18.3601 14.9369 18.3601C14.9369 18.3601 14.917 17.0947 15.5498 16.9084C16.1736 16.7249 16.9747 18.1313 17.8238 18.6721C18.4658 19.0814 18.9537 18.9917 18.9537 18.9917L21.224 18.9623C21.224 18.9623 22.4116 18.8944 21.8485 18.0279C21.8023 17.957 21.5205 17.3869 20.1605 16.2154C18.737 14.9892 18.9276 15.1876 20.6424 13.0666C21.6867 11.775 22.1042 10.9864 21.9738 10.6486C21.8494 10.3269 21.0813 10.412 21.0813 10.412L18.5251 10.4267C18.5251 10.4267 18.3357 10.4028 18.1951 10.4807C18.0578 10.5572 17.9694 10.7354 17.9694 10.7354C17.9694 10.7354 17.5648 11.7349 17.0253 12.5849C15.887 14.3786 15.4319 14.4733 15.2459 14.3619C14.8132 14.1024 14.9212 13.3191 14.9212 12.7627C14.9212 11.0245 15.2053 10.2997 14.368 10.1121C14.0901 10.0498 13.8856 10.0087 13.175 10.002C12.263 9.99326 11.491 10.0046 11.0539 10.2034C10.7631 10.3355 10.5388 10.63 10.6754 10.6469C10.8443 10.6679 11.227 10.7426 11.4298 10.999C11.6918 11.3297 11.6825 12.0724 11.6825 12.0724C11.6825 12.0724 11.833 14.1186 11.3311 14.3728C10.9865 14.5472 10.5138 14.1912 9.49906 12.564C8.9791 11.7304 8.58653 10.809 8.58653 10.809C8.58653 10.809 8.51084 10.6368 8.37583 10.5448C8.21197 10.4332 7.98303 10.3976 7.98303 10.3976L5.554 10.4124C5.554 10.4124 5.18935 10.4218 5.0555 10.569C4.93641 10.6998 5.04603 10.9705 5.04603 10.9705C5.04603 10.9705 6.94772 15.0993 9.10096 17.18C11.0753 19.0876 13.3174 18.9623 13.3174 18.9623Z" fill="white"/>
</svg>
