<svg width="112" height="94" viewBox="0 0 112 94" fill="none" xmlns="http://www.w3.org/2000/svg">
<path d="M78 62C83.5228 62 88 57.5228 88 52C88 46.4772 83.5228 42 78 42C72.4772 42 68 46.4772 68 52C68 52.4092 68.0246 52.8127 68.0724 53.2091C71.1153 54.0314 73.4748 57.1914 73.923 61.1339C75.1682 61.6905 76.5479 62 78 62Z" fill="#4788FF"/>
<path d="M15 48C9.00001 58.4 12.8333 68 15.5 71.5L9 70L5.5 66.5L3.5 61.5L2 53.5L3.5 46.5L8.5 37.5L15.5 32L22.5 31L32 35C28.8333 35 21 37.6 15 48Z" fill="#F04716"/>
<path d="M65 31.5L59.5 36L53.5 26L51.5 18.5L53.5 12L56 6.5L61 3.5L66.5 2H89L96 3.5L101.5 7L104.5 15L105 21.5L101 30L97 37L91 32L95.5 23.5L97 19.5V16.5L96 13.5L93.5 10.5L89 9H67.5L61.5 11L59.5 15.5V19.5L65 31.5Z" fill="#4788FF"/>
<path d="M43 79.5L45 87.5L50.5 92L58.5 91L64 88L69.5 82.5L72.5 77L73.5 66.5L72.5 59L69.5 55L64.5 53L59 54L52.5 57.5L48.5 61.5L44.5 70.5L43 79.5Z" fill="#F04716"/>
<path d="M67.4058 54C71.1478 55.7785 74 59.9632 74 67.0001C74 79.5001 65 92 54.5 92C53.1435 92 51.3069 91.6745 49.5 90.7929M67.4058 54C64.5007 52.6193 61.0593 52.6889 58 54C51 57 43 66.0001 43 79.0001C43 85.7198 46.2007 89.1832 49.5 90.7929M67.4058 54L54.5 48.5001C49.5077 47.668 43.477 50.6436 39 56.8508M49.5 90.7929L39 86C32.7581 81.9874 32.0821 72.4088 35.1995 64M35.1995 64C35.5781 62.9788 36.0127 61.9748 36.5 61.0001C37.2558 59.4885 38.0962 58.1038 39 56.8508M35.1995 64L26 59C25.3333 58.5 23.7093 56.5 25.5 53.5C27.2906 50.5 30.3333 51.5 31 52L39 56.8508M42.5 46.5C42.5 42.4618 39.8909 37.7714 35.1995 36.1163M12.5 55C15.5 43 24.5 35.5 31.5 35.5C32.8465 35.5 34.0821 35.7221 35.1995 36.1163M28.5 73.5C26.4237 74.5382 23.399 75.1452 20.5 74.4261M12 61.0001C12.5847 69.7712 16.4178 73.4135 20.5 74.4261M35.1995 36.1163L25 32C17.5 29.0001 8.5 34.5 4 46.5C-0.5 58.5001 5 67.5001 9.5 70.0001L20.5 74.4261" stroke="#36383F" stroke-width="3" stroke-linecap="round" stroke-linejoin="round"/>
<path d="M56.4127 41.5C60.3076 33.5073 68.5107 28 78 28C91.2549 28 102 38.7452 102 52C102 61.4894 96.4927 69.6924 88.5 73.5873H79" stroke="#36383F" stroke-width="3" stroke-linecap="round" stroke-linejoin="round"/>
<path d="M79.5 61.8883C84.3113 61.1645 88 57.013 88 52C88 46.4772 83.5228 42 78 42C74.0418 42 70.6207 44.2997 69 47.6359" stroke="#36383F" stroke-width="3" stroke-linecap="round" stroke-linejoin="round"/>
<path d="M91.5 31.88L96.2982 21.8996C99.1708 15.9247 94.8166 9 88.187 9H68.314C61.5634 9 57.2157 16.1562 60.3265 22.1473L65.1827 31.5" stroke="#36383F" stroke-width="3" stroke-linecap="round" stroke-linejoin="round"/>
<path d="M97.5 37.035L103.254 24.8171C108.252 14.2048 100.509 2 88.7791 2H68.0889C56.1466 2 48.4135 14.6093 53.8277 25.2537L59.5 36.4059" stroke="#36383F" stroke-width="3" stroke-linecap="round" stroke-linejoin="round"/>
</svg>
