<svg width="28" height="28" viewBox="0 0 28 28" fill="none" xmlns="http://www.w3.org/2000/svg">
<path d="M14 28C21.732 28 28 21.732 28 14C28 6.26801 21.732 0 14 0C6.26801 0 0 6.26801 0 14C0 16.6104 0.714414 19.0539 1.95838 21.1457L0 28L6.85435 26.0416C8.94613 27.2856 11.3896 28 14 28Z" fill="#55CD6C"/>
<path d="M18.9333 15.1324C18.4634 14.6686 17.8769 14.6686 17.41 15.1324C17.0539 15.4855 16.6978 15.8387 16.3477 16.1977C16.2519 16.2965 16.1711 16.3174 16.0544 16.2516C15.9631 16.2018 15.8694 16.1558 15.7758 16.1097C15.6333 16.0396 15.4909 15.9696 15.3571 15.8865C14.3247 15.2372 13.4599 14.4023 12.6938 13.4626C12.3137 12.9958 11.9756 12.4961 11.7392 11.9335C11.6913 11.8198 11.7002 11.7449 11.793 11.6522C12.0981 11.3574 12.3966 11.056 12.696 10.7536L12.8464 10.6018C13.3342 10.1111 13.3342 9.5365 12.8434 9.04274C12.7042 8.9021 12.5651 8.76295 12.4259 8.6238C12.2868 8.48465 12.1476 8.3455 12.0085 8.20485C11.9127 8.10913 11.8174 8.01308 11.722 7.91702C11.5311 7.7248 11.3402 7.53258 11.1466 7.34301C10.6768 6.88516 10.0902 6.88516 9.6234 7.34601C9.57345 7.39511 9.5238 7.4444 9.47433 7.49379C9.38161 7.58639 9.28959 7.67937 9.19757 7.7723L9.19605 7.77384C8.98478 7.98727 8.77368 8.20049 8.55506 8.40833C8.21692 8.72853 8.04635 9.12055 8.01042 9.5784C7.95357 10.3235 8.13611 11.0267 8.39347 11.712C8.92018 13.1305 9.72217 14.3903 10.6947 15.5454C12.0085 17.1075 13.5766 18.3434 15.411 19.2351C16.237 19.6361 17.0928 19.9443 18.0235 19.9952C18.6639 20.0311 19.2205 19.8695 19.6664 19.3698C19.8671 19.1455 20.0845 18.9342 20.3018 18.723C20.415 18.613 20.5283 18.503 20.639 18.3912C21.1178 17.9065 21.1208 17.3199 20.645 16.8411C20.0792 16.2723 19.5103 15.7065 18.9415 15.1407L18.9333 15.1324Z" fill="white"/>
</svg>
