<svg width="28" height="28" viewBox="0 0 28 28" fill="none" xmlns="http://www.w3.org/2000/svg">
<circle cx="14" cy="14" r="14" fill="#F43A45"/>
<path d="M10.3279 6.88855C10.1139 5.96006 9.66568 4 9.66568 4H8.54391L9.79112 8.25442C9.79645 8.27246 9.80065 8.29108 9.80382 8.30999C9.80895 8.34079 9.81141 8.37228 9.81141 8.40309L9.811 11.4119H10.8453L10.8449 8.40309C10.8449 8.3534 10.8513 8.30187 10.8651 8.25442C11.0328 7.68371 11.2905 6.80466 11.5283 5.99342L12.1124 4H10.9907L10.7397 5.0961C10.6008 5.70215 10.4351 6.42431 10.3279 6.88855Z" fill="white"/>
<path d="M18.481 11.4131L18.4813 5.93695H17.4958V9.99769L17.496 10.0113C17.4963 10.0431 17.4967 10.0792 17.481 10.0997C17.354 10.2645 17.2043 10.4044 17.008 10.4743C16.847 10.5317 16.7234 10.4507 16.6937 10.2786C16.6843 10.2244 16.68 10.1684 16.68 10.1131V5.93695H15.7017V10.6191C15.7027 10.7557 15.7263 10.8968 15.7654 11.0277C15.883 11.4207 16.197 11.5406 16.5656 11.4664C16.8057 11.418 17.011 11.2955 17.1922 11.1312C17.262 11.0678 17.3275 10.9996 17.3968 10.9274C17.4289 10.894 17.4618 10.8597 17.4963 10.8248L17.4952 11.4131H18.481Z" fill="white"/>
<path d="M16.0851 17.8423C16.0859 17.8534 16.0863 17.8646 16.0863 17.8756C16.0873 18.0866 16.088 18.2976 16.0885 18.5085C16.0901 19.1822 16.0892 19.856 16.0883 20.53L16.088 20.7998L16.0877 20.8205C16.0863 20.869 16.0801 20.9176 16.0703 20.9649C16.0648 20.9919 16.0574 21.017 16.0484 21.0403C15.9852 21.2025 15.8387 21.2717 15.6413 21.2304L15.64 21.2301C15.5032 21.201 15.3963 21.1203 15.3045 21.0183L15.3034 21.0171C15.2992 21.0123 15.2722 20.9746 15.2722 20.9746L15.2698 17.6189C15.2698 17.6189 15.2783 17.594 15.2962 17.5655C15.3062 17.5497 15.3191 17.5328 15.3351 17.5183L15.3358 17.5176C15.4489 17.4144 15.574 17.3495 15.7302 17.3653C15.7385 17.3661 15.7468 17.3671 15.7549 17.3683C15.8765 17.3868 15.9726 17.4497 16.019 17.5685C16.0277 17.591 16.0359 17.6141 16.0434 17.6376C16.0511 17.6614 16.0581 17.6857 16.064 17.7101C16.0704 17.7361 16.0757 17.7623 16.0795 17.7885C16.0822 17.8067 16.084 17.8242 16.0851 17.8423Z" fill="white"/>
<path d="M19.2489 17.3696C19.4858 17.3696 19.678 17.568 19.678 17.8119V18.5759H18.8192V17.8119C18.8192 17.568 19.0113 17.3696 19.2489 17.3696Z" fill="white"/>
<path fill-rule="evenodd" clip-rule="evenodd" d="M8.35094 12.9368C12.1165 12.8536 15.8835 12.8536 19.6486 12.9368C20.9554 12.9653 22 14.0649 22 15.4101V21.4637C22 22.8096 20.9554 23.9091 19.6486 23.9377C15.8835 24.0208 12.1165 24.0208 8.35094 23.9377C7.0446 23.9091 6 22.8096 6 21.4637V15.4101C6 14.0648 7.0446 12.9653 8.35094 12.9368ZM8.37092 22.0153H9.45682V15.6942H10.5833V14.6395H7.2468V15.6966H8.37092V22.0153ZM13.3427 22.0159V16.5679L12.3806 16.5703V20.6287C12.3806 20.6464 12.3806 20.6665 12.3781 20.6849C12.3762 20.6979 12.373 20.7102 12.3678 20.7203C12.3662 20.7233 12.3644 20.7262 12.3624 20.7288C12.2386 20.8933 12.0912 21.0304 11.8978 21.1032C11.7299 21.1664 11.596 21.0893 11.5607 20.9097C11.5465 20.8387 11.5459 20.764 11.5459 20.6912C11.5454 19.3532 11.5418 16.6098 11.5401 16.5764H10.5809C10.5809 16.5961 10.5806 17.6816 10.5807 18.8041C10.5807 19.7968 10.581 20.8183 10.5822 21.1572C10.5827 21.3526 10.6028 21.5468 10.6818 21.7283C10.7666 21.9248 10.9076 22.0493 11.1174 22.0851C11.2713 22.1124 11.4216 22.0948 11.5677 22.0432C11.8672 21.937 12.1019 21.7368 12.3088 21.4964C12.319 21.4845 12.3297 21.4728 12.3431 21.4581L12.3812 21.4163V22.0159H13.3427ZM16.1823 22.0881C16.5891 22.0923 16.872 21.8897 17.0005 21.4916C17.0601 21.3066 17.0795 21.116 17.0801 20.923C17.0809 20.2398 17.0812 19.5566 17.0808 18.8733C17.0806 18.5256 17.0801 18.1778 17.0795 17.8301C17.0795 17.5449 17.0459 17.2645 16.9262 17.0018C16.7235 16.557 16.2973 16.4393 15.9276 16.5346C15.7036 16.5928 15.5221 16.7257 15.3729 16.8974C15.3511 16.9229 15.3282 16.9589 15.3096 16.9911C15.2861 17.0319 15.2692 17.0667 15.2692 17.0667V14.6389H14.306V22.0147H15.2692V21.6008L15.3623 21.7028C15.5834 21.9497 15.8516 22.0851 16.1823 22.0881ZM19.5406 22.1428C20.0465 22.0663 20.3913 21.7872 20.5581 21.2841C20.6837 20.9073 20.669 20.0814 20.669 20.0814H19.678V20.7811C19.678 21.0256 19.4858 21.2235 19.2489 21.2235C19.0113 21.2235 18.8192 21.0256 18.8192 20.7811V19.42H20.6636C20.6636 19.42 20.6743 18.4703 20.6666 18.0395C20.6636 17.8556 20.6501 17.6693 20.6135 17.4897C20.518 17.0237 20.2746 16.6724 19.8189 16.5182C19.6851 16.4727 19.5413 16.4491 19.4003 16.4399C18.9317 16.409 18.5215 16.5467 18.2008 16.9163C17.9196 17.2397 17.8217 17.6293 17.8211 18.0516L17.8203 18.3922C17.8185 19.0865 17.8169 19.7811 17.8234 20.4752C17.8258 20.681 17.8483 20.8909 17.8936 21.0912C17.9915 21.5214 18.2196 21.8594 18.6222 22.0463C18.9164 22.1834 19.227 22.1901 19.5406 22.1428Z" fill="white"/>
<path fill-rule="evenodd" clip-rule="evenodd" d="M12.0512 7.25282C12.0512 6.45036 12.6831 5.79987 13.4626 5.79987C14.2422 5.79987 14.8742 6.45036 14.8741 7.25282V10.0963C14.8741 10.8987 14.2422 11.5492 13.4626 11.5492C12.6831 11.5492 12.0512 10.8987 12.0512 10.0963V7.25282ZM13.4627 10.5729C13.6873 10.5729 13.87 10.3849 13.87 10.1537V7.19535C13.87 6.96422 13.6873 6.7761 13.4627 6.7761C13.2382 6.7761 13.0554 6.96417 13.0554 7.19535V10.1537C13.0554 10.3849 13.2382 10.5729 13.4627 10.5729Z" fill="white"/>
</svg>
